<svg id="icon" xmlns="http://www.w3.org/2000/svg" viewBox="0 0 48 48"><path d="M47.85,35.91a4.52,4.52,0,0,0-2-2.94,4.43,4.43,0,0,0-.83-.39A6.56,6.56,0,0,0,43.89,25c-1.84-2-4.48-2.12-6.42-1.81a15.2,15.2,0,0,0-1.64-10.87C34.05,9.41,30.35,6,22.75,6.64,18.8,7,15.8,8.47,13.84,11.15,11,15,11.15,20.22,11.49,23,8,22.4,3.1,23,.89,28.62c-1.4,3.53-1.13,7.52.67,10.18a5.58,5.58,0,0,0,4.65,2.63H43.9A4,4,0,0,0,47.09,40,4.71,4.71,0,0,0,47.85,35.91ZM22.27,25.28l-1.56-1.56V34.48a1.24,1.24,0,0,1-2.48,0V23.72l-1.57,1.56a1.24,1.24,0,0,1-1.75-1.75l3.68-3.68a1.22,1.22,0,0,1,.88-.37,1.19,1.19,0,0,1,.87.37L24,23.53a1.25,1.25,0,0,1-.87,2.12A1.25,1.25,0,0,1,22.27,25.28Zm10.82,6.4-3.68,3.68a1.25,1.25,0,0,1-.88.36,1.27,1.27,0,0,1-.88-.36L24,31.68a1.24,1.24,0,0,1,1.76-1.75l1.56,1.56V20.72a1.24,1.24,0,1,1,2.48,0V31.49l1.57-1.56a1.23,1.23,0,0,1,1.75,0A1.24,1.24,0,0,1,33.09,31.68Z"/></svg>
