<svg id="icon" xmlns="http://www.w3.org/2000/svg" viewBox="0 0 48 48"><g id="_9" data-name="9"><path d="M4.7,18.52l-.23,0a1.25,1.25,0,0,1-1-1.45,20.88,20.88,0,0,1,41-.38,1.24,1.24,0,0,1-2.43.5,18.39,18.39,0,0,0-36.1.33A1.26,1.26,0,0,1,4.7,18.52Z"/><path d="M4.37,27.09a1.29,1.29,0,0,1-.79-.28,1.24,1.24,0,0,1-.17-1.75l1.88-2.31A6.92,6.92,0,0,0,6.8,19.28a17.35,17.35,0,0,1,34.37-.21,7.09,7.09,0,0,0,1.69,3.7l1.7,1.91a1.24,1.24,0,0,1-1.85,1.65L41,24.42a9.56,9.56,0,0,1-2.29-5,14.87,14.87,0,0,0-29.46.18,9.34,9.34,0,0,1-2,4.72L5.33,26.63A1.26,1.26,0,0,1,4.37,27.09Z"/><path d="M5.39,33.27a1.25,1.25,0,0,1-.92-2.08l2.88-3.12a11.1,11.1,0,0,0,2.39-4.14l.14-.47A10.1,10.1,0,0,0,10.36,21,13.35,13.35,0,0,1,23.72,8.56H24A13.68,13.68,0,0,1,37.56,20.5a11.31,11.31,0,0,0,.7,2.82,10.81,10.81,0,0,0,3,4.14L44,29.89a1.24,1.24,0,1,1-1.61,1.88L39.6,29.34A13.22,13.22,0,0,1,36,24.24a14.38,14.38,0,0,1-.87-3.43A11.19,11.19,0,0,0,24,11h-.28A10.92,10.92,0,0,0,12.84,21.18a13,13,0,0,1-.59,3l-.15.47a13.46,13.46,0,0,1-2.93,5.07L6.3,32.87A1.21,1.21,0,0,1,5.39,33.27Z"/><path d="M7,38.39a1.24,1.24,0,0,1-.69-2.28c8.27-5.45,7.85-13.12,7.84-13.2v-.08a9.83,9.83,0,0,1,19.66-.3c0,.25.62,8.66,8.53,11.64a1.24,1.24,0,0,1-.88,2.32c-9.57-3.61-10.13-13.78-10.13-13.88a7.35,7.35,0,0,0-14.7.19,15.32,15.32,0,0,1-.9,5.38,19.7,19.7,0,0,1-8,10A1.23,1.23,0,0,1,7,38.39Z"/><path d="M26.2,48a1.09,1.09,0,0,1-.43-.08A1.24,1.24,0,0,1,25,46.33c2.94-8,3.77-16.71,2.23-23.19a5,5,0,0,0-1-2.22,3.18,3.18,0,0,0-2.26-1h0a3.46,3.46,0,0,0-3.26,3.46,8.53,8.53,0,0,1-.09.95c-.4,3.09-2.2,13.54-8.6,18.3a1.24,1.24,0,1,1-1.48-2C16.32,36.35,17.92,26,18.18,24c0-.22.06-.48.07-.73A6,6,0,0,1,24,17.43h0a5.58,5.58,0,0,1,4,1.78,7.14,7.14,0,0,1,1.59,3.35A36.51,36.51,0,0,1,30.23,35a53.06,53.06,0,0,1-2.86,12.16A1.24,1.24,0,0,1,26.2,48Z"/><path d="M20.53,48a1.17,1.17,0,0,1-.57-.14,1.23,1.23,0,0,1-.54-1.66c4.4-8.64,4.9-15.47,4.85-18.53-.46,3.24-2,9.85-7.25,17.92a1.24,1.24,0,1,1-2.08-1.35,47.65,47.65,0,0,0,6-13,25.37,25.37,0,0,0,1-5.57v-.05c0-.12,0-.24,0-.36a6.78,6.78,0,0,1,.18-1.51A1.83,1.83,0,0,1,24,22.3a2.44,2.44,0,0,1,2,1A3.27,3.27,0,0,1,26.55,25c0,.19,0,.38.07.59v.14a28.12,28.12,0,0,1-.33,7.73,47.12,47.12,0,0,1-4.67,13.9A1.24,1.24,0,0,1,20.53,48Z"/><path d="M31.48,46.35a1.27,1.27,0,0,1-.34,0,1.24,1.24,0,0,1-.86-1.53A46.12,46.12,0,0,0,31.56,33,1.24,1.24,0,0,1,34,32.52a10.2,10.2,0,0,0,5.76,5.77,1.43,1.43,0,0,1,.64.47,1.24,1.24,0,0,1-1.61,1.82l-.06,0A15,15,0,0,1,34,37.19a40.11,40.11,0,0,1-1.28,8.26A1.23,1.23,0,0,1,31.48,46.35Z"/></g></svg>