<svg id="icon" xmlns="http://www.w3.org/2000/svg" viewBox="0 0 48 48"><g id="_10" data-name="10"><path d="M33.16,32.27A3,3,0,0,1,32.62,34a2.45,2.45,0,0,1-.29.35l.09-.35.6-2.47,0-.09a.36.36,0,0,1,0,.1h0A2.66,2.66,0,0,1,33.16,32.27Z"/><path d="M41.84,30.92v3.67H34.27a4.85,4.85,0,0,0,.29-.61,4.65,4.65,0,0,0,.33-1.71,4.52,4.52,0,0,0-.06-.74,6,6,0,0,0-.14-.61Z"/><path d="M32.62,34a2.45,2.45,0,0,1-.29.35,3,3,0,0,1-.62.5.69.69,0,0,1-.05-.24.61.61,0,0,1,.61-.61Z"/><path d="M32.55,30.92a.58.58,0,0,1,.1-.32,3.09,3.09,0,0,1,.39.82h0a.36.36,0,0,1,0,.1h0A.61.61,0,0,1,32.55,30.92Z"/><path d="M42.45,30.92v3.67a.6.6,0,0,1-.61.6h-8A4.85,4.85,0,0,0,34.56,34h6.68V31.53H34.83a6,6,0,0,0-.14-.61,3.92,3.92,0,0,0-.23-.6h7.38A.6.6,0,0,1,42.45,30.92Z"/><path d="M26.92,28.85a5.56,5.56,0,0,0-.46.5l-1.65-4.47-.06-.16,3.43-1.3.06.17,1.47,4a4.09,4.09,0,0,0-.61.1A4.7,4.7,0,0,0,26.92,28.85Z"/><path d="M30.07,29.28l-.27.2L27.72,31l-.38.29a2.88,2.88,0,0,1,.27-.59,3,3,0,0,1,2.1-1.4A2.19,2.19,0,0,1,30.07,29.28Z"/><path d="M27.43,32a.52.52,0,0,1-.21,0h0a2.65,2.65,0,0,1,.15-.69,2.88,2.88,0,0,1,.27-.59l.11.3.07.17A.6.6,0,0,1,27.43,32Z"/><path d="M30.35,27.55h-.18l-.46,0a4.09,4.09,0,0,0-.61.1L27.82,24.2l-2.29.87,1.39,3.78a5.56,5.56,0,0,0-.46.5h0a4.44,4.44,0,0,0-.41.62l-1.81-4.88-.06-.16a.61.61,0,0,1,.36-.77L28,22.85a.62.62,0,0,1,.79.36l.06.17Z"/><path d="M30.84,29.35a.6.6,0,0,1-1,.13.38.38,0,0,1-.09-.15v0a2.19,2.19,0,0,1,.36,0h.1A3,3,0,0,1,30.84,29.35Z"/><path d="M41.84,29.72v6.07a3,3,0,0,0,3,3H47.4V26.69H44.87A3,3,0,0,0,41.84,29.72Z"/><path d="M47.4,26.09H44.87a3.64,3.64,0,0,0-3.63,3.63v6.07a3.64,3.64,0,0,0,3.63,3.63H47.4a.6.6,0,0,0,.6-.6V26.69A.6.6,0,0,0,47.4,26.09Zm-.61,12.12H44.87a2.42,2.42,0,0,1-2.42-2.42V29.72a2.42,2.42,0,0,1,2.42-2.42h1.92Z"/><polygon points="15.06 21.27 10.24 22 36.28 13.29 15.06 21.27"/><path d="M34.87,21.1l-6.06,2.28-.57.21-3.43,1.29-.57.21L10.56,30.24h0l-2.4-6.19L8.58,24l6.74-1a1.39,1.39,0,0,0,.35-.09l22-8.26h0l.07.17A4.86,4.86,0,0,1,34.87,21.1Z"/><path d="M33.16,32.27A3,3,0,0,1,32.62,34a2.45,2.45,0,0,1-.29.35,3,3,0,0,1-5.15-2.06,2.53,2.53,0,0,1,0-.28,2.65,2.65,0,0,1,.15-.69,2.88,2.88,0,0,1,.27-.59,3,3,0,0,1,2.1-1.4,2.19,2.19,0,0,1,.36,0h.1a2.93,2.93,0,0,1,2.48,1.32,3.09,3.09,0,0,1,.39.82h0a.36.36,0,0,1,0,.1h0A2.66,2.66,0,0,1,33.16,32.27Z"/><path d="M10.56,30.25h0a5.32,5.32,0,0,1-5.28-5.32c0-.15,0-.3,0-.45l2.86-.42L8.58,24l2,6.25Z"/><path d="M37,13l-.74.28-21.22,8L10.24,22,1.12,23.36,0,20.33,30.26,8.89A5,5,0,0,1,32,8.58a4.85,4.85,0,0,1,4.54,3.13Z"/></g></svg>