<?xml version="1.0" encoding="UTF-8" standalone="no"?>
<!DOCTYPE svg PUBLIC "-//W3C//DTD SVG 1.1//EN" "http://www.w3.org/Graphics/SVG/1.1/DTD/svg11.dtd">
<svg height="100%" stroke-miterlimit="10" style="fill-rule:nonzero;clip-rule:evenodd;stroke-linecap:round;stroke-linejoin:round;" version="1.1" viewBox="0 0 1024 1024" width="100%" xml:space="preserve" xmlns="http://www.w3.org/2000/svg" xmlns:xlink="http://www.w3.org/1999/xlink">
<defs/>
<g id="Ebene-1">
<g opacity="1">
<path d="M128.166 52.3575L895.834 52.3575C933.77 52.3575 964.524 83.1106 964.524 121.047L964.524 229.422C964.524 267.358 933.77 298.111 895.834 298.111L128.166 298.111C90.2296 298.111 59.4764 267.358 59.4764 229.422L59.4764 121.047C59.4764 83.1106 90.2296 52.3575 128.166 52.3575Z" fill="#000000" fill-rule="nonzero" opacity="1" stroke="#000000" stroke-linecap="butt" stroke-linejoin="round" stroke-width="49.6422"/>
<path d="M126.754 386.329L897.246 386.329C934.402 386.329 964.524 416.45 964.524 453.607L964.524 564.805C964.524 601.961 934.402 632.083 897.246 632.083L126.754 632.083C89.5978 632.083 59.4764 601.961 59.4764 564.805L59.4764 453.607C59.4764 416.45 89.5978 386.329 126.754 386.329Z" fill="none" opacity="1" stroke="#000000" stroke-linecap="butt" stroke-linejoin="round" stroke-width="49.6422"/>
<path d="M40.4831 512.478L40.4831 514.468C40.4831 577.559 91.6282 628.704 154.719 628.704L869.281 628.704C932.372 628.704 983.517 577.559 983.517 514.468L983.517 512.478C983.517 449.388 932.372 398.243 869.281 398.243L154.719 398.243C91.6282 398.243 40.4831 449.388 40.4831 512.478ZM317.197 414.439C327.005 414.439 346.598 414.439 356.407 414.439C368.154 414.439 378.862 416.215 388.319 420.04C397.864 423.9 406.004 429.967 412.325 437.997C418.549 445.902 422.995 455.591 425.897 466.708C425.883 466.656 425.916 466.761 426.026 467.188C426.135 467.616 426.135 467.722 426.122 467.668C428.947 478.909 430.283 491.746 430.283 506.271C430.283 535.483 424.954 558.772 412.325 575.057C412.229 575.181 412.126 575.282 412.102 575.314C399.286 591.65 379.837 599.352 356.407 599.352C346.598 599.352 327.005 599.352 317.197 599.352C311.717 599.352 307.273 594.908 307.273 589.429C307.273 548.162 307.273 465.628 307.273 424.361C307.273 418.881 311.717 414.439 317.197 414.439ZM466.548 414.439C471.813 414.439 482.344 414.439 487.61 414.439C491.492 414.439 495.022 416.701 496.636 420.232C506.733 442.317 522.545 476.889 537.031 508.576C537.031 477.929 537.031 445.413 537.031 424.361C537.031 418.881 541.475 414.439 546.953 414.439C551.657 414.439 561.07 414.439 565.774 414.439C571.254 414.439 575.698 418.882 575.698 424.361C575.698 465.628 575.698 548.161 575.698 589.429C575.698 594.908 571.254 599.352 565.774 599.352C560.509 599.352 549.978 599.352 544.712 599.352C540.834 599.352 537.303 597.083 535.687 593.558C525.584 571.534 509.783 537.064 495.292 505.471C495.292 536.026 495.292 568.437 495.292 589.429C495.292 594.908 490.849 599.352 485.369 599.352C480.665 599.352 471.252 599.352 466.548 599.352C461.068 599.352 456.626 594.908 456.626 589.429C456.626 548.162 456.626 465.628 456.626 424.361C456.626 418.881 461.068 414.439 466.548 414.439ZM347.605 451.184C347.605 482.937 347.605 530.885 347.605 562.638C351.459 562.638 355.309 562.638 357.879 562.638C364.517 562.638 369.405 561.322 373.083 559.245C377.03 557.016 380.196 553.938 382.814 549.547C385.498 545.045 387.628 539.262 388.959 532.006C390.325 524.565 391.04 515.979 391.04 506.271C391.04 496.639 390.32 488.145 388.959 480.824C387.628 473.661 385.546 467.985 382.942 463.635C380.416 459.416 377.359 456.508 373.531 454.417C369.926 452.448 364.996 451.184 358.295 451.184C355.621 451.184 351.616 451.184 347.605 451.184ZM652.005 411.142C659.458 411.142 666.457 411.973 672.907 413.798C679.526 415.671 685.566 418.754 690.736 423.017C695.898 427.274 700.136 432.649 703.475 438.861C706.842 445.125 709.278 452.32 710.997 460.371C712.093 465.506 709.016 470.591 703.955 471.99C699.411 473.246 690.318 475.759 685.775 477.016C680.301 478.529 674.682 475.133 673.451 469.59C672.714 466.27 671.725 463.101 670.474 460.019C669.422 457.427 668.091 455.247 666.505 453.361C666.488 453.342 666.412 453.248 666.345 453.169C664.899 451.486 663.131 450.141 660.744 449.008C658.867 448.117 656.129 447.439 652.23 447.439C646.383 447.439 642.733 448.655 640.514 450.128C637.729 451.978 636.555 453.666 635.937 455.666C634.843 459.21 634.369 462.478 634.369 465.524C634.369 471.015 635.739 474.397 638.018 477.016C640.424 479.78 644.716 482.585 651.813 484.665C651.827 484.67 651.832 484.661 651.845 484.665C656.603 486.082 666.133 488.914 670.891 490.331C677.707 492.368 683.711 494.881 688.911 498.045C694.084 501.192 698.607 505.083 702.29 509.664C702.305 509.681 702.34 509.71 702.355 509.728C710.073 519.468 713.462 531.95 713.462 546.026C713.462 553.918 712.381 561.377 710.069 568.272C707.698 575.34 703.892 581.669 698.738 586.868C693.511 592.142 686.993 596.049 679.596 598.711C671.998 601.447 663.462 602.68 654.054 602.68C644.661 602.68 636.207 601.468 628.735 598.744C621.475 596.095 615.068 592.145 609.883 586.868C604.844 581.742 600.892 575.57 598.071 568.624C595.367 561.964 593.399 554.677 592.086 546.794C591.203 541.496 594.688 536.461 599.959 535.431C604.744 534.495 614.317 532.621 619.101 531.685C624.665 530.598 630.033 534.397 630.847 540.008C631.421 543.957 632.244 547.755 633.345 551.403C634.293 554.546 635.602 557.156 637.282 559.437C638.682 561.339 640.525 562.931 643.203 564.27C645.306 565.322 648.699 566.158 653.637 566.158C659.754 566.158 663.883 564.968 666.601 563.342C669.73 561.469 670.985 559.685 671.659 557.741C672.86 554.274 673.419 551.026 673.419 547.85C673.419 541.922 672.035 537.712 669.674 534.375C667.679 531.556 663.645 528.532 656.134 526.212C651.851 524.901 643.343 522.302 639.074 520.995C639.06 520.991 639.024 520.967 639.01 520.963C632.013 518.786 625.801 516.158 620.349 512.929C614.839 509.666 610.052 505.685 606.233 500.958C602.418 496.233 599.588 490.784 597.815 484.889C596.057 479.044 595.287 472.709 595.287 465.94C595.287 454.558 597.954 444.041 603.577 434.988C603.589 434.968 603.622 434.908 603.673 434.828C609.242 425.933 616.946 419.243 626.398 415.751C634.69 412.687 643.275 411.142 652.005 411.142Z" fill="#000000" fill-rule="nonzero" opacity="1" stroke="none"/>
<path d="M126.496 725.889L897.504 725.889C934.518 725.889 964.524 755.894 964.524 792.908L964.524 904.623C964.524 941.637 934.518 971.643 897.504 971.643L126.496 971.643C89.482 971.643 59.4764 941.637 59.4764 904.623L59.4764 792.908C59.4764 755.894 89.482 725.889 126.496 725.889Z" fill="#000000" fill-rule="nonzero" opacity="1" stroke="#000000" stroke-linecap="butt" stroke-linejoin="round" stroke-width="49.6422"/>
</g>
</g>
</svg>
