<svg fill="#000000" xmlns="http://www.w3.org/2000/svg" xmlns:xlink="http://www.w3.org/1999/xlink" version="1.0" x="0px" y="0px" viewBox="0 0 90 90" enable-background="new 0 0 90 90" xml:space="preserve"><g><path d="M79.195,75.598l-2.582-19.931c-0.002-0.017-0.005-0.033-0.008-0.05c-0.061-0.318-0.136-0.635-0.222-0.94   c-1.355-4.813-5.794-8.175-10.793-8.175c-0.431,0-0.865,0.025-1.296,0.074c-1.925-1.499-4.142-2.721-6.604-3.655   c-0.521-0.197-1.05-0.387-1.593-0.558c-0.005-0.001-0.01-0.001-0.015-0.003c-0.221-0.065-0.461-0.04-0.662,0.074   c-3.096,1.752-6.617,2.678-10.184,2.678c-3.565,0-7.086-0.926-10.182-2.678l-0.322-0.183l-0.354,0.111   c-3.088,0.973-5.829,2.378-8.152,4.179c-0.31-0.025-0.621-0.038-0.929-0.038c-5,0-9.438,3.36-10.794,8.172   c-0.086,0.306-0.16,0.622-0.221,0.94l-2.59,19.98c-0.167,1.291,0.747,2.479,2.039,2.646l1.115,0.145   c0.404,3.335,3.249,5.943,6.673,5.98c0.343,0.076,0.684,0.114,1.016,0.114h22.702h0.854h21.85c0.381,0,0.77-0.05,1.155-0.147   c3.181-0.286,5.689-2.73,6.111-5.84l1.95-0.252C78.448,78.076,79.362,76.889,79.195,75.598z M55.779,44.184l-1.057,5.155   l-4.617,7.778l-0.312-3.283c0.946-0.41,1.654-1.229,1.928-2.219c0.081-0.293,0.126-0.599,0.126-0.914v-1.958   c0-0.78-0.266-1.498-0.708-2.073c-0.146-0.191-0.313-0.365-0.495-0.521C52.426,45.706,54.153,45.05,55.779,44.184z M46.091,47.032   h2.338c0.598,0,1.123,0.308,1.43,0.772l-3.768,3.334V47.032z M46.091,56.6l2.078-1.84l0.344,3.494l-2.422,2.145V56.6z    M46.091,65.859l2.917-2.582l0.344,3.494l-3.261,2.886V65.859z M46.091,75.118l3.755-3.323l0.26,2.643l-4,3.998l-0.015-0.015   V75.118z M76.937,76.551l-2.633,0.342c-0.416,0.054-0.731,0.402-0.743,0.822c-0.072,2.604-2.083,4.722-4.678,4.927   c-0.052,0.004-0.104,0.013-0.154,0.026c-0.267,0.072-0.531,0.108-0.788,0.108h-21.85v-1.942l0.015,0.015l5.777-5.775l-0.46-4.675   l-0.494-5.023l-0.344-3.494l-0.239-2.273l6.145-4.583l0.209-1.303l1.408,0.2l1.536-1.312l1.953-5.847   c0.67,0.428,1.312,0.885,1.918,1.373c0.186,0.15,0.425,0.214,0.662,0.18l0.177-0.027c0.41-0.053,0.826-0.08,1.237-0.08   c4.238,0,8.001,2.85,9.15,6.93c0.071,0.252,0.132,0.512,0.183,0.773l2.579,19.905C77.549,76.176,77.296,76.505,76.937,76.551z"></path><path d="M58.087,70.314c0,1.042,0.845,1.887,1.887,1.887h5.345c1.042,0,1.886-0.845,1.886-1.887v-4.611h-9.117V70.314z"></path><polygon points="62.646,62.105 60.679,61.423 58.087,63.131 58.087,64.971 67.204,64.971 67.204,63.131 64.772,60.057  "></polygon><circle cx="53.902" cy="64.779" r="1.465"></circle><circle cx="53.902" cy="79.064" r="1.464"></circle><path d="M27.978,22.603c0.169,0.123,0.355,0.226,0.566,0.291c0.192,0.059,1.581,0.478,3.833,0.948c0.002,0,0.004,0.001,0.007,0.001   c-0.441,1.361-0.682,2.811-0.682,4.316c0,5.05,2.734,9.734,7.137,12.225c2.1,1.188,4.486,1.816,6.904,1.816h0.846h0.008v-0.028   c2.124-0.13,4.201-0.74,6.053-1.789c4.402-2.491,7.138-7.176,7.138-12.225c0-1.477-0.231-2.899-0.655-4.237   c1.385-0.307,2.777-0.668,4.175-1.108c0.835-0.262,1.365-1.029,1.379-1.861c0.248-0.885-0.038-1.872-0.809-2.473   c-1.074-0.839-2.186-1.345-6.03-1.641v-5.771c0-4.298-3.483-7.782-7.783-7.782h-9.282c-4.298,0-7.782,3.484-7.782,7.782v5.775   c-3.842,0.298-4.947,0.809-6.006,1.654c-1.007,0.804-1.172,2.273-0.366,3.281C26.981,22.219,27.463,22.496,27.978,22.603z    M58.031,29.113c-0.162,2.087-0.855,4.076-1.976,5.791c-0.013,0.018-0.023,0.036-0.036,0.053c-0.081,0.123-0.164,0.244-0.249,0.364   c-0.025,0.035-0.052,0.07-0.077,0.105c-0.076,0.104-0.153,0.208-0.232,0.311c-0.042,0.055-0.087,0.108-0.131,0.162   c-0.066,0.083-0.132,0.166-0.201,0.247c-0.115,0.136-0.233,0.27-0.354,0.4c-0.001,0.001-0.003,0.003-0.005,0.005   c-0.169,0.183-0.343,0.36-0.523,0.532c-0.002,0.001-0.004,0.003-0.006,0.005c-0.726,0.691-1.537,1.304-2.432,1.81   c-1.596,0.903-3.383,1.438-5.212,1.565v-0.001c-0.002,0-0.005,0-0.008,0.001v-8.208l0.008-0.002L58.031,29.113z M47.015,26.9   c0-0.843,0.687-1.526,1.533-1.526h0.03h0.434h7.252l-6.051,2.464l-1.635,0.588h-0.03C47.701,28.427,47.015,27.744,47.015,26.9z    M45.95,14.118v-1.15c4.368-0.768,10.569,1.025,10.569,1.025v2.617c-1,0-2.561-0.396-3.95-0.7c-0.688-0.15-1.333-0.278-1.847-0.324   c-2.852-0.256-4.772,0-4.772,0V14.118z"></path></g></svg>