<svg id="icon" xmlns="http://www.w3.org/2000/svg" viewBox="0 0 48 48"><path d="M32.55,22.74A14,14,0,0,0,29.1,20.6l4.07-4.84L39.36,21l-4.08,4.84A14.36,14.36,0,0,0,32.55,22.74Z"/><path d="M8.63,33.82A14.19,14.19,0,1,0,22.82,19.63,14.18,14.18,0,0,0,8.63,33.82Zm2.27,1.83a9.76,9.76,0,0,1,1.2-4.72,11.17,11.17,0,0,0-.36,2.79A11,11,0,0,0,25.08,44.5,9.85,9.85,0,0,1,10.9,35.65Z"/><polygon points="28.76 4.12 30.99 4.87 29.71 6.85 31.91 5.99 32.2 8.32 33.33 6.26 35.05 7.86 34.59 5.55 36.94 5.67 35.1 4.2 36.98 2.77 34.62 2.83 35.14 0.54 33.38 2.1 32.3 0 31.95 2.33 29.78 1.42 31.01 3.42 28.76 4.12"/><path d="M37.39,18.5a10.71,10.71,0,0,0,1.76-4A9.06,9.06,0,0,0,36.5,6L35.4,7a7.56,7.56,0,0,1,2.25,7.15,9.29,9.29,0,0,1-1.48,3.37Z"/></svg>