<?xml version="1.0" encoding="iso-8859-1"?>
<!-- Generator: Adobe Illustrator 18.1.1, SVG Export Plug-In . SVG Version: 6.00 Build 0)  -->
<svg version="1.1" id="Capa_1" xmlns="http://www.w3.org/2000/svg" xmlns:xlink="http://www.w3.org/1999/xlink" x="0px" y="0px"
	 viewBox="0 0 35.933 35.933" style="enable-background:new 0 0 35.933 35.933;" xml:space="preserve">
<g>
	<path d="M29.646,10.461c-3.14-2.693-7.215-4.331-11.682-4.331C8.043,6.13,0,14.173,0,24.099c0,0.266,0.026,2.75,0.038,3.015v2.69
		H35.86V27.31l0.034-0.196c0.011-0.266,0.039-2.749,0.039-3.015C35.934,15.291,29.646,10.461,29.646,10.461z M4.37,27.114
		c-0.015-0.164,0.006-2.549-0.005-2.713H8.05v-1.19H4.624c0-0.014-0.259,0.002-0.259,0.002c0.145-3.085,1.32-6.163,3.539-8.59
		l0.093-0.1l0.166,0.144l2.452,2.454l0.77-0.772L8.78,13.746c2.358-2.156,5.35-3.393,8.542-3.535l0.185-0.001
		c0,0,0.077-0.003,0.072,0.046v3.634h0.981v-3.679c0.484,0.02,0.968,0.077,1.445,0.152c2.741,0.362,5.289,1.545,7.352,3.43
		l-2.6,2.602l0.723,0.726l2.497-2.498l0.138-0.111l0.118,0.156c2.159,2.36,3.394,5.35,3.539,8.543h-3.681v1.19l3.698-0.005
		c0,0,0.003,2.561-0.01,2.709L4.37,27.114z M22.8,18.528c0,0-5.844,1.792-6.963,2.909c-1.121,1.122-1.121,2.935,0.002,4.057
		c1.117,1.121,2.932,1.121,4.054,0C21.011,24.372,22.8,18.528,22.8,18.528z"/>
	<g>
	</g>
	<g>
	</g>
	<g>
	</g>
	<g>
	</g>
	<g>
	</g>
	<g>
	</g>
	<g>
	</g>
	<g>
	</g>
	<g>
	</g>
	<g>
	</g>
	<g>
	</g>
	<g>
	</g>
	<g>
	</g>
	<g>
	</g>
	<g>
	</g>
</g>
<g>
</g>
<g>
</g>
<g>
</g>
<g>
</g>
<g>
</g>
<g>
</g>
<g>
</g>
<g>
</g>
<g>
</g>
<g>
</g>
<g>
</g>
<g>
</g>
<g>
</g>
<g>
</g>
<g>
</g>
</svg>
