<?xml version="1.0" encoding="UTF-8" standalone="no"?>
<!DOCTYPE svg PUBLIC "-//W3C//DTD SVG 1.1//EN" "http://www.w3.org/Graphics/SVG/1.1/DTD/svg11.dtd">
<svg height="100%" stroke-miterlimit="10" style="fill-rule:nonzero;clip-rule:evenodd;stroke-linecap:round;stroke-linejoin:round;" version="1.1" viewBox="0 0 1024 1024" width="100%" xml:space="preserve" xmlns="http://www.w3.org/2000/svg" xmlns:xlink="http://www.w3.org/1999/xlink">
<defs/>
<clipPath id="ArtboardFrame">
<rect height="1024" width="1024" x="0" y="0"/>
</clipPath>
<g clip-path="url(#ArtboardFrame)" id="Ebene-1">
<g opacity="1">
<g opacity="1">
<path d="M476.654 40.9095C471.418 40.5822 464.872 40.7458 457.017 41.4004C449.162 42.055 439.998 43.2005 429.525 44.8369C419.052 46.4733 409.479 50.4008 400.806 56.6192C392.133 62.8376 384.36 71.347 377.487 82.1474C370.614 92.9478 364.477 101.784 359.077 108.657C353.677 115.53 349.013 120.44 345.086 123.385C341.158 126.331 337.64 128.622 334.531 130.258C331.421 131.895 328.721 132.877 326.43 133.204C324.139 133.531 321.685 133.449 319.066 132.958C316.448 132.467 313.666 131.567 310.721 130.258C307.775 128.949 304.42 126.74 300.657 123.631C296.893 120.522 292.72 116.512 288.138 111.603C283.556 106.694 276.765 105.303 267.765 107.43C258.764 109.558 247.555 115.203 234.136 124.367C220.717 133.531 208.362 142.695 197.071 151.859C185.78 161.023 175.552 170.187 166.388 179.351C157.224 188.515 148.633 197.761 140.614 207.088C132.596 216.416 125.15 225.825 118.277 235.317C111.404 244.808 105.104 254.136 99.3765 263.3C93.649 272.464 88.4942 281.464 83.9122 290.301C79.3303 299.137 75.321 308.547 71.8845 318.529C68.448 328.511 65.5843 339.066 63.2933 350.194C61.0023 361.321 59.6113 372.367 59.1204 383.331C58.6295 394.295 59.0386 405.178 60.3477 415.978C61.6569 426.778 63.5388 436.433 65.9934 444.943C68.448 453.452 71.4754 460.816 75.0756 467.034C78.6757 473.253 83.6668 479.88 90.0488 486.917C96.4309 493.954 104.204 501.399 113.368 509.254C122.532 517.109 131.041 523.982 138.896 529.873C146.751 535.764 153.951 540.674 160.497 544.601C167.043 548.528 175.143 552.947 184.798 557.856C194.453 562.765 205.662 568.166 218.426 574.057C231.19 579.948 241.091 584.693 248.127 588.294C255.164 591.894 259.337 594.348 260.646 595.657C261.955 596.967 263.019 598.439 263.837 600.076C264.655 601.712 265.228 603.512 265.555 605.476C265.883 607.44 265.555 610.303 264.574 614.067C263.592 617.831 261.955 622.495 259.664 628.059C257.373 633.623 255.328 639.595 253.528 645.978C251.728 652.36 250.173 659.151 248.864 666.351C247.555 673.551 246.655 680.261 246.164 686.479C245.673 692.697 245.591 698.425 245.918 703.662C246.246 708.898 246.737 713.562 247.391 717.653C248.046 721.744 248.864 725.262 249.846 728.208C250.828 731.153 252.3 734.344 254.264 737.781C256.228 741.217 258.682 744.899 261.628 748.827C264.574 752.754 269.401 757.173 276.11 762.082C282.82 766.991 291.411 772.391 301.884 778.282C312.357 784.174 321.767 790.147 330.112 796.201C338.458 802.256 345.74 808.393 351.959 814.611C358.177 820.83 363.332 827.293 367.423 834.003C371.514 840.712 374.541 847.667 376.505 854.867C378.469 862.067 379.614 871.395 379.941 882.85C380.269 894.305 379.778 907.887 378.469 923.597C377.16 939.307 379.041 951.662 384.114 960.662C389.187 969.662 397.451 975.308 408.906 977.599C420.361 979.89 429.689 981.608 436.889 982.754C444.089 983.899 449.162 984.472 452.108 984.472C455.053 984.472 460.454 982.017 468.308 977.108C476.163 972.199 486.473 964.835 499.237 955.016C512.001 945.198 522.474 936.034 530.656 927.524C538.838 919.015 544.729 911.16 548.33 903.96C551.93 896.76 555.203 890.623 558.148 885.55C561.094 880.477 563.712 876.468 566.003 873.522C568.294 870.577 573.121 865.831 580.485 859.285C587.849 852.74 597.75 844.394 610.186 834.248C622.623 824.102 633.096 815.266 641.606 807.738C650.115 800.211 656.661 793.992 661.243 789.083C665.825 784.174 669.752 779.428 673.025 774.846C676.298 770.264 678.916 765.846 680.88 761.591C682.844 757.336 684.316 753.409 685.298 749.809C686.28 746.209 686.771 742.936 686.771 739.99C686.771 737.045 686.035 734.099 684.562 731.153C683.089 728.208 680.88 725.262 677.934 722.317C674.989 719.371 670.898 716.098 665.661 712.498C660.425 708.898 654.043 704.971 646.515 700.716C638.988 696.461 632.033 692.861 625.651 689.916C619.269 686.97 613.459 684.679 608.223 683.043C602.986 681.406 597.504 680.015 591.777 678.87C586.049 677.724 580.076 676.824 573.858 676.17C567.639 675.515 562.076 674.615 557.166 673.469C552.257 672.324 548.002 670.933 544.402 669.297C540.802 667.66 534.584 663.242 525.747 656.042C516.91 648.841 505.455 638.859 491.382 626.095C477.309 613.331 464.79 602.53 453.826 593.694C442.862 584.857 433.453 577.984 425.598 573.075C417.743 568.166 410.952 564.238 405.224 561.293C399.497 558.347 394.833 556.383 391.233 555.401C387.633 554.42 383.787 553.683 379.696 553.192C375.605 552.701 371.268 552.456 366.686 552.456C362.104 552.456 357.277 553.029 352.204 554.174C347.131 555.32 341.813 557.038 336.249 559.329C330.685 561.62 324.958 563.338 319.066 564.484C313.175 565.629 307.121 566.202 300.902 566.202C294.684 566.202 288.547 565.793 282.492 564.975C276.438 564.156 270.465 562.929 264.574 561.293C258.682 559.656 252.055 557.365 244.691 554.42C237.327 551.474 229.227 547.874 220.39 543.619C211.553 539.364 203.617 535.192 196.58 531.101C189.543 527.009 183.407 523 178.17 519.073C172.934 515.145 168.597 511.627 165.161 508.518C161.724 505.409 159.188 502.709 157.551 500.418C155.915 498.127 154.606 494.363 153.624 489.126C152.642 483.89 151.988 477.18 151.66 468.998C151.333 460.816 149.86 452.552 147.242 444.206C144.624 435.861 140.86 427.433 135.951 418.924C131.041 410.414 127.278 403.05 124.659 396.832C122.041 390.613 120.568 385.541 120.241 381.613C119.914 377.686 119.995 373.84 120.486 370.076C120.977 366.313 121.877 362.631 123.186 359.03C124.496 355.43 126.459 351.421 129.078 347.003C131.696 342.584 134.969 337.757 138.896 332.52C142.824 327.284 147.078 323.029 151.66 319.756C156.242 316.483 161.151 314.192 166.388 312.883C171.625 311.574 176.288 310.838 180.379 310.674C184.471 310.51 187.989 310.92 190.934 311.901C193.88 312.883 196.826 314.274 199.771 316.074C202.717 317.874 205.662 320.084 208.608 322.702C211.553 325.32 214.417 329.084 217.199 333.993C219.981 338.902 222.681 344.957 225.299 352.157L229.227 362.958L233.154 373.758L235.609 368.849L238.063 363.94C239.7 360.667 241.254 356.494 242.727 351.421C244.2 346.348 245.591 340.375 246.9 333.502C248.209 326.629 249.518 320.738 250.828 315.829C252.137 310.92 253.446 306.992 254.755 304.047C256.064 301.101 257.537 298.401 259.173 295.946C260.81 293.492 262.61 291.282 264.574 289.319C266.537 287.355 269.646 285.31 273.901 283.182C278.156 281.055 283.556 278.846 290.102 276.555C296.647 274.264 302.539 270.827 307.775 266.245C313.012 261.663 317.594 255.936 321.521 249.063C325.449 242.19 329.376 236.053 333.303 230.653C337.231 225.253 341.158 220.589 345.086 216.662C349.013 212.734 353.35 208.888 358.095 205.125C362.841 201.361 367.996 197.679 373.559 194.079C379.123 190.479 383.214 186.715 385.833 182.788C388.451 178.86 389.596 174.769 389.269 170.514C388.942 166.26 388.942 162.578 389.269 159.468C389.596 156.359 390.251 153.823 391.233 151.859C392.215 149.895 393.769 148.013 395.897 146.213C398.024 144.413 400.724 142.695 403.997 141.059C407.27 139.422 411.524 138.031 416.761 136.886C421.998 135.74 428.216 134.84 435.416 134.186C442.617 133.531 448.671 132.713 453.581 131.731C458.49 130.749 462.254 129.604 464.872 128.295C467.49 126.985 470.272 124.04 473.218 119.458C476.163 114.876 479.272 108.657 482.545 100.803C485.818 92.9478 488.273 85.5839 489.909 78.7109C491.546 71.8379 492.364 65.4559 492.364 59.5647C492.364 53.6736 491.055 49.1734 488.436 46.0642C485.818 42.955 481.891 41.2368 476.654 40.9095Z" fill="#000000" fill-rule="nonzero" opacity="1" stroke="#000000" stroke-linecap="butt" stroke-linejoin="round" stroke-width="20.5"/>
<path d="M697.304 79.0411L706.632 93.278L715.96 107.515C722.178 117.006 727.169 125.025 730.933 131.57C734.697 138.116 737.233 143.189 738.542 146.789C739.852 150.389 740.752 154.071 741.242 157.835C741.733 161.599 741.815 165.444 741.488 169.372C741.161 173.299 741.079 176.817 741.242 179.927C741.406 183.036 741.815 185.736 742.47 188.027C743.124 190.318 744.188 193.018 745.661 196.127C747.134 199.236 749.015 202.755 751.306 206.682C753.597 210.61 755.234 214.046 756.216 216.992C757.198 219.937 757.525 222.392 757.198 224.356C756.87 226.319 755.643 229.429 753.516 233.683C751.388 237.938 748.361 243.338 744.433 249.884C740.506 256.43 737.151 262.484 734.369 268.048C731.588 273.612 729.378 278.685 727.742 283.267C726.106 287.849 724.633 293.331 723.324 299.713C722.014 306.095 720.869 313.377 719.887 321.559C718.905 329.741 718.66 337.76 719.151 345.615C719.642 353.47 720.869 361.161 722.833 368.688C724.796 376.216 727.087 383.58 729.706 390.78C732.324 397.98 735.27 405.017 738.542 411.89C741.815 418.763 745.906 426.127 750.816 433.982C755.725 441.836 761.452 450.182 767.998 459.019C774.544 467.856 780.108 474.565 784.69 479.147C789.272 483.729 792.872 486.184 795.49 486.511C798.108 486.838 802.608 485.693 808.99 483.074C815.373 480.456 823.636 476.365 833.782 470.801C843.928 465.237 852.847 460.983 860.538 458.037C868.229 455.091 874.693 453.455 879.929 453.128C885.166 452.801 889.748 452.964 893.675 453.619C897.603 454.273 900.876 455.419 903.494 457.055C906.112 458.692 908.731 460.983 911.349 463.928C913.967 466.874 916.585 470.474 919.204 474.729C921.822 478.983 924.195 483.893 926.322 489.456C928.449 495.02 930.331 501.239 931.968 508.112C933.604 514.985 934.832 523.167 935.65 532.658C936.468 542.149 936.877 552.95 936.877 565.059C936.877 577.169 936.468 589.36 935.65 601.633C934.832 613.907 933.604 626.262 931.968 638.698C930.331 651.135 928.286 664.308 925.831 678.218C923.377 692.128 920.513 706.774 917.24 722.156L912.331 745.23L907.421 768.303L915.276 755.048L923.131 741.793C928.368 732.956 933.441 723.22 938.35 712.583C943.259 701.946 948.005 690.409 952.587 677.973C957.169 665.536 961.26 652.526 964.86 638.944C968.46 625.361 971.569 611.206 974.188 596.479C976.806 581.751 978.77 567.35 980.079 553.277C981.388 539.204 982.042 525.458 982.042 512.039C982.042 498.62 981.633 485.938 980.815 473.992C979.997 462.046 978.77 450.837 977.133 440.364C975.497 429.891 973.369 419.09 970.751 407.962C968.133 396.835 965.024 385.38 961.423 373.598C957.823 361.815 953.569 349.869 948.659 337.76C943.75 325.65 938.186 313.377 931.968 300.94C925.749 288.503 918.795 276.23 911.103 264.121C903.412 252.011 895.315 239.801 885.821 228.283C854.065 189.758 820.007 156.6 808.622 146.912C802.692 142.298 795.857 136.451 788.617 131.079C778.471 123.552 768.325 116.679 758.179 110.46C748.034 104.242 737.888 98.6782 727.742 93.7689L712.523 86.405L697.304 79.0411Z" fill="#000000" fill-rule="nonzero" opacity="1" stroke="#000000" stroke-linecap="butt" stroke-linejoin="round" stroke-width="20.5"/>
</g>
<path d="M25 512C25 243.037 243.037 25 512 25C780.963 25 999 243.037 999 512C999 780.963 780.963 999 512 999C243.037 999 25 780.963 25 512Z" fill="none" opacity="1" stroke="#000000" stroke-linecap="butt" stroke-linejoin="round" stroke-width="50.5"/>
</g>
</g>
</svg>
