<svg id="icon" xmlns="http://www.w3.org/2000/svg" viewBox="0 0 48 48"><defs><style>.cls-1{fill-rule:evenodd;}</style></defs><path class="cls-1" d="M35,14.48A8.85,8.85,0,0,1,33.07,20a1,1,0,0,0,.07,1.49l1.72,1.72a.91.91,0,0,0,1.39-.15,13.23,13.23,0,0,0,0-17.2c-.23-.27-.84-.67-1.32-.19-.73.72-1.85,1.85-1.85,1.85a.89.89,0,0,0-.1,1.3A8.84,8.84,0,0,1,35,14.48Zm7.71,0a16.5,16.5,0,0,1-4.1,10.9,1.13,1.13,0,0,0,0,1.56l1.69,1.69s.66.8,1.56-.24a20.92,20.92,0,0,0-.17-28A.87.87,0,0,0,40.3.3L38.67,1.92a1.15,1.15,0,0,0-.12,1.58A16.27,16.27,0,0,1,42.72,14.48Zm-31,8.59a.91.91,0,0,0,1.39.15l1.72-1.72A1,1,0,0,0,14.93,20,8.85,8.85,0,0,1,15,8.83a.89.89,0,0,0-.1-1.3L13.08,5.68c-.48-.48-1.09-.08-1.32.19a13.23,13.23,0,0,0,0,17.2Zm-4,5.56,1.69-1.69a1.13,1.13,0,0,0,0-1.56,16.5,16.5,0,0,1-4.1-10.9,16.27,16.27,0,0,1,4.17-11,1.15,1.15,0,0,0-.12-1.58L7.7.3A.87.87,0,0,0,6.34.37a20.92,20.92,0,0,0-.17,28C7.07,29.43,7.73,28.63,7.73,28.63ZM46.32,40.29a7.6,7.6,0,0,0-1.4-2l-6.4-4.75a14.38,14.38,0,0,0-6.7-2.34H29.43c-.18-.57-.38-1.16-.63-1.82l-2.74-9.52a5.16,5.16,0,1,0-4,0l-2.74,9.52c-.25.66-.45,1.25-.62,1.82H16.65a13.86,13.86,0,0,0-6.55,2.34L3.55,38.29a4.9,4.9,0,0,0-1.69,2.83,3.83,3.83,0,0,0-.13,1v1.77A4.15,4.15,0,0,0,5.88,48H42.59a4.15,4.15,0,0,0,4.15-4.15V42.4a3.83,3.83,0,0,0-.29-1.83C46.41,40.47,46.36,40.38,46.32,40.29ZM32.06,44.64A1.68,1.68,0,1,1,33.75,43,1.68,1.68,0,0,1,32.06,44.64Zm4.8,0A1.68,1.68,0,1,1,38.55,43,1.68,1.68,0,0,1,36.86,44.64Zm4.79,0A1.68,1.68,0,1,1,43.33,43,1.68,1.68,0,0,1,41.65,44.64Z"/></svg>