<svg id="icon" xmlns="http://www.w3.org/2000/svg" viewBox="0 0 48 48"><path d="M40.53.51A1.74,1.74,0,1,0,38.07,3a21.06,21.06,0,0,1,0,29.77,1.75,1.75,0,0,0,1.23,3,1.73,1.73,0,0,0,1.23-.51,24.53,24.53,0,0,0,0-34.7Z"/><path d="M32.54,29.68a1.74,1.74,0,0,0,2.46,0A16.74,16.74,0,0,0,35,6,1.74,1.74,0,1,0,32.54,8.5a13.25,13.25,0,0,1,0,18.72A1.74,1.74,0,0,0,32.54,29.68Z"/><path d="M3.77,17.86A21,21,0,0,1,9.93,3,1.74,1.74,0,0,0,7.47.51a24.53,24.53,0,0,0,0,34.7,1.74,1.74,0,0,0,2.46,0,1.75,1.75,0,0,0,0-2.47A20.92,20.92,0,0,1,3.77,17.86Z"/><path d="M13,29.68a1.74,1.74,0,0,0,2.46-2.46,13.25,13.25,0,0,1,0-18.72A1.74,1.74,0,0,0,13,6,16.74,16.74,0,0,0,13,29.68Z"/><path d="M29.39,45.34,26,25.87a1.88,1.88,0,0,0-.23-.61,6.93,6.93,0,1,0-3.46,0,2.12,2.12,0,0,0-.22.61L18.62,45.34s0,0,0,0H10.94V48H37.06V45.39H29.38S29.39,45.36,29.39,45.34Z"/></svg>