<svg id="icon" xmlns="http://www.w3.org/2000/svg" viewBox="0 0 48 48"><path d="M13.59,0H1.92A1.92,1.92,0,0,0,0,1.92V13.59c0,2.13,1.22,2.63,2.72,1.13L6,11.43l7,7a1.91,1.91,0,0,0,2.71,0l2.72-2.72a1.93,1.93,0,0,0,0-2.72l-7-7,3.28-3.28C16.22,1.22,15.72,0,13.59,0Z"/><path d="M29.55,35l7,7-3.28,3.28c-1.5,1.5-1,2.72,1.12,2.72H46.08A1.92,1.92,0,0,0,48,46.08V34.41c0-2.13-1.22-2.63-2.72-1.13L42,36.56l-7-7a1.91,1.91,0,0,0-2.71,0l-2.72,2.72A1.91,1.91,0,0,0,29.55,35Z"/><path d="M29.55,15.73l2.72,2.72a1.91,1.91,0,0,0,2.71,0l7-7,3.28,3.28c1.5,1.5,2.72,1,2.72-1.13V1.92A1.92,1.92,0,0,0,46.08,0H34.4c-2.12,0-2.62,1.22-1.12,2.72L36.56,6l-7,7A1.93,1.93,0,0,0,29.55,15.73Z"/><path d="M0,34.41V46.08A1.92,1.92,0,0,0,1.92,48H13.59c2.13,0,2.63-1.22,1.13-2.72L11.44,42l7-7a1.91,1.91,0,0,0,0-2.71l-2.72-2.72a1.91,1.91,0,0,0-2.71,0l-7,7L2.72,33.28C1.22,31.78,0,32.28,0,34.41Z"/></svg>