<svg id="icon" xmlns="http://www.w3.org/2000/svg" viewBox="0 0 48 48"><path d="M48,13.11s-6.74-.72-13.2-8.88c-4.71,4.71-4.93,5.1-4.93,5.1s9.42,8.38,9,13.31C47.29,18.64,48,13.11,48,13.11Z"/><path d="M35.69,4.92l.66-.64,2.94,3-.66.65A30.39,30.39,0,0,1,35.69,4.92Z"/><path d="M33.58,13.54a34.16,34.16,0,0,0-3.08-3.17c-4.1,5.1-8,11.34-11.27,13.81-4.06,3.44-2.88,2.64-12.6,9.36-5,2.85-5.86,4.39-5.86,4.39A2.46,2.46,0,0,0,1,41.65c2.08,1.87,4.21,2.25,4.54,2.08s26.07-27.71,27-29C33.17,13.94,33.58,13.54,33.58,13.54Z"/><path d="M0,13.11s6.74-.72,13.2-8.88c4.71,4.71,4.93,5.1,4.93,5.1s-9.42,8.38-9,13.31C.71,18.64,0,13.11,0,13.11Z"/><path d="M12.31,4.92l-.66-.64-2.94,3,.66.65A30.39,30.39,0,0,0,12.31,4.92Z"/><path d="M14.42,13.54a34.16,34.16,0,0,1,3.08-3.17c4.1,5.1,8,11.34,11.27,13.81,4.06,3.44,2.88,2.64,12.6,9.36,5,2.85,5.86,4.39,5.86,4.39A2.46,2.46,0,0,1,47,41.65c-2.08,1.87-4.21,2.25-4.54,2.08s-26.07-27.71-27-29C14.83,13.94,14.42,13.54,14.42,13.54Z"/></svg>