<svg id="icon" xmlns="http://www.w3.org/2000/svg" viewBox="0 0 48 48"><defs><style>.cls-1{fill-rule:evenodd;}</style></defs><path class="cls-1" d="M22.62,29.78a1.24,1.24,0,0,0,1.36.95,1.22,1.22,0,0,0,1.35-.95l1.08-7.11a2.5,2.5,0,1,0-4.86,0Zm25,11.37C46.34,38.79,27.49,6.2,26.31,4.2a2.65,2.65,0,0,0-4.62,0L.41,41.07a2.65,2.65,0,0,0,2.3,4.08H45.36A2.64,2.64,0,0,0,47.64,41.15ZM38,39.79H10.07c-1.26,0-2-.83-1.3-2.11.59-1,13.07-22.49,14.08-24.24.67-1.15,1.63-1.13,2.29,0s13.44,22.8,14.27,24.29C40,38.82,39.35,39.79,38,39.79Zm-14-7.5a2.52,2.52,0,1,0,2.51,2.52A2.51,2.51,0,0,0,24,32.29Z"/></svg>