<svg id="icon" xmlns="http://www.w3.org/2000/svg" viewBox="0 0 48 48"><path d="M47.41,26.62a11.08,11.08,0,0,0-1.54-3l-.16-.22L34.77,8.74l-.06-.07a5.09,5.09,0,0,0-9.26,2.88v3.52H22.54V11.55a5.09,5.09,0,0,0-9.26-2.88l-.06.07L2.29,23.42l-.16.22.16-.22-.16.22a11.08,11.08,0,0,0-1.54,3,11.28,11.28,0,1,0,21.92,4.56c0-.31,0-.61,0-.93s0-.63,0-.94V26h3v3.36c0,.31,0,.63,0,.94s0,.62,0,.93a11.28,11.28,0,1,0,21.92-4.56ZM11.27,39.38a9.15,9.15,0,1,1,9.15-9.15A9.16,9.16,0,0,1,11.27,39.38Zm25.46,0a9.15,9.15,0,1,1,9.14-9.15A9.15,9.15,0,0,1,36.73,39.38Z"/><path d="M4.13,31.13h0a.78.78,0,0,1-.75-.82,8.37,8.37,0,0,1,8.38-8,.79.79,0,1,1,0,1.58,6.79,6.79,0,0,0-6.8,6.5A.8.8,0,0,1,4.13,31.13Z"/><path d="M29.58,31.13h0a.79.79,0,0,1-.75-.82,8.38,8.38,0,0,1,8.39-8,.79.79,0,1,1,0,1.58,6.8,6.8,0,0,0-6.81,6.5A.8.8,0,0,1,29.58,31.13Z"/></svg>