<svg id="icon" xmlns="http://www.w3.org/2000/svg" viewBox="0 0 48 48"><path d="M31.42,13.93l1.07-1.85a2,2,0,0,0-.73-2.73l-1.59-.92c1.51-1.94,2.52-2.19,3-2.16s1,.46,1.85,1.27a12.49,12.49,0,0,0,4,2.86,13.06,13.06,0,0,0,7.93.64,1.34,1.34,0,0,0-.53-2.62A10.53,10.53,0,0,1,40.06,8a10.35,10.35,0,0,1-3.2-2.33,5.58,5.58,0,0,0-3.54-2c-1.86-.12-3.65,1-5.48,3.49L26,6a2,2,0,0,0-2.74.73L22.18,8.59a18.14,18.14,0,1,0,9.24,5.34ZM12.07,37.85a1.34,1.34,0,1,1,1.34-2.31A10.67,10.67,0,0,0,28,31.89a1.34,1.34,0,1,1,2.32,1.34A13.36,13.36,0,0,1,12.07,37.85Z"/></svg>