<svg id="icon" xmlns="http://www.w3.org/2000/svg" viewBox="0 0 48 48"><path d="M6,44.19H0l5.22-2.94c2.43-1.34,4.43-5.34,5.34-9C6.7,29.2,4.43,24.92,4.43,20.64c0-9.34,9.73-16.83,21.79-16.83S48,11.3,48,20.64,38.26,37.52,26.22,37.52a24.88,24.88,0,0,1-6.41-.83C17,40.31,12.44,44.19,6,44.19ZM26.22,6.9C15.93,6.9,7.5,13,7.5,20.64c0,3.61,2,7.22,5.75,9.77l.79.67-.11.94a31.48,31.48,0,0,1-3.37,8.17A17.3,17.3,0,0,0,17.78,34l.66-1,1.1.28a22.25,22.25,0,0,0,6.68.94c10.28,0,18.56-6.16,18.56-13.66S36.5,6.9,26.22,6.9Z"/></svg>