<svg id="icon" xmlns="http://www.w3.org/2000/svg" viewBox="0 0 48 48"><path d="M47.59,32a8.64,8.64,0,0,1-8-6.22c-.12-.51-.72-2.72-2.1-3.47a17.69,17.69,0,0,0-4.91-.93l0-1.16a59.28,59.28,0,0,1,3.74-5c1.24-1.07,1.43-3.53,1.46-4.08.69-6.87,4.18-6.57,4.22-6.61a1.08,1.08,0,0,0-1.63-1.42c-.16.19-4,.24-4.74,7.84V11A5,5,0,0,1,35,13.56a14.59,14.59,0,0,1-2.16,1.24l0-1.39a1.51,1.51,0,0,0-1.52-1.56h-1l-.15-2.53a.3.3,0,0,0,0-.1c-.31-3.83-3.1-6.82-6.49-6.82s-6.2,3-6.49,6.85a.15.15,0,0,0,0,.07l-.15,2.53h-1a1.5,1.5,0,0,0-1.52,1.56l0,1.49a16.41,16.41,0,0,1-2.35-1.34A5,5,0,0,1,11.54,11a.11.11,0,0,0,0-.05C10.78,3.33,7,3.28,6.8,3.09A1.08,1.08,0,0,0,5.17,4.51s3.53-.26,4.21,6.61c0,.55.23,3,1.46,4.08a61.31,61.31,0,0,1,3.93,5.23l0,1a15.6,15.6,0,0,0-4.32.87c-1.38.75-2,3-2.1,3.47A8.64,8.64,0,0,1,.41,32a1,1,0,0,0-.18,1.41,1.14,1.14,0,0,0,1.51.2c.27-.2,6.74-.46,8.72-7.29a.06.06,0,0,0,0,0A4.63,4.63,0,0,1,11.57,24c.41-.13,1.74.39,3.46,1a35.46,35.46,0,0,0,.58,3.75c-2,1.87-4.26,4-4.77,4.4-1.23,1.06-1.43,3.52-1.46,4.08-.68,6.87-4.18,6.57-4.21,6.61A1.08,1.08,0,1,0,6.8,45.23c.16-.19,4-.23,4.73-7.83a.13.13,0,0,0,0-.06,5,5,0,0,1,.71-2.57c.49-.42,2.41-1.62,4.25-2.76,1.61,4.74,4.24,7.83,7.21,7.83s5.55-3,7.16-7.68c1.82,1.09,3.64,2.21,4.1,2.61a5,5,0,0,1,.72,2.57v.06c.75,7.6,4.58,7.64,4.74,7.83a1.08,1.08,0,0,0,1.63-1.41s-3.53.26-4.22-6.61c0-.56-.22-3-1.46-4.08-.49-.42-2.64-2.42-4.6-4.25a34.11,34.11,0,0,0,.58-3.7c2-.66,3.62-1.32,4.07-1.17a4.63,4.63,0,0,1,1.1,2.22v0c2,6.83,8.45,7.09,8.72,7.29a1.14,1.14,0,0,0,1.51-.2A1,1,0,0,0,47.59,32ZM21.34,9.12a1.4,1.4,0,1,1,1.4-1.4A1.39,1.39,0,0,1,21.34,9.12Zm3.33-1.4a1.4,1.4,0,1,1,1.4,1.4A1.4,1.4,0,0,1,24.67,7.72Z"/></svg>