<svg id="icon" xmlns="http://www.w3.org/2000/svg" viewBox="0 0 48 48"><path d="M10,16.11a21,21,0,0,0-1.21,2.58l-3.75-.8v-5a1.36,1.36,0,1,0-2.71,0V19a1.37,1.37,0,0,0,1.08,1.33l4.55,1a23.43,23.43,0,0,0-.65,4.42l-4.1.06a1.36,1.36,0,0,0-1.28,1L.06,32.91A1.35,1.35,0,0,0,1,34.6a1.34,1.34,0,0,0,.4.06,1.36,1.36,0,0,0,1.29-1l1.6-5.24,3.1-.05a22.49,22.49,0,0,0,.94,5.13L4.6,35.45A1.36,1.36,0,0,0,3.93,37l2.06,7a1.36,1.36,0,0,0,1.3,1A1.21,1.21,0,0,0,7.67,45a1.35,1.35,0,0,0,.92-1.68l-1.75-6,2.42-1.25c2.61,5.74,7.58,9.78,13.39,10.33V19.79a16.55,16.55,0,0,1-9.52-4.19A2,2,0,0,0,10,16.11Z"/><path d="M33.07,10.37a15.55,15.55,0,0,0-4.7-2.46l4.28-5.23a.67.67,0,0,0-.09-1,.68.68,0,0,0-1,.1L26.93,7.54a13.57,13.57,0,0,0-5.86,0L16.4,1.83a.69.69,0,0,0-1-.1.68.68,0,0,0-.09,1l4.28,5.22a15.55,15.55,0,0,0-4.7,2.46,2,2,0,0,0-.14,3.11A13.76,13.76,0,0,0,24,17.14a13.76,13.76,0,0,0,9.21-3.66A2,2,0,0,0,33.07,10.37Z"/><path d="M47.94,32.91l-1.89-6.19a1.36,1.36,0,0,0-1.28-1l-4.1-.06A23.43,23.43,0,0,0,40,21.28l4.55-1A1.37,1.37,0,0,0,45.65,19V12.9a1.36,1.36,0,1,0-2.71,0v5l-3.75.8A21,21,0,0,0,38,16.11a2,2,0,0,0-3.11-.51,16.52,16.52,0,0,1-9.52,4.19V46.42c5.81-.55,10.78-4.59,13.39-10.33l2.42,1.25-1.75,6A1.35,1.35,0,0,0,40.33,45a1.21,1.21,0,0,0,.38.06,1.36,1.36,0,0,0,1.3-1L44.07,37a1.36,1.36,0,0,0-.67-1.59l-3.69-1.91a22.49,22.49,0,0,0,.94-5.13l3.1.05,1.6,5.24a1.36,1.36,0,0,0,1.29,1,1.34,1.34,0,0,0,.4-.06A1.35,1.35,0,0,0,47.94,32.91Z"/></svg>