<svg id="icon" xmlns="http://www.w3.org/2000/svg" viewBox="0 0 48 48"><path d="M47.08,6.53A3.73,3.73,0,0,0,43.59,3h-4.9V0H35.43V8.16H32.16V3h-13V0H15.84V8.16H12.57V3H4.41A3.73,3.73,0,0,0,.92,6.53v38A3.73,3.73,0,0,0,4.41,48H37.06a1.68,1.68,0,0,0,1.43-.67l8.23-9.83.15-.21a2.2,2.2,0,0,0,.21-.94Zm-4.27,28H39.2a3.71,3.71,0,0,0-4,3.93v5.31h-30V15.24H42.81ZM23.32,39c3.86,0,7.09-2.49,7.09-7,0-3.49-2.49-6.32-5.75-6.32a4.32,4.32,0,0,0-4.14,2c.05-2.17,1-4.86,3.48-4.86a2,2,0,0,1,2.14,1.78h4A5.83,5.83,0,0,0,24,19.38c-5.37,0-7.75,4.59-7.75,9.94C16.25,34.21,18.08,39,23.32,39Zm0-9.94a3,3,0,0,1,3,3.22,2.91,2.91,0,0,1-3,2.93,2.79,2.79,0,0,1-2.8-3A2.94,2.94,0,0,1,23.34,29.07Z"/></svg>