<svg id="icon" xmlns="http://www.w3.org/2000/svg" viewBox="0 0 48 48"><path d="M35.14.19C30.2,0,20.31-.15,15.39.19,8.85.65,4.22,5.14,3.74,11.36a19.44,19.44,0,0,0-.14,2.85v.33a19.75,19.75,0,0,0-.18,3.18v4h0c.18,1.12.18,2.24.32,3a15.75,15.75,0,0,0,4,8.61C8.7,34-2.15,47.67,1.83,48c1.59,0,23.11-11.47,25-11.94s6.22,0,8.28,0A13,13,0,0,0,46.93,24.74c.17-3.18.17-9.87,0-13.38C46.3,5,41.83.51,35.14.19ZM33.08,24.56h-15a2,2,0,0,1-1.76-2.06,2,2,0,0,1,1.76-2.25h15c1.12,0,1.73,1,1.73,2.25S34.2,24.56,33.08,24.56Zm1.43-8.76H15.7a2.1,2.1,0,0,1-1.9-2.24,2.1,2.1,0,0,1,1.9-2.2H35.46a2,2,0,0,1,1.92,2.2A2.22,2.22,0,0,1,36.9,15l-.17.14a1.55,1.55,0,0,1-1.27.65Z"/></svg>