<svg id="icon" xmlns="http://www.w3.org/2000/svg" viewBox="0 0 48 48"><defs><style>.cls-1{fill-rule:evenodd;}</style></defs><path class="cls-1" d="M4.74,18.75a.47.47,0,0,0-.47.47v.59H.47a.47.47,0,0,0-.47.47v1.21A.47.47,0,0,0,.47,22h3.8v.58a.48.48,0,0,0,.47.48h4.1V18.75Zm0,6.22a.48.48,0,0,0-.47.48V26H.47a.47.47,0,0,0-.47.48v1.21a.47.47,0,0,0,.47.47h3.8v.59a.47.47,0,0,0,.47.47h4.1V25Zm0,6.23a.47.47,0,0,0-.47.47v.58H.47a.48.48,0,0,0-.47.48v1.21a.48.48,0,0,0,.47.48h3.8V35a.47.47,0,0,0,.47.47h4.1V31.2ZM47.53,13.58h-3.8V13a.47.47,0,0,0-.48-.47H39.16V16.8h4.09a.47.47,0,0,0,.48-.47v-.58h3.8a.48.48,0,0,0,.47-.48V14.06A.48.48,0,0,0,47.53,13.58Zm0,6.23h-3.8v-.59a.47.47,0,0,0-.48-.47H39.16V23h4.09a.48.48,0,0,0,.48-.48V22h3.8a.47.47,0,0,0,.47-.48V20.28A.47.47,0,0,0,47.53,19.81Zm0,6.22h-3.8v-.58a.48.48,0,0,0-.48-.48H39.16v4.28h4.09a.47.47,0,0,0,.48-.47v-.59h3.8a.47.47,0,0,0,.47-.47V26.51A.47.47,0,0,0,47.53,26Zm0,6.22h-3.8v-.58a.47.47,0,0,0-.48-.47H39.16v4.27h4.09a.47.47,0,0,0,.48-.47v-.58h3.8a.48.48,0,0,0,.47-.48V32.73A.48.48,0,0,0,47.53,32.25Zm-10.87-22H11.34a1.1,1.1,0,0,0-1.11,1.11V36.66a1.1,1.1,0,0,0,1.11,1.11H36.66a1.11,1.11,0,0,0,1.11-1.11V11.34A1.1,1.1,0,0,0,36.66,10.23ZM33.34,34.9a1.57,1.57,0,1,1,1.56-1.56A1.56,1.56,0,0,1,33.34,34.9ZM12.53,39.16v4.09a.47.47,0,0,0,.47.48h.58v3.8a.48.48,0,0,0,.48.47h1.21a.48.48,0,0,0,.48-.47v-3.8h.58a.47.47,0,0,0,.47-.48V39.16Zm6.22,0v4.09a.47.47,0,0,0,.47.48h.59v3.8a.47.47,0,0,0,.47.47h1.21a.47.47,0,0,0,.48-.47v-3.8h.58a.48.48,0,0,0,.48-.48V39.16Zm6.22,0v4.09a.48.48,0,0,0,.48.48H26v3.8a.47.47,0,0,0,.48.47h1.21a.47.47,0,0,0,.47-.47v-3.8h.59a.47.47,0,0,0,.47-.48V39.16Zm6.23,0v4.09a.47.47,0,0,0,.47.48h.58v3.8a.48.48,0,0,0,.48.47h1.21a.48.48,0,0,0,.48-.47v-3.8H35a.47.47,0,0,0,.47-.48V39.16ZM16.33,4.27h-.58V.47A.48.48,0,0,0,15.27,0H14.06a.48.48,0,0,0-.48.47v3.8H13a.47.47,0,0,0-.47.48V8.84H16.8V4.75A.47.47,0,0,0,16.33,4.27Zm6.22,0H22V.47A.47.47,0,0,0,21.49,0H20.28a.47.47,0,0,0-.47.47v3.8h-.59a.47.47,0,0,0-.47.48V8.84H23V4.75A.48.48,0,0,0,22.55,4.27Zm6.23,0h-.59V.47A.47.47,0,0,0,27.72,0H26.51A.47.47,0,0,0,26,.47v3.8h-.58a.48.48,0,0,0-.48.48V8.84h4.28V4.75A.47.47,0,0,0,28.78,4.27Zm6.22,0h-.58V.47A.48.48,0,0,0,33.94,0H32.73a.48.48,0,0,0-.48.47v3.8h-.58a.47.47,0,0,0-.47.48V8.84h4.27V4.75A.47.47,0,0,0,35,4.27ZM4.74,12.53a.47.47,0,0,0-.47.47v.58H.47a.48.48,0,0,0-.47.48v1.21a.48.48,0,0,0,.47.48h3.8v.58a.47.47,0,0,0,.47.47h4.1V12.53Z"/></svg>