<svg id="icon" xmlns="http://www.w3.org/2000/svg" viewBox="0 0 48 48"><defs><style>.cls-1{fill-rule:evenodd;}</style></defs><path class="cls-1" d="M44.88,14a10.77,10.77,0,0,0-7.81-3.12,15,15,0,0,0-28,2.54,9.39,9.39,0,0,0,.32,18.77H19V35.7H14.63L24,45.76,33.37,35.7H29V32.14h8.32A10.66,10.66,0,0,0,44.88,14Zm-2.67,12.4a6.86,6.86,0,0,1-4.86,2h-28a5.62,5.62,0,0,1-4-9.59c2.24-2.23,4.31-1.67,6.77-1.27A15.25,15.25,0,0,1,14,11.41a11.18,11.18,0,0,1,20.12,2.06L34.61,15c2.82-.5,5.13-.82,7.6,1.65A6.86,6.86,0,0,1,42.21,26.35Z"/></svg>