<svg id="icon" xmlns="http://www.w3.org/2000/svg" viewBox="0 0 48 48"><defs><style>.cls-1{fill-rule:evenodd;}</style></defs><path class="cls-1" d="M44.88,20.76a10.73,10.73,0,0,0-7.81-3.12,15,15,0,0,0-28,2.54A9.39,9.39,0,0,0,9.39,39h28a10.66,10.66,0,0,0,7.53-18.19Zm-2.67,12.4a6.86,6.86,0,0,1-4.86,2H29V31.25h4.34L24,21.2,14.63,31.25H19v3.93H9.39a5.62,5.62,0,0,1-4-9.59c2.24-2.23,4.31-1.67,6.77-1.27A15.25,15.25,0,0,1,14,18.22a11.18,11.18,0,0,1,20.12,2.06l.53,1.51c2.82-.5,5.13-.82,7.6,1.64A6.87,6.87,0,0,1,42.21,33.16Z"/></svg>