<svg id="icon" xmlns="http://www.w3.org/2000/svg" viewBox="0 0 48 48"><g id="_6" data-name="6"><path d="M30.34,28.79l-.1,0v-.88a2.46,2.46,0,0,1,2.67-2.15,2.46,2.46,0,0,1,2.66,2.15v.87h-.12a15.34,15.34,0,0,0-2.53-.22,14,14,0,0,0-2.51.22Z"/><path d="M39,32v2.7H34.91a2,2,0,0,0-4,0H26.77V32a.92.92,0,0,1,.77-.91l3.15-.65a13.24,13.24,0,0,1,4.47,0l3.11.65A.92.92,0,0,1,39,32Z"/><path d="M47.41,25.53a9.2,9.2,0,0,1-6.69,8.85V32a2.6,2.6,0,0,0-2.13-2.57l-1.34-.28V27.93a4.12,4.12,0,0,0-4.34-3.83,4.12,4.12,0,0,0-4.35,3.83v1.23l-1.34.27A2.6,2.6,0,0,0,25.09,32v2.73H8.29a7.7,7.7,0,1,1,2.55-15,13.39,13.39,0,0,1,25.75-3.3,9.45,9.45,0,0,1,1.61-.14A9.21,9.21,0,0,1,47.41,25.53Z"/><path d="M39,34.1v1.19a.6.6,0,0,1-.59-.54v0a.58.58,0,0,1,.53-.59Z"/><path d="M27.36,34.73h0a.58.58,0,0,1-.59.59V34.14A.59.59,0,0,1,27.36,34.73Z"/><path d="M48,25.53A9.79,9.79,0,0,1,40.72,35V33.77a8.62,8.62,0,0,0-4-16.73.59.59,0,0,1-.65-.37,12.79,12.79,0,0,0-24.61,3.16.59.59,0,0,1-.78.49,7.26,7.26,0,0,0-2.36-.4,7.11,7.11,0,0,0,0,14.22h16.8v1.18H8.29a8.29,8.29,0,0,1,0-16.58,8.51,8.51,0,0,1,2.07.26A14,14,0,0,1,37,15.81a8.61,8.61,0,0,1,1.24-.08A9.8,9.8,0,0,1,48,25.53Z"/><path d="M38.27,31.09l-3.11-.65a13.24,13.24,0,0,0-4.47,0l-3.15.65a.92.92,0,0,0-.77.91v7.7a.93.93,0,0,0,.93.92H38.11A.93.93,0,0,0,39,39.7V32A.92.92,0,0,0,38.27,31.09Zm-4.52,5.46V37.7a.85.85,0,0,1-1.69,0V36.55a2,2,0,0,1-1.16-1.82h0a2,2,0,0,1,4,0v0A2,2,0,0,1,33.75,36.55Z"/></g></svg>