<svg id="icon" xmlns="http://www.w3.org/2000/svg" viewBox="0 0 48 48"><defs><style>.cls-1{fill-rule:evenodd;}</style></defs><path class="cls-1" d="M24,0C13.7,0,5.34,3.58,5.34,8v7.15c0,4.41,8.36,8,18.66,8s18.66-3.58,18.66-8V8C42.66,3.58,34.3,0,24,0Zm0,12.65c-7.82,0-14.16-2.23-14.16-5s6.34-5,14.16-5,14.16,2.23,14.16,5S31.82,12.65,24,12.65Z"/><path class="cls-1" d="M24,25.65c-8.85,0-16.3-2.56-18.57-6a3.39,3.39,0,0,0-.09.78v7.15c0,4.41,8.36,8,18.66,8s18.66-3.58,18.66-8V20.39a3.39,3.39,0,0,0-.09-.78C40.3,23.09,32.85,25.65,24,25.65Z"/><path class="cls-1" d="M24,38.12c-8.85,0-16.3-2.56-18.57-6a3.31,3.31,0,0,0-.09.77V40c0,4.42,8.36,8,18.66,8s18.66-3.58,18.66-8V32.85a3.31,3.31,0,0,0-.09-.77C40.3,35.56,32.85,38.12,24,38.12Z"/></svg>