<svg id="icon" xmlns="http://www.w3.org/2000/svg" viewBox="0 0 48 48"><path d="M24,26.75c7.76,0,14-2.69,14-6V15.35a3,3,0,0,0-.07-.59c-1.7,2.63-7.32,4.55-14,4.55s-12.27-1.92-14-4.55a3,3,0,0,0-.07.59v5.38C10,24.06,16.24,26.75,24,26.75Z"/><path d="M24,17.42c7.76,0,14-2.69,14-6V6c0-3.32-6.29-6-14-6S10,2.7,10,6v5.39C10,14.73,16.24,17.42,24,17.42ZM24,2C29.89,2,34.66,3.7,34.66,5.77S29.89,9.52,24,9.52,13.34,7.84,13.34,5.77,18.11,2,24,2Z"/><path d="M45.52,34.73l-7.73-5.24v3.12h-4V26.44a20.77,20.77,0,0,1-4.23,1.22v9.18h8.21V40Z"/><path d="M26.12,28.09c-.69,0-1.4.07-2.12.07s-1.43,0-2.12-.07V40.27H18.76L24,48l5.24-7.73H26.12Z"/><path d="M14.19,32.61h-4V29.49L2.48,34.73,10.21,40V36.84h8.21V27.66a20.77,20.77,0,0,1-4.23-1.22Z"/></svg>