<svg id="icon" xmlns="http://www.w3.org/2000/svg" viewBox="0 0 48 48"><path d="M18.44,24.39V20.77a1.66,1.66,0,0,0-1.66-1.67H12.45A2.67,2.67,0,0,0,14,21.33h0a2.22,2.22,0,0,1,0,4.44,2.25,2.25,0,0,1-1.41-.51,6.79,6.79,0,0,1-2.29-1.52,6.39,6.39,0,0,1-.75-.9v1.55a12.23,12.23,0,1,0,8.89,0ZM14,43.55a7.78,7.78,0,1,1,7.78-7.78A7.79,7.79,0,0,1,14,43.55Z"/><path d="M34,0A12.23,12.23,0,0,0,22.62,7.78H19a1.68,1.68,0,0,0-1.55,1,6.8,6.8,0,0,1,.9-.06,6.88,6.88,0,0,1,4.1,1.35,2.22,2.22,0,1,1-2.56,3.26,2.78,2.78,0,0,0-1.54-.46,2.89,2.89,0,0,0-1,.19V15A1.67,1.67,0,0,0,19,16.67h3.62A12.22,12.22,0,1,0,34,0Zm0,20a7.78,7.78,0,1,1,7.78-7.78A7.79,7.79,0,0,1,34,20Z"/><path d="M15.6,13a3.89,3.89,0,0,1,5.5,0,2.52,2.52,0,0,1,.27.3,1.09,1.09,0,0,0,1.52-1,1.33,1.33,0,0,0,0-.21,4.08,4.08,0,0,0-.4-.44,5.83,5.83,0,0,0-8.23,0l-3.14,3.14a5.84,5.84,0,0,0,0,8.24,5.74,5.74,0,0,0,3.27,1.63,1.1,1.1,0,0,0,.75-1,1.11,1.11,0,0,0-.41-.86,3.79,3.79,0,0,1-2.25-1.1,3.91,3.91,0,0,1,0-5.5Z"/><path d="M21.88,17.78h-.25a4.22,4.22,0,0,1-.53.67l-1.64,1.64a2.54,2.54,0,0,1,.09.68v1.95l2.91-2.91a2.92,2.92,0,0,0,.34-.37A14.06,14.06,0,0,1,21.88,17.78Z"/></svg>