<svg id="icon" xmlns="http://www.w3.org/2000/svg" viewBox="0 0 48 48"><defs><style>.cls-1{fill-rule:evenodd;}</style></defs><path class="cls-1" d="M18.06,4.78H1.28A1.29,1.29,0,0,0,0,6.07V41.93a1.29,1.29,0,0,0,1.28,1.29H18.06a1.28,1.28,0,0,0,1.28-1.29V6.07A1.28,1.28,0,0,0,18.06,4.78Zm-1.66,34a.52.52,0,0,1-.51.52H3.45a.51.51,0,0,1-.51-.52v-.6a.51.51,0,0,1,.51-.52H15.89a.52.52,0,0,1,.51.52Zm0-3.43a.51.51,0,0,1-.51.51H3.45a.51.51,0,0,1-.51-.51v-.61a.51.51,0,0,1,.51-.51H15.89a.51.51,0,0,1,.51.51Zm0-3.43a.51.51,0,0,1-.51.51H3.45a.51.51,0,0,1-.51-.51v-.61a.51.51,0,0,1,.51-.51H15.89a.51.51,0,0,1,.51.51Zm0-3.43a.51.51,0,0,1-.51.51H3.45a.51.51,0,0,1-.51-.51V27.9a.51.51,0,0,1,.51-.51H15.89a.51.51,0,0,1,.51.51Zm-1.67-11a1.68,1.68,0,1,1,1.67-1.68A1.68,1.68,0,0,1,14.73,17.5Zm1.67-7.14a.51.51,0,0,1-.51.51H3.45a.51.51,0,0,1-.51-.51v-2a.51.51,0,0,1,.51-.51H15.89a.51.51,0,0,1,.51.51Z"/><path class="cls-1" d="M46.72,9.54H23.14a1.28,1.28,0,0,0-1.28,1.29v24.3a1.29,1.29,0,0,0,1.28,1.29H46.72A1.29,1.29,0,0,0,48,35.13V10.83A1.29,1.29,0,0,0,46.72,9.54ZM45.06,32.8a.52.52,0,0,1-.51.51H25.31a.51.51,0,0,1-.51-.51V13.15a.51.51,0,0,1,.51-.51H44.55a.51.51,0,0,1,.51.51Z"/><path class="cls-1" d="M43.53,40.23H38.07V37.49H31.79v2.74H26.33a.51.51,0,0,0-.51.51v2a.51.51,0,0,0,.51.51h17.2a.51.51,0,0,0,.51-.51v-2A.51.51,0,0,0,43.53,40.23Z"/></svg>