<svg id="icon" xmlns="http://www.w3.org/2000/svg" viewBox="0 0 48 48"><path d="M36.94,7.42H11.07a1.08,1.08,0,0,0-1.14,1,1.09,1.09,0,0,0,1.14,1H36.94a1.08,1.08,0,0,0,1.13-1A1.08,1.08,0,0,0,36.94,7.42Z"/><path d="M36.94,12.13H11.07a1.08,1.08,0,0,0-1.14,1,1.08,1.08,0,0,0,1.14,1H36.94a1,1,0,1,0,0-2Z"/><path d="M36.94,16.83H11.07a1,1,0,1,0,0,2H36.94a1,1,0,1,0,0-2Z"/><path d="M36.94,21.54H11.07a1,1,0,1,0,0,2H36.94a1,1,0,1,0,0-2Z"/><path d="M40.9,0H7.1A3.38,3.38,0,0,0,3.72,3.38V44.62A3.38,3.38,0,0,0,7.1,48H40.9a3.38,3.38,0,0,0,3.38-3.38V3.38A3.38,3.38,0,0,0,40.9,0ZM42,44.62a1.11,1.11,0,0,1-1.11,1.1H7.1A1.11,1.11,0,0,1,6,44.62V3.38A1.11,1.11,0,0,1,7.1,2.28H40.9A1.11,1.11,0,0,1,42,3.38Z"/><path d="M36.94,26.5H11.07a1,1,0,1,0,0,2H36.94a1,1,0,1,0,0-2Z"/><path d="M26.09,31.42h-15a1,1,0,1,0,0,2h15a1,1,0,1,0,0-2Z"/></svg>