<svg id="icon" xmlns="http://www.w3.org/2000/svg" viewBox="0 0 48 48"><defs><style>.cls-1{fill-rule:evenodd;}</style></defs><path class="cls-1" d="M16.34,22.16a7.88,7.88,0,1,0,13.37-3.58l-5.65,5.57-5.53-5.82a8.1,8.1,0,0,0-1.63,2.26A2.59,2.59,0,0,1,16.34,22.16Zm3.21,1.05a1.44,1.44,0,1,1-1.44,1.44A1.44,1.44,0,0,1,19.55,23.21Zm15.39-9.78-4.46,4.39A9,9,0,1,1,15,24c0-.33,0-.65.05-1a2.61,2.61,0,1,1,1.4-3.9,8.61,8.61,0,0,1,1.3-1.59L13.47,13a15.22,15.22,0,1,0,21.47.41ZM13.11,29.17a.89.89,0,0,1,0-1.77.89.89,0,1,1,0,1.77ZM24,0A24,24,0,1,0,48,24,24,24,0,0,0,24,0Zm0,41.77A17.77,17.77,0,1,1,41.77,24,17.78,17.78,0,0,1,24,41.77Z"/></svg>