<svg id="icon" xmlns="http://www.w3.org/2000/svg" viewBox="0 0 48 48"><path d="M38,47.4H10a10,10,0,0,1-10-10V10.56A10,10,0,0,1,10,.6H38a10,10,0,0,1,10,10V37.44A10,10,0,0,1,38,47.4ZM10,4a6.59,6.59,0,0,0-6.58,6.58V37.44A6.59,6.59,0,0,0,10,44H38a6.59,6.59,0,0,0,6.58-6.58V10.56A6.59,6.59,0,0,0,38,4Z"/><path d="M37.69,7.07H10.31a3.84,3.84,0,0,0-3.84,3.85v19h5.24V35h4.81v4.62H30.89V35h4.82V29.92h5.82v-19A3.84,3.84,0,0,0,37.69,7.07ZM12.2,15.93h-3V9.86h3Zm3.8,0H13V9.86h3Zm3.8,0h-3V9.86h3Zm3.8,0h-3V9.86h3Zm3.8,0h-3V9.86h3Zm3.8,0h-3V9.86h3Zm3.8,0H32V9.86h3Zm3.8,0h-3V9.86h3Z"/></svg>