<svg id="icon" xmlns="http://www.w3.org/2000/svg" viewBox="0 0 48 48"><path d="M40.9,0H13.57A3.8,3.8,0,0,0,11,1.22C9.78,2.43,6.05,6.35,4.88,7.6a4.14,4.14,0,0,0-1.16,2.64V44.62A3.38,3.38,0,0,0,7.1,48H40.9a3.38,3.38,0,0,0,3.38-3.38V3.38A3.38,3.38,0,0,0,40.9,0ZM12.15,2.61V7.72a1.1,1.1,0,0,1-1.1,1.1H6.18ZM42,44.62a1.1,1.1,0,0,1-1.1,1.1H7.1A1.1,1.1,0,0,1,6,44.62V11.1h5.05a3.38,3.38,0,0,0,3.38-3.38V2.28H40.9A1.1,1.1,0,0,1,42,3.38Z"/><path d="M24,12A12,12,0,1,0,36,24,12,12,0,0,0,24,12Zm-.21,20.43a2.27,2.27,0,1,1,2.27-2.26A2.27,2.27,0,0,1,23.79,32.43Zm2-6.69V27h-3.9V25.16c0-2.11,3.33-3.31,3.33-4.57a1.51,1.51,0,0,0-1.55-1.44c-.9,0-1.63.79-2.35,1.71l-2.44-2.27c1.47-1.86,3.16-3,5.26-3a4.82,4.82,0,0,1,5,5.06C29.12,23.62,25.79,24.36,25.79,25.74Z"/></svg>