<svg id="icon" xmlns="http://www.w3.org/2000/svg" viewBox="0 0 48 48"><path d="M40.9,0H13.57A3.8,3.8,0,0,0,11,1.22C9.78,2.43,6.05,6.35,4.88,7.6a4.14,4.14,0,0,0-1.16,2.64V44.62A3.38,3.38,0,0,0,7.1,48H40.9a3.38,3.38,0,0,0,3.38-3.38V3.38A3.38,3.38,0,0,0,40.9,0ZM12.15,2.61V7.72a1.1,1.1,0,0,1-1.1,1.1H6.18ZM42,44.62a1.1,1.1,0,0,1-1.1,1.1H7.1A1.1,1.1,0,0,1,6,44.62V11.1h5.05a3.38,3.38,0,0,0,3.38-3.38V2.28H40.9A1.1,1.1,0,0,1,42,3.38Z"/><path d="M24,12A12,12,0,1,0,36,24,12,12,0,0,0,24,12ZM22.72,31.49a3.83,3.83,0,0,1-1.81.77,2.14,2.14,0,0,1-1.31-.16A1.16,1.16,0,0,1,19,31a2.44,2.44,0,0,1,1-1.83,3.5,3.5,0,0,1,1.8-.8,2.23,2.23,0,0,1,1.34.23,1.13,1.13,0,0,1,.7,1.07A2.39,2.39,0,0,1,22.72,31.49ZM26,20.78a43,43,0,0,0-2,5.36L21,26l3.16-11,4.49.77C27.47,17.9,26.6,19.58,26,20.78Z"/></svg>