<svg id="icon" xmlns="http://www.w3.org/2000/svg" viewBox="0 0 48 48"><polygon points="5.91 10.09 19.58 26.36 19.58 38.65 28.42 35.03 28.42 26.36 42.09 10.09 5.91 10.09"/><path d="M24,40.39a3.81,3.81,0,1,0,3.8,3.81A3.81,3.81,0,0,0,24,40.39Zm0,5.25a1.45,1.45,0,1,1,1.44-1.44A1.45,1.45,0,0,1,24,45.64Z"/><path d="M24,7.61A3.81,3.81,0,1,0,20.2,3.8,3.81,3.81,0,0,0,24,7.61Zm0-5.25A1.45,1.45,0,1,1,22.56,3.8,1.45,1.45,0,0,1,24,2.36Z"/><path d="M12.46,7.61A3.81,3.81,0,1,0,8.66,3.8,3.81,3.81,0,0,0,12.46,7.61Zm0-5.25A1.45,1.45,0,1,1,11,3.8,1.45,1.45,0,0,1,12.46,2.36Z"/><path d="M35.54,7.61a3.81,3.81,0,1,0-3.8-3.81A3.82,3.82,0,0,0,35.54,7.61Zm0-5.25A1.45,1.45,0,1,1,34.1,3.8,1.44,1.44,0,0,1,35.54,2.36Z"/></svg>