<svg id="icon" xmlns="http://www.w3.org/2000/svg" viewBox="0 0 48 48"><path d="M36.84,34.36a42.76,42.76,0,0,0,1.09-6.27c.11-1.16.17-2.34.19-3.52C38.21,16.84,32,10.1,24.25,10A14,14,0,0,0,10.11,24c0,5.39-2.84,9.95-6.7,11.35A.82.82,0,0,0,3,36.59H3a.81.81,0,0,0,1,.33c4.5-1.64,7.8-6.8,7.8-12.9A12.37,12.37,0,0,1,25.19,11.72,12.59,12.59,0,0,1,36.47,24.54a39.92,39.92,0,0,1-6.21,21,.82.82,0,0,0,.93,1.23h0a.71.71,0,0,0,.39-.29l.52-.81a40.85,40.85,0,0,0,2.33-4.39c.52-1.17,1-2.36,1.41-3.58S36.56,35.5,36.84,34.36Z"/><path d="M30.57,32.32c.25-1.06.45-2.14.61-3.24a36.5,36.5,0,0,0,.35-5,7.29,7.29,0,0,0-.52-2.7,5.69,5.69,0,0,0-.38-.83,7.67,7.67,0,0,0-.58-.9l-.3-.38a9.28,9.28,0,0,0-.69-.71,7.81,7.81,0,0,0-1.41-1,7.43,7.43,0,0,0-1.86-.7,7.71,7.71,0,0,0-1.67-.2,7.15,7.15,0,0,0-1.74.22,7.89,7.89,0,0,0-1.19.39,7.43,7.43,0,0,0-2.26,1.52l-.05.05a7.34,7.34,0,0,0-1.2,1.57,1,1,0,0,0-.08.14v0a7.45,7.45,0,0,0-.49,1.12c-.07.21-.13.43-.18.65A7.15,7.15,0,0,0,16.7,24,21.62,21.62,0,0,1,16.5,27c-.07.5-.16,1-.26,1.48l-.09.39a19.76,19.76,0,0,1-1.74,4.73s-.05.09-.07.14a17.06,17.06,0,0,1-6.58,6.9.81.81,0,0,0-.12,1.32h0a.82.82,0,0,0,.93.09c5.78-3.27,9.77-10.1,9.77-18a5.77,5.77,0,0,1,6.44-5.73,5.91,5.91,0,0,1,5.09,6,32.92,32.92,0,0,1-8.6,22.16.82.82,0,0,0,.53,1.38l.39,0a33.35,33.35,0,0,0,6.31-9.44A35.58,35.58,0,0,0,30.57,32.32Z"/><path d="M24.48,19.92A4.13,4.13,0,0,0,20,24q0,.55,0,1.11a22.26,22.26,0,0,1-9.42,17.6.8.8,0,0,0,0,1.35h0a.8.8,0,0,0,.89,0A24,24,0,0,0,21.65,24a2.48,2.48,0,0,1,2.9-2.44,2.57,2.57,0,0,1,2,2.54,29.43,29.43,0,0,1-9.27,21.64.81.81,0,0,0,.34,1.38h0a.84.84,0,0,0,.77-.19,31.11,31.11,0,0,0,9.79-22.77A4.24,4.24,0,0,0,24.48,19.92Z"/><path d="M24.12,23.2a.83.83,0,0,0-.83.83,25.92,25.92,0,0,1-9.55,20.46.81.81,0,0,0,.18,1.38h0a.82.82,0,0,0,.84-.11A27.6,27.6,0,0,0,24.94,24,.83.83,0,0,0,24.12,23.2Z"/><path d="M24.78.15A23.91,23.91,0,0,0,.23,24,5,5,0,0,1,0,25.4a.8.8,0,0,0,.19.82l0,0A.79.79,0,0,0,1.59,26,6.3,6.3,0,0,0,1.87,24a22.26,22.26,0,0,1,22-22.24C36.47,1.64,46.57,12.3,46.35,24.9q0,2.1-.24,4.14a.83.83,0,0,0,1.62.29l0-.08c.13-1.33.21-2.67.24-4C48.3,12.06,37.93.5,24.78.15Z"/><path d="M23.92,3.43A20.63,20.63,0,0,0,3.52,24a6.53,6.53,0,0,1-1.8,4.83.74.74,0,0,0-.14,1l.07.11a.74.74,0,0,0,1.05.15A8,8,0,0,0,5.17,24a19,19,0,0,1,20-18.92c10.16.56,18.1,9.78,17.87,20A46.73,46.73,0,0,1,40.64,39a.85.85,0,0,0,1.44.85l0,0h0a48.17,48.17,0,0,0,2.58-14.4C45,13.51,35.79,3.32,23.92,3.43Z"/><path d="M41.42,24a16.63,16.63,0,0,0-.36-3.48A17.3,17.3,0,0,0,22.35,6.82a17.12,17.12,0,0,0-6.42,2l0,0a17.37,17.37,0,0,0-8.07,9.49,16.48,16.48,0,0,0-.64,2.24A17.33,17.33,0,0,0,6.82,24a11.27,11.27,0,0,1-.65,3.78l-.12.34a10.15,10.15,0,0,1-.49,1.05l-.33.56-.45.63a7.83,7.83,0,0,1-.59.67,6.32,6.32,0,0,1-.64.54A5,5,0,0,1,2.9,32a.82.82,0,0,0-.38,1h0a.83.83,0,0,0,1.15.44C6.47,32,8.46,28.32,8.46,24A15.74,15.74,0,0,1,30.39,9.61c5.18,2,9.33,8.44,9.38,14a43.53,43.53,0,0,1-4.49,19.74.83.83,0,0,0,1.15,1.09l0,0a.67.67,0,0,0,.29-.31,44.71,44.71,0,0,0,4.62-17.87C41.4,25.51,41.42,24.77,41.42,24Z"/><path d="M34.83,24a10.62,10.62,0,0,0-.68-3.71,10.87,10.87,0,0,0-.62-1.39,10.69,10.69,0,0,0-.94-1.43,11,11,0,0,0-3.37-2.89h0a10.05,10.05,0,0,0-1.57-.68,8.62,8.62,0,0,0-1.1-.32,11,11,0,0,0-1.3-.23c-.36,0-.72,0-1.09,0s-.74,0-1.1,0a11.41,11.41,0,0,0-1.3.23,8.62,8.62,0,0,0-1.1.32,10.94,10.94,0,0,0-1.57.68h0a10.76,10.76,0,0,0-2.4,1.78.46.46,0,0,0-.07.07,9,9,0,0,0-.9,1,10.75,10.75,0,0,0-1,1.43,10.87,10.87,0,0,0-.62,1.39A10.61,10.61,0,0,0,13.41,24c0,.58,0,1.16-.09,1.73a17.61,17.61,0,0,1-1,4.41A15.81,15.81,0,0,1,10,34.35a14.39,14.39,0,0,1-2,2.11c-.3.24-.6.45-.91.66l-2,1.27a.82.82,0,0,0-.26,1.13.81.81,0,0,0,.72.39.74.74,0,0,0,.42-.13l1.69-1.06.31-.19.47-.33A17.6,17.6,0,0,0,15.05,24a9.08,9.08,0,0,1,9.75-9,9.28,9.28,0,0,1,8.38,9.48,36.36,36.36,0,0,1-7.59,22,.83.83,0,0,0,.73,1.33h0a.84.84,0,0,0,.56-.31,37.63,37.63,0,0,0,7.53-17.89A39,39,0,0,0,34.83,24Z"/></svg>