<svg id="icon" xmlns="http://www.w3.org/2000/svg" viewBox="0 0 48 48"><g id="_4" data-name="4"><rect x="24.96" y="35.27" width="13.87" height="5.32" rx="0.61"/><rect x="9.01" y="35.27" width="13.87" height="5.32" rx="0.61"/><rect x="17.02" y="42.68" width="13.87" height="5.32" rx="0.61"/><rect x="1.16" y="42.68" width="13.79" height="5.32" rx="0.61"/><rect x="32.97" y="42.68" width="13.87" height="5.32" rx="0.61"/><path d="M36.15,20.7c.14-6.62-4.6-8.86-4.6-8.86S33,18,31,18.05c0,0-6-.48-4.19-17.32,0,0-11,7.61-7.2,16.81a7,7,0,0,1-4.68-6.13S8.53,18,12.63,24.58c0,0,1.83,3.26,7,4.86a3.21,3.21,0,0,0,1,.12c-4.42-4.1-3.45-8.15-3.45-8.15,1.78,2.88,3.64,2.38,4.24,2.2,2.05-.62,2-5.55,2-5.55,4.45,3.67,7,7.44,5,11.45.42-.08.65-.14.65-.14C35.32,28.13,36.13,21.52,36.15,20.7Z"/><path d="M34.46,13.32a8.83,8.83,0,0,0-2.6-2.14.73.73,0,0,0-1,.83c.48,2,.69,4.62.2,5.26l-.06.05a3,3,0,0,1-1.57-1.11C28,14.47,26.47,10.39,27.49.8a.72.72,0,0,0-.35-.7.73.73,0,0,0-.78,0,24.84,24.84,0,0,0-5.2,5.12c-2.7,3.62-3.66,7.35-2.81,10.87a6,6,0,0,1-2.73-4.75.73.73,0,0,0-1.25-.46,15.88,15.88,0,0,0-2.81,4.32A10.09,10.09,0,0,0,12,25c.17.3,2.16,3.56,7.43,5.19a4.17,4.17,0,0,0,1.22.15h0A.73.73,0,0,0,21.13,29a9.63,9.63,0,0,1-3.22-5.59,3.86,3.86,0,0,0,2.61,1.08,4,4,0,0,0,1.14-.18c1.13-.34,1.9-1.54,2.29-3.57.08-.41.14-.81.18-1.18,4,3.59,5.15,6.67,3.74,9.64A.75.75,0,0,0,28,30a.71.71,0,0,0,.71.27l.67-.15a8.86,8.86,0,0,0,6.27-4.87,11.84,11.84,0,0,0,1.26-4.49A10.85,10.85,0,0,0,34.46,13.32Zm1,7.37c0,.06-.38,6.28-5.75,7.82a7.22,7.22,0,0,0-.62-5.17A18.77,18.77,0,0,0,24,17.5a.66.66,0,0,0-.46-.17.67.67,0,0,0-.31.07.74.74,0,0,0-.42.66c0,1.77-.47,4.54-1.52,4.85a2.31,2.31,0,0,1-.72.13c-1,0-1.87-.68-2.69-2a.76.76,0,0,0-.74-.34.74.74,0,0,0-.59.55c0,.16-.76,3.37,2,7a11.11,11.11,0,0,1-5.24-4l0,0a8.57,8.57,0,0,1-.37-8.34,14.62,14.62,0,0,1,1.58-2.74,7.38,7.38,0,0,0,2.44,3.73,8.15,8.15,0,0,0,2.47,1.4.73.73,0,0,0,.88-1C18.77,13.71,19.46,10,22.3,6.15a23.65,23.65,0,0,1,3.59-3.8c-.72,8.9.88,13,2.41,14.79a4.07,4.07,0,0,0,2.61,1.64H31a1.55,1.55,0,0,0,1.2-.63c.76-1,.63-3.11.4-4.69A9.08,9.08,0,0,1,35.42,20.69Z"/></g></svg>