<svg id="icon" xmlns="http://www.w3.org/2000/svg" viewBox="0 0 48 48"><rect y="29.1" width="20.39" height="9.85" rx="0.69"/><path d="M24.74,37.65c.2-1.31.45-2.4.65-3.28a10.22,10.22,0,0,0,.36-2.12,2.61,2.61,0,0,0-.65-.4l-2.7-1.27v7.68a.69.69,0,0,0,.68.69h1.59A5.89,5.89,0,0,1,24.74,37.65Z"/><rect y="5.54" width="20.39" height="9.85" rx="0.69"/><path d="M23.08,15.39H32.7l-2.22-2.64,3.62.52a9.17,9.17,0,0,1,4.72,2.12H42.1a.69.69,0,0,0,.69-.69V6.23a.69.69,0,0,0-.69-.69h-19a.69.69,0,0,0-.68.69V14.7A.69.69,0,0,0,23.08,15.39Z"/><path d="M27.72,26.65A16.51,16.51,0,0,1,30.54,19l1-1.56H13.74a.68.68,0,0,0-.69.68V26.6a.68.68,0,0,0,.69.68h14C27.71,27.07,27.71,26.86,27.72,26.65Z"/><path d="M42.1,17.44H40.71a11.4,11.4,0,0,1,2,5.42l.09-.06V18.12A.68.68,0,0,0,42.1,17.44Z"/><rect y="17.44" width="10.97" height="9.85" rx="0.69"/><path d="M47,33a9.41,9.41,0,0,1,.51-3.86A5.38,5.38,0,0,0,45.61,31a4.38,4.38,0,0,0-.51-.54c-2.84-2.66.52-6.72.52-6.72-2.95.86-4.24,4.11-4.71,4.11-.23,0-.27-.78-.21-3C40.87,18,35.89,16,35.89,16c3,3.6-.63,9.19-2.57,9.19a.83.83,0,0,1-.56-.21c-1.62-1.45-.46-4.81-.46-4.81-3.46,5.45-2.65,8.8-1.65,10.48a4.36,4.36,0,0,0-2.8-1A5.3,5.3,0,0,0,26,30c3.07,1.45,1.56,3.07.81,8-.5,3.25,2.53,3.8,4.65,3.8a11.7,11.7,0,0,0,1.95-.15,14.31,14.31,0,0,0,5.23.85,20.65,20.65,0,0,0,5.25-.7C48.79,40.47,48.59,36.17,47,33ZM36.3,40.68A4.62,4.62,0,0,1,33,39.34c-1.05-1.05-1.84-2.49.31-3.38,4.07-1.68,4.42-4.5,3.24-5.41a8.18,8.18,0,0,1,3.51,2.71A4.67,4.67,0,0,1,36.3,40.68Z"/></svg>