<svg id="icon" xmlns="http://www.w3.org/2000/svg" viewBox="0 0 48 48"><path id="_0" data-name="0" d="M24,26.16l-2.57-1.74a2.13,2.13,0,0,1-.71-1.72c1.5-5.9,9-17.56,12.62-13.73,2,2.09,1.22,6.14-1.22,9.38s-6.68,7.86-6.68,7.86A1,1,0,0,1,24,26.16Zm-9.85-3.58,3.2.83a1.29,1.29,0,0,0,1.49-.77l.34-.84A1.79,1.79,0,0,0,18.83,20c-2.72-2.63-3.71-4-4.16-2.61C13.58,20.79,12.79,22.22,14.17,22.58Zm6-5.92A1.83,1.83,0,0,0,22,16.1c.89-1.1-.11-1.9-3-5.68-.87-1.14-1.37.56-3,4C15.31,15.72,16.9,15.8,20.2,16.66Zm2.24-5.49c1.13.92,2.27-.57,1.55-1.8l-1.78-3c-.68-1.16-1.53.26-2.34,1.26S20.31,9.45,22.44,11.17Zm4.83-3.9L27.47,2c.06-1.43-1.38-.08-2.54.76s-.45,2.06.6,5.21C26,9.31,27.21,8.74,27.27,7.27Zm3.28-.65A1.49,1.49,0,0,0,31.8,5.51c1.14-4.25,1.85-5.78.44-5.47-1.79.39-3.31.44-3.16,1.82C29.43,5.1,29.31,6.64,30.55,6.62ZM27,27.84c-1.35-.57-3.58,1.41-2.61,2.67l2,2.61c.87,1.12,1.82-.1,4.64-2.48C32.11,29.69,30.46,29.32,27,27.84Zm8.88-3.62c-4.37-.94-5.52-1.49-6.19-.26a1.81,1.81,0,0,0,.15,1.82c1.85,2.37,2.56,3.82,3.53,2.72C35.92,25.58,37.23,24.52,35.83,24.22ZM8.6,36.86c1.54.37,2.23.7,2.54,0,.11-.27.51-1,0-1.45C9.7,33.94,9.21,33.23,9,34,8.31,35.88,7.85,36.69,8.6,36.86Zm3.48-3.2c.79.18,1.54-.7,1.05-1.36l-1.65-2.25c-.49-.66-.83.43-1.8,2.36C9.29,33.18,10.2,33.2,12.08,33.66Zm7.84,8.53L18,41.42a.92.92,0,0,0-.91.21l-.33.32c-.52.52,0,1,.87,2.13a.53.53,0,0,0,.77,0L20,42.77C20.21,42.56,20.19,42.3,19.92,42.19Zm3.13-3.78L20.4,37.9a1,1,0,0,0-.94.45,1.05,1.05,0,0,0,.06,1.07L20.7,41a.51.51,0,0,0,.82,0L23.22,39C23.47,38.76,23.39,38.47,23.05,38.41ZM38.76,19.32l-4.18-.45c-1.44-.16-2.38,1.47-1,2.07,3.25,1.46,4.28,2.24,5,1S40.1,19.47,38.76,19.32Zm2.59-6.1C37.4,14.45,36,14.67,36,15.6c0,.4.48.79,1.08.87,2.92.4,4.23.87,4.57-.52S42.71,12.79,41.35,13.22ZM36,11c.6,1.06,1.93.35,5.08-.66,1.35-.43.6-1.83.07-3.47-.44-1.36-1.47-.12-4.74,2.58A1.32,1.32,0,0,0,36,11ZM33.91,6.83A2,2,0,0,0,35.79,7l1.55-.8c1.29-.65,2.78-3.3,1.49-4.28l-1.28-1C35.57-.59,32,5.34,33.91,6.83ZM17,44.48c-.71-.58-2-.32-3-.11a3.65,3.65,0,0,1-4.64-3.75c.08-5.41-3.3-2.49-3.46,0a6.9,6.9,0,0,0,8.76,7.07C16.67,47.15,17.67,45,17,44.48Zm1-9.73-1.47-.92a2.14,2.14,0,0,0-2.9.65L11.5,38.27c-1.32,2,.49,2.73,1.81,3.56A1.91,1.91,0,0,0,15.94,41l2.61-3.36A2,2,0,0,0,18,34.75Z"/></svg>