<svg id="icon" xmlns="http://www.w3.org/2000/svg" viewBox="0 0 48 48"><path d="M41.25,24a7.28,7.28,0,0,0,.77-.31l1.46,1.29a8.65,8.65,0,0,0,1.72-1.26l-.77-1.78a7.44,7.44,0,0,0,1-1.34l1.94.19a9,9,0,0,0,.67-2l-1.68-1a6.5,6.5,0,0,0,0-1.65l1.67-1a9.34,9.34,0,0,0-.27-1,8,8,0,0,0-.39-1l-1.93.18a7.25,7.25,0,0,0-1-1.33l.78-1.78a9.63,9.63,0,0,0-1.74-1.26L42,10.15a7.61,7.61,0,0,0-1.57-.52L40,7.74a9,9,0,0,0-2.14,0l-.42,1.9c-.26.06-.53.12-.8.21s-.52.19-.77.3L34.43,8.86a9,9,0,0,0-1.73,1.25l.78,1.79a8,8,0,0,0-1,1.33l-1.93-.18a9,9,0,0,0-.67,2l1.68,1a7.67,7.67,0,0,0,0,1.66l-1.67,1a10,10,0,0,0,.27,1,8,8,0,0,0,.39,1l1.93-.19a7.33,7.33,0,0,0,1,1.34l-.78,1.78a9.63,9.63,0,0,0,1.74,1.26l1.46-1.29a7,7,0,0,0,1.57.51l.42,1.9a9.57,9.57,0,0,0,2.14,0l.41-1.9Zm-4.79-6.25a2.62,2.62,0,1,1,3.31,1.68A2.63,2.63,0,0,1,36.46,17.71Z"/><path d="M19.48,40c.48-.11,1-.24,1.43-.39s.94-.33,1.39-.53l-.41-2.65a14,14,0,0,0,1.87-1.12l2.14,1.62a15.17,15.17,0,0,0,2.13-2l-1.52-2.22a13.89,13.89,0,0,0,1.19-1.82l2.64.53a15.92,15.92,0,0,0,1-2.77l-2.33-1.34a14,14,0,0,0,.29-2.16L32,24.41a16.24,16.24,0,0,0-.27-2.94L29,21.28c-.08-.35-.18-.7-.29-1.05s-.24-.69-.38-1l2.06-1.73a17.36,17.36,0,0,0-1.51-2.54l-2.51,1a13.92,13.92,0,0,0-1.5-1.57L26,11.9a16.17,16.17,0,0,0-2.47-1.62l-1.83,2a13.05,13.05,0,0,0-2-.77L19.57,8.8a15.79,15.79,0,0,0-2.92-.4L15.87,11a13.25,13.25,0,0,0-2.17.19L12.47,8.78c-.48.11-1,.24-1.43.39s-.94.34-1.39.53l.41,2.66a12.45,12.45,0,0,0-1.87,1.11L6,11.85a16.37,16.37,0,0,0-2.12,2l1.52,2.22a14.48,14.48,0,0,0-1.19,1.81l-2.64-.53a16.8,16.8,0,0,0-1,2.77L2.9,21.5a14.2,14.2,0,0,0-.29,2.16L0,24.33a16.22,16.22,0,0,0,.27,2.93L3,27.45c.08.35.18.7.29,1.05s.24.69.38,1L1.56,31.25a16.52,16.52,0,0,0,1.51,2.54l2.51-1a13.92,13.92,0,0,0,1.5,1.57L6,36.82a15.51,15.51,0,0,0,2.47,1.63l1.83-2a13.05,13.05,0,0,0,2,.77l.07,2.69a15.79,15.79,0,0,0,2.92.4l.78-2.57a14.47,14.47,0,0,0,2.17-.2ZM15.16,21.87a2.62,2.62,0,1,1-1.68,3.31A2.63,2.63,0,0,1,15.16,21.87Z"/></svg>