<svg id="icon" xmlns="http://www.w3.org/2000/svg" viewBox="0 0 48 48"><path d="M40.62,12.58l-15.78-.39-3.31-3L37.3,0ZM26.76,9.4l10.16.26L35.51,4.31Z"/><path d="M8.16,12.58,11.49,0,27.25,9.17l-3.3,3Zm5.11-8.27L11.86,9.66,22,9.4Z"/><path d="M39.48,48h-31L3.66,23.56H44.34ZM10.84,45.17H37.16L40.9,26.39H7.1Z"/><path d="M46.5,27.21H1.5L3.57,11.06H44.43ZM4.71,24.38H43.29L41.94,13.89H6.06Z"/><path d="M26.34,47.15H18.79l.37-1.71c.05-.23.1-.45.14-.68.35-1.73.62-3.57.83-5.63a102.07,102.07,0,0,0,.44-11.69c-.06-3.77-.29-7.75-.68-11.83-.07-.67-.14-1.39-.24-2.23l-.17-1.57h10.2l0,1.38c0,.74,0,1.38,0,2,.06,4.38-.05,8.64-.32,12.66a108.17,108.17,0,0,1-1.53,12.66c-.38,2-.8,3.88-1.28,5.63Zm-4.07-2.83h1.9c.35-1.36.67-2.8,1-4.36a104.75,104.75,0,0,0,1.49-12.32c.26-3.95.37-8.14.31-12.44,0-.18,0-.37,0-.56H22.63c0,.24.05.47.07.7.4,4.16.64,8.21.7,12.05a103.12,103.12,0,0,1-.46,12C22.76,41.18,22.54,42.8,22.27,44.32Z"/><path d="M29.55,13.89H19.23V4.37L29.55,3.06Zm-7.49-2.83h4.66V6.27l-4.66.59Z"/></svg>