<svg id="icon" xmlns="http://www.w3.org/2000/svg" viewBox="0 0 48 48"><path d="M24,0A24,24,0,1,0,48,23.94,24,24,0,0,0,24,0Zm9.74,22.57H25.42V14.06a43.27,43.27,0,0,1,6.78.62A47.5,47.5,0,0,1,33.69,22.57Zm1.72-7a28.44,28.44,0,0,1,9.37,5c.14.61.14,1.34.25,2.06H36.52A55.66,55.66,0,0,0,35.41,15.55Zm-10-4.32V3a9.58,9.58,0,0,1,2,.25,47.3,47.3,0,0,1,3.82,8.38A46.55,46.55,0,0,0,25.42,11.23Zm-3,.12a39.85,39.85,0,0,0-6.79,1.25,35,35,0,0,1,4.07-9.27A10.17,10.17,0,0,1,22.46,3Zm0,3v8.26h-8.4a28.86,28.86,0,0,1,.74-6.78A38.81,38.81,0,0,1,22.46,14.31ZM11.23,22.57H3a11.15,11.15,0,0,1,.25-2.06,54,54,0,0,1,8.64-3.85A29.58,29.58,0,0,0,11.23,22.57ZM3,25.43h8.27A31,31,0,0,0,12,32.09a34.79,34.79,0,0,1-8.75-3.94A17.84,17.84,0,0,1,3,25.43Zm11.1,0h8.4V34a37,37,0,0,1-7.41-1A33,33,0,0,1,14.06,25.43Zm8.4,11.34V45a17.69,17.69,0,0,1-2.6-.37A48.91,48.91,0,0,1,15.91,36,50.63,50.63,0,0,0,22.46,36.77Zm3,0a68.77,68.77,0,0,0,6.9-.73,29.56,29.56,0,0,1-4.81,8.77c-.74.11-1.35.11-2.09.23Zm0-2.82V25.43H33.8a36.87,36.87,0,0,1-.61,7.39A47.92,47.92,0,0,1,25.42,34Zm11.35-8.52H45c-.11,1-.25,1.85-.36,2.72a45.11,45.11,0,0,1-8.41,3.69A35.64,35.64,0,0,0,36.77,25.43Zm6.66-9.38a30.53,30.53,0,0,0-9-3.84,47.35,47.35,0,0,0-3.21-8A21.37,21.37,0,0,1,43.43,16.05ZM15.8,4.57a41.05,41.05,0,0,0-3.34,8.76A57.55,57.55,0,0,0,4.2,16.78,20.51,20.51,0,0,1,15.8,4.57ZM4.44,32.21a44.14,44.14,0,0,0,8.28,3.08,36.86,36.86,0,0,0,3.19,8.15A21.34,21.34,0,0,1,4.44,32.21ZM32,43.58a31.18,31.18,0,0,0,3.58-8.4,47.39,47.39,0,0,0,7.89-3.09A21,21,0,0,1,32,43.58Z"/></svg>