<svg id="icon" xmlns="http://www.w3.org/2000/svg" viewBox="0 0 48 48"><path d="M22.85,2.91a1.45,1.45,0,0,1,1.74-.32L47.7,19.37c.44.33.39,1-.12,1.5l0,0a1.44,1.44,0,0,1-1.73.32L22.72,4.43c-.45-.33-.39-1,.12-1.5Z"/><path d="M.43,20.93c-.52-.5-.57-1.17-.13-1.5l23-16.86A1.44,1.44,0,0,1,25,2.88v0c.52.5.57,1.17.13,1.49L2.18,21.26A1.46,1.46,0,0,1,.44,21Z"/><path d="M11.19,10.43V4.66A1.21,1.21,0,0,1,12.4,3.45h4a1.22,1.22,0,0,1,1.22,1.21v1Z"/><path d="M3.83,20.9V45.61H27.31V30.13a1.22,1.22,0,0,1,1.21-1.22h6.92a1.22,1.22,0,0,1,1.21,1.22V45.61h7.4V20.9L23.94,6.27Zm6.11,9.23a1.22,1.22,0,0,1,1.22-1.22h9.56a1.22,1.22,0,0,1,1.21,1.22v7.41a1.21,1.21,0,0,1-1.21,1.21H11.16a1.22,1.22,0,0,1-1.22-1.21Z"/></svg>