<svg id="icon" xmlns="http://www.w3.org/2000/svg" viewBox="0 0 48 48"><path d="M44.57,7.71H3.43A3.44,3.44,0,0,0,0,11.14V36.86a3.44,3.44,0,0,0,3.43,3.43H44.57A3.44,3.44,0,0,0,48,36.86V11.14A3.44,3.44,0,0,0,44.57,7.71ZM30.86,22.29v3.43a.86.86,0,0,1-.86.85H26.57a.85.85,0,0,1-.85-.85V22.29a.85.85,0,0,1,.85-.86H30A.86.86,0,0,1,30.86,22.29Zm-8.57-8.58a.85.85,0,0,1,.85-.85h3.43a.86.86,0,0,1,.86.85v3.43a.86.86,0,0,1-.86.86H23.14a.85.85,0,0,1-.85-.86Zm0,8.58v3.43a.86.86,0,0,1-.86.85H18a.86.86,0,0,1-.86-.85V22.29a.86.86,0,0,1,.86-.86h3.43A.86.86,0,0,1,22.29,22.29Zm-8.57-8.58a.85.85,0,0,1,.85-.85H18a.86.86,0,0,1,.86.85v3.43A.86.86,0,0,1,18,18H14.57a.85.85,0,0,1-.85-.86Zm-8.58,0A.86.86,0,0,1,6,12.86H9.43a.86.86,0,0,1,.86.85v3.43a.86.86,0,0,1-.86.86H6a.86.86,0,0,1-.86-.86Zm5.15,20.58a.86.86,0,0,1-.86.85H6a.86.86,0,0,1-.86-.85V30.86A.87.87,0,0,1,6,30H9.43a.87.87,0,0,1,.86.86Zm2.57-7.72H6a.86.86,0,0,1-.86-.85V22.29A.86.86,0,0,1,6,21.43h6.86a.86.86,0,0,1,.86.86v3.43A.86.86,0,0,1,12.86,26.57Zm21.42,7.72a.85.85,0,0,1-.85.85H14.57a.85.85,0,0,1-.85-.85V30.86a.86.86,0,0,1,.85-.86H33.43a.86.86,0,0,1,.85.86Zm8.58,0a.86.86,0,0,1-.86.85H38.57a.86.86,0,0,1-.86-.85V26.57H35.14a.86.86,0,0,1-.86-.85V22.29a.86.86,0,0,1,.86-.86H42a.86.86,0,0,1,.86.86Zm0-17.15A.86.86,0,0,1,42,18H31.72a.85.85,0,0,1-.86-.86V13.71a.85.85,0,0,1,.86-.85H42a.86.86,0,0,1,.86.85Z"/></svg>