<svg id="icon" xmlns="http://www.w3.org/2000/svg" viewBox="0 0 48 48"><g id="_13" data-name="13"><path d="M24,10.84a1.46,1.46,0,0,1-1.46-1.46V6.17a1.46,1.46,0,0,1,2.92,0V9.38A1.46,1.46,0,0,1,24,10.84Z"/><path d="M4.67,27.08H1.46a1.46,1.46,0,1,1,0-2.92H4.67a1.46,1.46,0,0,1,0,2.92Z"/><path d="M14.86,13.06a1.48,1.48,0,0,1-1.3-.78L12.07,9.43a1.46,1.46,0,1,1,2.59-1.35l1.49,2.84a1.45,1.45,0,0,1-.62,2A1.34,1.34,0,0,1,14.86,13.06Z"/><path d="M8,18.88a1.43,1.43,0,0,1-.91-.32l-2.51-2a1.46,1.46,0,0,1,1.83-2.28l2.51,2A1.46,1.46,0,0,1,8,18.88Z"/><path d="M46.54,27.08H43.33a1.46,1.46,0,0,1,0-2.92h3.21a1.46,1.46,0,0,1,0,2.92Z"/><path d="M33.14,13.06a1.34,1.34,0,0,1-.67-.17,1.45,1.45,0,0,1-.62-2l1.49-2.84a1.46,1.46,0,0,1,2.59,1.35l-1.49,2.85A1.48,1.48,0,0,1,33.14,13.06Z"/><path d="M40,18.88a1.46,1.46,0,0,1-.92-2.6l2.51-2a1.46,1.46,0,0,1,1.83,2.28l-2.51,2A1.43,1.43,0,0,1,40,18.88Z"/><path d="M36.54,27.71V34.4H11.46V27.71a12.54,12.54,0,1,1,25.08,0Z"/><path d="M24,13.71a14,14,0,0,0-14,14V34.4H38V27.71A14,14,0,0,0,24,13.71ZM35.08,34.09H12.92V27.71a11.08,11.08,0,0,1,22.16,0ZM10.24,36.35a1.45,1.45,0,0,0,1.22.66H36.54a1.45,1.45,0,0,0,1.22-.66Z"/><path d="M41.54,40v3.26H6.46V40a3.68,3.68,0,0,1,3.68-3.68H37.86A3.68,3.68,0,0,1,41.54,40Z"/></g></svg>