<svg id="icon" xmlns="http://www.w3.org/2000/svg" viewBox="0 0 48 48"><g id="_1" data-name="1"><path d="M32.68,3.89A13.4,13.4,0,0,0,24,.82c-6.78,0-12.27,4.69-12.27,10.47v5h.82l3.48,0h1.12l13.69-.11h.63l3.89,0h.91V11.29A9.72,9.72,0,0,0,32.68,3.89ZM17.84,11.37c0-2.7,2.76-4.9,6.16-4.9s6.16,2.2,6.16,4.9v3.72a41.93,41.93,0,0,0-12.32,0Z"/><path d="M11.73,17.14a.82.82,0,0,1-.82-.83v-5C10.91,5.07,16.78,0,24,0S37.09,5.07,37.09,11.29v4.83a.82.82,0,1,1-1.64,0V11.29C35.45,6,30.31,1.65,24,1.65S12.55,6,12.55,11.29v5A.83.83,0,0,1,11.73,17.14Z"/><path d="M31.81,11.37v4a.82.82,0,0,1-.52.73l-.14,0h0l-.16,0-.15,0a.75.75,0,0,1-.41-.2.81.81,0,0,1-.27-.6v-4c0-2.7-2.76-4.9-6.16-4.9s-6.16,2.2-6.16,4.9v4.09a.86.86,0,0,1-.17.5.83.83,0,0,1-.52.31h-.26a.76.76,0,0,1-.3-.1.84.84,0,0,1-.4-.71V11.37c0-3.61,3.5-6.55,7.81-6.55S31.81,7.76,31.81,11.37Z"/><path d="M40.4,18l-8.93-1.86-.18,0h0L30.91,16,30.43,16a40.75,40.75,0,0,0-12.76,0h0l-.45.07-.63.14-.56.11h0L7.6,18a2.82,2.82,0,0,0-2.35,2.79V44.35a2.83,2.83,0,0,0,2.82,2.83H39.93a2.83,2.83,0,0,0,2.82-2.83V20.8A2.82,2.82,0,0,0,40.4,18ZM19,29a5,5,0,1,1,10-.32A5.2,5.2,0,0,1,26.53,33v4.63a.78.78,0,0,1-.78.78H22.27a.77.77,0,0,1-.78-.77V33A4.83,4.83,0,0,1,19,29Z"/><path d="M40.56,17.21,37,16.47l-1.56-.32-.09,0-3.55-.74-.73-.16H31l-.83-.13a41.93,41.93,0,0,0-12.32,0l-.76.12H17l-.82.17-3.64.76-.75.15h0l-.87.18-3.48.72a3.65,3.65,0,0,0-3,3.6V44.35A3.65,3.65,0,0,0,8.07,48H39.93a3.65,3.65,0,0,0,3.64-3.65V20.8A3.64,3.64,0,0,0,40.56,17.21Zm1.37,27.14a2,2,0,0,1-2,2H8.07a2,2,0,0,1-2-2V20.81a2,2,0,0,1,1.67-2h0l9.6-2A40.3,40.3,0,0,1,24,16.28a39.73,39.73,0,0,1,6.71.57l9.48,2h0a2,2,0,0,1,1.67,2Z"/></g></svg>