<svg id="icon" xmlns="http://www.w3.org/2000/svg" viewBox="0 0 48 48"><defs><style>.cls-1{fill-rule:evenodd;}</style></defs><path class="cls-1" d="M41.52,29.83V21.1a3.34,3.34,0,0,0-3.34-3.34h-.41V14.18c0-.13,0-.26,0-.39s0-.27,0-.41V13a3.31,3.31,0,0,0-.05-.55,13.79,13.79,0,0,0-27.44,0,2.42,2.42,0,0,0-.06.54v.31c0,.17,0,.34,0,.52s0,.34,0,.51v3.46h-.4A3.33,3.33,0,0,0,6.48,21.1V30c0,.17,0,.32,0,.49s0,.17,0,.26v.8a4,4,0,0,0,.07.7,17.54,17.54,0,0,0,34.9,0,3.84,3.84,0,0,0,.07-.69v-.73c0-.11,0-.22,0-.33S41.53,30,41.52,29.83ZM26.06,32.21l.51,3.29a2.65,2.65,0,1,1-5.15,0l.52-3.29a4.43,4.43,0,1,1,4.12,0ZM31.77,14v3.72H16.23V14.07c0-.05,0-.09,0-.14s0-.1,0-.15v-.32a1.39,1.39,0,0,1,0-.3,7.77,7.77,0,0,1,15.47,0,1.55,1.55,0,0,1,0,.31V14Z"/></svg>