<svg id="icon" xmlns="http://www.w3.org/2000/svg" viewBox="0 0 48 48"><path d="M40.14,40.25c0-8.86-2.53-17.15-10.49-24.25a1.09,1.09,0,0,1-.65.12,37.19,37.19,0,0,0-4.95-.33,38.81,38.81,0,0,0-5.05.33,1.09,1.09,0,0,1-.65-.12c-8,7.1-10.5,15.39-10.49,24.25a8.51,8.51,0,0,0-2.27,5.68,16.73,16.73,0,0,0,9.1.91c7.13,1.55,12.1,1.55,18.62,0a16.73,16.73,0,0,0,9.1-.91A8.51,8.51,0,0,0,40.14,40.25ZM27.63,16.48a9.64,9.64,0,0,1,.7,4.64,13.85,13.85,0,0,0-1.79-4.73C26.91,16.42,27.27,16.44,27.63,16.48Zm-4.8-.15.91,0a41.8,41.8,0,0,0-.87,9.79A28.33,28.33,0,0,1,22.83,16.33Zm-3.17.23c.35,0,.71-.08,1.06-.1a92.61,92.61,0,0,0-4.9,10.91A43.59,43.59,0,0,1,19.66,16.56Z"/><path d="M29.22,14.32A40.44,40.44,0,0,0,24.05,14a42.73,42.73,0,0,0-5.27.33.64.64,0,0,0,.15,1.28,39.11,39.11,0,0,1,10.14,0,.64.64,0,0,0,.15-1.28Z"/><path d="M14,11.32a22.81,22.81,0,0,1,4.33,2.6,1,1,0,0,1,.36-.11,41.51,41.51,0,0,1,5.34-.34,39.86,39.86,0,0,1,5.24.34,1,1,0,0,1,.36.11A22.81,22.81,0,0,1,34,11.32c6.49-3,6-6.28-1.2-7.07-.91-3.58-2.89-3.15-5-2.38-1.28-2.49-6.38-2.49-7.66,0-2.06-.77-4-1.2-5,2.38C8,5,7.53,8.29,14,11.32ZM32.53,4.24l.07-.08c.06.18.13.39.18.61l.93.12v0l-5,6.08ZM27.1,1.57l0,0a2.85,2.85,0,0,1,.69.86c.25-.09.5-.19.74-.26L25.77,12.6Zm-6.93.82a2.71,2.71,0,0,1,.64-.82l1.31,11L19.32,2.1C19.61,2.18,19.88,2.28,20.17,2.39Zm-5,2.38c0-.18.1-.36.16-.53L19.17,11l-5-6.08Z"/></svg>