<svg id="icon" xmlns="http://www.w3.org/2000/svg" viewBox="0 0 48 48"><path d="M48,28.89,44,10.72a1.36,1.36,0,0,0-1.61-1L13.63,16a1.36,1.36,0,0,0-1,1.62l.22,1-3.6.78L7,21.46l6.14-1.34.47,2.12L7.47,23.58l-2.21,2.1,8.7-1.9.46,2.12-8.7,1.9L3.5,29.91l11.26-2.47.46,2.12L4,32l-2.22,2.1,13.81-3L16,33.23l-13.8,3L0,38.35l16.36-3.58.22,1a1.35,1.35,0,0,0,1.61,1L46.94,30.5A1.35,1.35,0,0,0,48,28.89ZM40.12,12.6,31.36,23.91a1.57,1.57,0,0,1-1.77.38L16.91,17.68ZM15.37,19.17,24.65,24l-6.41,8.27Zm4,14.93L26.48,25l2.17,1.13A3.52,3.52,0,0,0,33,25.15l1.5-1.94,10.26,5.35ZM35.73,21.58l6.41-8.27L45,26.42Z"/></svg>