<svg id="icon" xmlns="http://www.w3.org/2000/svg" viewBox="0 0 48 48"><path d="M25.67,24.56H40.76v5.3s.11.24.23.24h1.5a.42.42,0,0,0,.22-.12V22.84s-.12-.22-.22-.22H25.67Z"/><path d="M7,30.1c.22,0,.22-.12.22-.12V24.56h15.2V22.62H5.64c-.23,0-.23.11-.23.11v7.13a.23.23,0,0,0,.23.24Z"/><path d="M11.39,31.71H.68A.73.73,0,0,0,0,32.4v7.37a.78.78,0,0,0,.68.81H11.39a.79.79,0,0,0,.81-.81V32.4A.76.76,0,0,0,11.39,31.71ZM9.09,38h-6a.75.75,0,0,1-.68-.69.74.74,0,0,1,.68-.69h6a.74.74,0,0,1,.69.69A.75.75,0,0,1,9.09,38Zm0-2.42h-6a.75.75,0,0,1-.68-.69.65.65,0,0,1,.68-.68h6a.65.65,0,0,1,.69.68A.75.75,0,0,1,9.09,35.62Z"/><path d="M29.36,31.71H18.66a.75.75,0,0,0-.71.69v7.37a.79.79,0,0,0,.71.81h10.7c.45,0,.69-.36.69-.81V32.4A.67.67,0,0,0,29.36,31.71ZM26.94,38H21.06a.69.69,0,0,1,0-1.38h5.88a.7.7,0,1,1,0,1.38Zm0-2.42H21.06a.66.66,0,0,1-.68-.69.59.59,0,0,1,.68-.68h5.88c.46,0,.81.21.81.68A.78.78,0,0,1,26.94,35.62Z"/><path d="M47.32,31.71H36.61a.77.77,0,0,0-.81.69v7.37a.8.8,0,0,0,.81.81H47.32c.46,0,.68-.36.68-.81V32.4A.65.65,0,0,0,47.32,31.71ZM44.89,38H39a.69.69,0,1,1,0-1.38h5.87a.75.75,0,0,1,.71.69A.75.75,0,0,1,44.89,38Zm0-2.42H39a.67.67,0,0,1-.69-.69c0-.47.23-.68.69-.68h5.87a.66.66,0,0,1,.71.68A.75.75,0,0,1,44.89,35.62Z"/><path d="M24.74,20.78H23.25a.47.47,0,0,0-.23.09v8.66s.12.22.23.22h1.49a.35.35,0,0,0,.24-.12V20.87h0A.39.39,0,0,0,24.74,20.78Z"/><path d="M16.92,19.15H31.2a1,1,0,0,0,.91-.91V8.45a1,1,0,0,0-.91-1H16.92a1,1,0,0,0-1,1v9.79A1,1,0,0,0,16.92,19.15Zm3-8.75h8.17a.91.91,0,0,1,.93.93,1,1,0,0,1-.93.93H19.91a1,1,0,0,1-.91-.93A.9.9,0,0,1,19.91,10.4Zm0,3.92h8.17a1,1,0,0,1,.93.93.9.9,0,0,1-.93.91H19.91a.89.89,0,0,1-.91-.91A1,1,0,0,1,19.91,14.32Z"/></svg>