<svg id="icon" xmlns="http://www.w3.org/2000/svg" viewBox="0 0 48 48"><path d="M45.15,4c0-2.16-1.38-4-3.38-4h-.15L8.08.63A3.91,3.91,0,0,0,4.69,4.78h0v.77h.76V4.78c0-1.85,1.23-3.39,2.63-3.39L41.77.77C43.16.63,44.39,2.16,44.53,4l.62,39.07h.78Z"/><rect x="4.87" y="9.71" width="0.76" height="4.29"/><path d="M42.7,46.6,9,47.23c-1.39,0-2.61-1.53-2.79-3.38v-.46l-.78.14V44A4.15,4.15,0,0,0,9,48H9l33.68-.77c2,0,3.23-1.85,3.23-4v-.14h-.78A3.16,3.16,0,0,1,42.7,46.6Z"/><polygon points="5.77 18.16 5.01 18.16 5.15 22.31 5.77 22.31 5.77 18.16"/><polygon points="5.92 26.63 5.15 26.63 5.33 30.93 6.09 30.76 5.92 26.63"/><polygon points="6.09 34.91 5.33 35.08 5.46 39.23 6.23 39.23 6.09 34.91"/><polygon points="6.68 26.63 5.92 26.63 6.09 30.76 6.68 30.76 6.68 26.63"/><rect x="5.63" y="9.71" width="0.78" height="4.29"/><polygon points="6.85 34.91 6.09 34.91 6.23 39.23 7 39.23 6.85 34.91"/><path d="M41.77.77,8.08,1.39c-1.4,0-2.63,1.54-2.63,3.39v.77h.78V4.78h0c0-1.54.94-2.62,1.85-2.62l33.69-.77v0h0c.93,0,1.86,1.09,1.86,2.62l.9,39.21h0a2.28,2.28,0,0,1-2,2.48L9,46.46H9a2.44,2.44,0,0,1-2-2.61v-.46H6.23v.46c.18,1.85,1.4,3.38,2.79,3.38L42.7,46.6a3.16,3.16,0,0,0,2.45-3.52L44.53,4C44.39,2.16,43.16.63,41.77.77Z"/><rect x="5.77" y="18.15" width="0.76" height="4.15"/><path d="M16.08,18.92h0l20.46-.46c1.08,0,2.16-.45,2.3-1.67h-.78c0,.59-.58.9-1.52.9l-20.46.46c-.78,0-1.54-.31-1.54-.91L14.22,6.31c0-.45.76-.93,1.72-.93l20.28-.29c.94,0,1.7.29,1.7.77l.14,10.93h.78L38.7,5.86c-.14-1.25-1.4-1.53-2.48-1.53h0l-20.28.28c-1.08.17-2.3.48-2.48,1.7h0l.3,10.93C13.94,18.61,15,18.92,16.08,18.92Z"/><path d="M36.22,5.09l-20.28.29c-1,0-1.72.48-1.72.93l.32,10.93c0,.6.76.91,1.54.91l20.46-.46c.94,0,1.52-.31,1.52-.9h0L37.92,5.86C37.92,5.38,37.16,5.09,36.22,5.09Zm.32,12-20.46.31h0a1.3,1.3,0,0,1-.78-.14h0L15,6.46a1.49,1.49,0,0,1,1-.31l20.28-.46h0a1.44,1.44,0,0,1,.62.17l.32.14.14,10.79A2,2,0,0,1,36.54,17.07Z"/><path d="M2.71,5.55a1.84,1.84,0,0,0-.64.14l.18,3.7c0,.32.14.32.46.32H4.87L4.69,5.55Z"/><path d="M9.62,9.71a.59.59,0,0,0,.46-.18V5.69a1,1,0,0,0-.6-.31l-3.25.17.18,4.16Z"/><polygon points="5.46 5.55 4.69 5.55 4.87 9.71 5.63 9.71 5.46 5.55"/><polygon points="6.41 9.71 6.23 5.55 5.46 5.55 5.63 9.71 6.41 9.71"/><path d="M2.71,14a1.52,1.52,0,0,0-.64.18l.18,3.67a.54.54,0,0,0,.46.31H5L4.87,14Z"/><path d="M9.62,18h.46V14.17a1,1,0,0,0-.6-.31L6.41,14l.12,4.16Z"/><polygon points="5.63 13.99 4.87 13.99 5.01 18.16 5.77 18.16 5.63 13.99"/><polygon points="6.41 13.99 5.63 13.99 5.77 18.16 6.54 18.16 6.41 13.99"/><path d="M2.71,22.48a1.84,1.84,0,0,0-.64.14l.18,3.7a.54.54,0,0,0,.46.31H5.15V22.31Z"/><path d="M9.62,26.46a.67.67,0,0,0,.46-.14v-3.7a1,1,0,0,0-.6-.31H6.53l.15,4.32Z"/><polygon points="5.77 22.31 5.15 22.31 5.15 26.63 5.92 26.63 5.77 22.31"/><polygon points="6.54 22.31 5.77 22.31 5.92 26.63 6.68 26.63 6.54 22.31"/><path d="M2.71,30.93a1.84,1.84,0,0,0-.64.14l.18,3.7a.54.54,0,0,0,.46.31H5.33V30.93Z"/><path d="M9.62,34.91a.67.67,0,0,0,.46-.14v-3.7a1,1,0,0,0-.6-.31H6.68l.17,4.15Z"/><polygon points="6.09 30.76 5.33 30.93 5.33 35.08 6.09 34.91 6.09 30.76"/><polygon points="6.68 30.76 6.09 30.76 6.09 34.91 6.85 34.91 6.68 30.76"/><path d="M2.71,39.23a1.12,1.12,0,0,0-.64.32l.18,3.67a.54.54,0,0,0,.46.31H5.45v-4.3Z"/><path d="M10.08,43.08V39.55c0-.32-.29-.32-.6-.32H7v4.16H9.62C9.94,43.39,10.08,43.22,10.08,43.08Z"/><polygon points="6.23 39.23 5.46 39.23 5.46 43.53 6.23 43.39 6.23 39.23"/><rect x="6.23" y="39.23" width="0.76" height="4.15"/></svg>