<svg id="icon" xmlns="http://www.w3.org/2000/svg" viewBox="0 0 48 48"><circle cx="14.73" cy="15.49" r="8.82" transform="translate(-2.72 27.82) rotate(-81.68)"/><path d="M20.52,23.83a10.12,10.12,0,0,1-11.58,0C3.68,26.73,0,33.48,0,41.33H29.46C29.46,33.48,25.78,26.73,20.52,23.83Z"/><circle cx="36.22" cy="20.67" r="7.05" transform="translate(-5.03 14.51) rotate(-21.22)"/><path d="M40.85,27.34a8.1,8.1,0,0,1-9.25,0,12,12,0,0,0-3.4,2.86,24.56,24.56,0,0,1,2.6,11.13H48C48,35.05,45.05,29.66,40.85,27.34Z"/></svg>