<svg id="icon" xmlns="http://www.w3.org/2000/svg" viewBox="0 0 48 48"><path d="M39.2,7.05a7.05,7.05,0,1,0-9.75,6.51V34.64a7.65,7.65,0,0,1-6.78,7.69,7.52,7.52,0,0,1-8.23-7.47v-4.1l2.31,2.31a2.82,2.82,0,0,0,4-4L13.61,22s0,0,0,0a2.31,2.31,0,0,0-.39-.31,1.71,1.71,0,0,0-.23-.13,2,2,0,0,0-.25-.13,1.61,1.61,0,0,0-.29-.09,1.09,1.09,0,0,0-.24-.07,2.55,2.55,0,0,0-1.1,0,1.09,1.09,0,0,0-.24.07l-.29.09c-.09,0-.17.09-.26.13l-.22.13a2.31,2.31,0,0,0-.39.31s0,0,0,0,0,0,0,0a3,3,0,0,0-.31.39,1.71,1.71,0,0,0-.13.23,1.19,1.19,0,0,0-.13.25c0,.1-.07.2-.1.3a1.55,1.55,0,0,0-.06.23A2.57,2.57,0,0,0,8.8,24V34.86A13.14,13.14,0,0,0,21.94,48h0A13.14,13.14,0,0,0,35.09,34.86V13.45A7.06,7.06,0,0,0,39.2,7.05ZM32.15,5.64a1.41,1.41,0,1,1-1.41,1.41A1.41,1.41,0,0,1,32.15,5.64Z"/></svg>