<svg id="icon" xmlns="http://www.w3.org/2000/svg" viewBox="0 0 48 48"><g id="_12" data-name="12"><path d="M24.61,42.64a.61.61,0,0,1-1.22,0,.61.61,0,0,1,1.22,0Z"/><path d="M24,41a1.67,1.67,0,1,0,1.67,1.67A1.67,1.67,0,0,0,24,41Zm0,2.11a.45.45,0,1,1,.45-.44A.45.45,0,0,1,24,43.08Z"/><path d="M33.08,0H14.92A4.89,4.89,0,0,0,10,4.89V43.12A4.89,4.89,0,0,0,14.92,48H33.08A4.89,4.89,0,0,0,38,43.12V4.89A4.89,4.89,0,0,0,33.08,0Zm2.77,43.12a2.77,2.77,0,0,1-2.77,2.76H14.92a2.77,2.77,0,0,1-2.77-2.76V4.89a2.77,2.77,0,0,1,2.77-2.77H33.08a2.77,2.77,0,0,1,2.77,2.77Z"/><path d="M36.91,8.55H11.09a.74.74,0,0,0-.74.74V38.82a.74.74,0,0,0,.74.74H36.91a.74.74,0,0,0,.74-.74V9.29A.74.74,0,0,0,36.91,8.55Zm-.74,29.53H11.83V10H36.17Z"/><path d="M26.62,6.15H21A1.06,1.06,0,0,1,21,4h5.61a1.06,1.06,0,0,1,0,2.12Z"/><path d="M11,9.31V38.8H36.32V9.31ZM24,31.9a7.85,7.85,0,1,1,7.85-7.84A7.85,7.85,0,0,1,24,31.9Z"/><path d="M27.73,22.35l-3.82,4.74a1.05,1.05,0,0,1-.76.39h-.06a1.06,1.06,0,0,1-.75-.31l-2-2a1.05,1.05,0,1,1,1.49-1.49L23,24.84,26.08,21a1.06,1.06,0,0,1,1.65,1.32Z"/></g></svg>