<svg id="icon" xmlns="http://www.w3.org/2000/svg" viewBox="0 0 48 48"><rect x="8.01" width="8.06" height="8.06" rx="0.96"/><rect x="18.76" width="8.06" height="8.06" rx="0.96"/><rect x="29.52" width="8.06" height="8.06" rx="0.96"/><rect x="8.01" y="10.75" width="8.06" height="8.06" rx="0.96"/><rect x="29.52" y="10.75" width="8.06" height="8.06" rx="0.96"/><rect x="8.01" y="21.51" width="8.06" height="8.06" rx="0.96"/><path d="M37.76,24a2.23,2.23,0,0,0-2.23,2.23V25.11a2.4,2.4,0,0,0-4.8,0v-.62a2.56,2.56,0,0,0-5.12-.22V13.56a2.81,2.81,0,1,0-5.62,0V36.73l-.11.19-3.79-1.54a5.64,5.64,0,0,0-7.36,3.1,1,1,0,0,0,.54,1.27l11.1,4.52a7.77,7.77,0,0,0,1.48,1.44v.67A1.61,1.61,0,0,0,23.47,48H36.56a1.62,1.62,0,0,0,1.62-1.62v-2s0-.07,0-.1A6.78,6.78,0,0,0,40,39.63V26.23A2.23,2.23,0,0,0,37.76,24Z"/></svg>