<svg id="icon" xmlns="http://www.w3.org/2000/svg" viewBox="0 0 48 48"><defs><style>.cls-1{fill-rule:evenodd;}</style></defs><path class="cls-1" d="M31.67,16.65H16.33a1.07,1.07,0,1,0,0,2.14H31.67a1.07,1.07,0,0,0,0-2.14Zm0-9.51H16.33a1.07,1.07,0,0,0,0,2.14H31.67a1.07,1.07,0,1,0,0-2.14Zm0,4.76H16.33a1.07,1.07,0,0,0,0,2.14H31.67a1.07,1.07,0,1,0,0-2.14ZM44.54,29.39l-2.08-8.9c-.41-1.42-1.18-2.68-2.58-2.83V1.43A1.43,1.43,0,0,0,38.45,0H9.72A1.43,1.43,0,0,0,8.3,1.43V17.65a3.73,3.73,0,0,0-2.76,2.84l-2.08,8.9a2.85,2.85,0,0,0-2.3,2.8v13A2.86,2.86,0,0,0,4,48H44a2.86,2.86,0,0,0,2.85-2.85v-13A2.85,2.85,0,0,0,44.54,29.39ZM36,41.83a1.43,1.43,0,0,1-1.43,1.43h-.89a1.43,1.43,0,0,1-1.43-1.43v-.89a1.43,1.43,0,0,1,1.43-1.43h.89A1.43,1.43,0,0,1,36,40.94ZM36.13,30H12.06V22.47a1,1,0,0,1,0-.17V5.17a1.43,1.43,0,0,1,1.43-1.42H34.71a1.42,1.42,0,0,1,1.42,1.42Zm5.81,11.81a1.43,1.43,0,0,1-1.43,1.43h-.89a1.43,1.43,0,0,1-1.43-1.43v-.89a1.43,1.43,0,0,1,1.43-1.43h.89a1.43,1.43,0,0,1,1.43,1.43ZM24.54,21.41H16.33a1.07,1.07,0,1,0,0,2.14h8.21a1.07,1.07,0,0,0,0-2.14Z"/></svg>