<svg id="icon" xmlns="http://www.w3.org/2000/svg" viewBox="0 0 48 48"><defs><style>.cls-1{fill-rule:evenodd;}</style></defs><path class="cls-1" d="M44.44,13.43h-5V9.32a1.11,1.11,0,0,0-1.11-1.11H36.94V0H11.06V8.21H9.67A1.11,1.11,0,0,0,8.56,9.32v4.11h-5A2.56,2.56,0,0,0,1,16V27.33a2.56,2.56,0,0,0,2.55,2.55h7.5v7.24H22.4v4a3.7,3.7,0,0,0-1.66,1.66h-17V46h17a3.63,3.63,0,0,0,6.52,0h17v-3.2h-17a3.7,3.7,0,0,0-1.66-1.66v-4H36.94V29.88h7.5A2.56,2.56,0,0,0,47,27.33V16A2.56,2.56,0,0,0,44.44,13.43ZM24,46a1.6,1.6,0,1,1,1.6-1.6A1.6,1.6,0,0,1,24,46Zm9.48-12.3h-19V29.88h19Zm0-17.15h-19V3.46h19Zm8.28,9.12A1.63,1.63,0,1,1,43.38,24,1.63,1.63,0,0,1,41.76,25.64Zm0-4.72a1.62,1.62,0,1,1,1.62-1.62A1.63,1.63,0,0,1,41.76,20.92Z"/></svg>