<svg id="icon" xmlns="http://www.w3.org/2000/svg" viewBox="0 0 48 48"><path d="M15.89,32.58a8.53,8.53,0,1,0-8.53-8.53A8.54,8.54,0,0,0,15.89,32.58ZM15.47,18a1,1,0,0,1,1.11-.79,6.91,6.91,0,0,1,5.75,6.83,1,1,0,0,1-1.93,0,5,5,0,0,0-4.15-4.93A1,1,0,0,1,15.47,18Z"/><path d="M24,0A24,24,0,0,0,2.2,34l3.28-3.29a12.43,12.43,0,1,1,4.18,4L5.33,39.08A24,24,0,1,0,24,0Zm4.69,32.18a1.35,1.35,0,0,1,0-1.91,9,9,0,0,0,1.92-2.88,8.91,8.91,0,0,0,0-6.78,8.81,8.81,0,0,0-1.92-2.88,1.35,1.35,0,1,1,1.92-1.91,11.61,11.61,0,0,1,2.5,3.76A11.4,11.4,0,0,1,34,24a11.58,11.58,0,0,1-.88,4.42,11.7,11.7,0,0,1-2.51,3.76A1.36,1.36,0,0,1,28.69,32.18ZM32.53,36a1.35,1.35,0,0,1,0-1.91,14.3,14.3,0,0,0,0-20.22A1.35,1.35,0,1,1,34.45,12a17,17,0,0,1,0,24A1.36,1.36,0,0,1,32.53,36Zm5.75,3.84a1.35,1.35,0,0,1-1.91-1.92,19.72,19.72,0,0,0,0-27.88,1.35,1.35,0,0,1,1.91-1.92,22.44,22.44,0,0,1,0,31.72Z"/></svg>