<svg id="icon" xmlns="http://www.w3.org/2000/svg" viewBox="0 0 48 48"><defs><style>.cls-1{fill-rule:evenodd;}</style></defs><path class="cls-1" d="M34.55,42.27a1.45,1.45,0,0,1,2,.54,1.44,1.44,0,0,1-.54,2A24,24,0,1,1,36,3.22a1.44,1.44,0,0,1,.54,2,1.45,1.45,0,0,1-2,.54,21.1,21.1,0,1,0,0,36.54Z"/><path class="cls-1" d="M38.92,9.08a1.45,1.45,0,1,1,2-2A24,24,0,0,1,41,41a1.45,1.45,0,0,1-2-2,21.27,21.27,0,0,0,4.57-6.84,21.08,21.08,0,0,0,0-16.16A21.27,21.27,0,0,0,38.92,9.08Z"/><path class="cls-1" d="M34.81,13.18a1.45,1.45,0,0,1,2-2,18.18,18.18,0,0,1,4,19.81,18.3,18.3,0,0,1-4,5.91,1.45,1.45,0,0,1-2-2,15.3,15.3,0,0,0,0-21.64Z"/><path class="cls-1" d="M30.7,17.29a1.45,1.45,0,0,1,2.06-2,12.53,12.53,0,0,1,2.68,4,12.39,12.39,0,0,1-2.68,13.48,1.45,1.45,0,1,1-2.06-2,9.26,9.26,0,0,0,2.06-3.08A9.48,9.48,0,0,0,30.7,17.29Z"/><path d="M9.22,37a2.07,2.07,0,0,0,1.48.61A2.1,2.1,0,0,0,12.19,37l5.16-5.16a9,9,0,1,0-3-2.91L9.22,34A2.1,2.1,0,0,0,9.22,37Zm12.66-6.74A6.21,6.21,0,1,1,28.08,24,6.22,6.22,0,0,1,21.88,30.22Z"/><path d="M26.56,24a5,5,0,0,0-4.18-5,.7.7,0,0,0-.81.57.71.71,0,0,0,.57.81,3.63,3.63,0,0,1,3,3.58.7.7,0,1,0,1.4,0Z"/></svg>