<svg id="icon" xmlns="http://www.w3.org/2000/svg" viewBox="0 0 48 48"><path d="M8.07,11.35H9a.9.9,0,0,1,.9.9v5.38a.9.9,0,0,1-.9.9h-.9V29.47H9a.9.9,0,0,1,.9.9v5.38a.9.9,0,0,1-.9.9h-.9v3.27H39.93V8.07H8.07Zm15,21.58a8.91,8.91,0,0,1-4.77-2l2.55-2.56a5.2,5.2,0,0,0,2.22.92Zm7.84-3.26-2.56-2.55a5.2,5.2,0,0,0,.92-2.22h3.63A8.91,8.91,0,0,1,30.94,29.67Zm2-6.57H29.3a5.33,5.33,0,0,0-.92-2.22h0l2.56-2.55A8.91,8.91,0,0,1,32.93,23.1Zm-8-8a8.91,8.91,0,0,1,4.77,2l-2.55,2.56h0a5.2,5.2,0,0,0-2.22-.92Zm0,14.23a5.2,5.2,0,0,0,2.22-.92l2.55,2.56a8.91,8.91,0,0,1-4.77,2ZM23.1,15.07V18.7a5.2,5.2,0,0,0-2.22.92h0l-2.55-2.56A8.91,8.91,0,0,1,23.1,15.07Zm-6,3.26,2.56,2.55a5.33,5.33,0,0,0-.92,2.22H15.07A8.91,8.91,0,0,1,17.06,18.33ZM18.7,24.9a5.2,5.2,0,0,0,.92,2.22h0l-2.56,2.55a8.91,8.91,0,0,1-2-4.77Z"/><path d="M45.31,0H2.69A2.7,2.7,0,0,0,0,2.69V45.31A2.7,2.7,0,0,0,2.69,48H45.31A2.7,2.7,0,0,0,48,45.31V2.69A2.7,2.7,0,0,0,45.31,0ZM41.72,40.82a.9.9,0,0,1-.9.9H7.18a.9.9,0,0,1-.9-.9V36.65h-.9a.89.89,0,0,1-.89-.9V30.37a.89.89,0,0,1,.89-.9h.9V18.53h-.9a.89.89,0,0,1-.89-.9V12.25a.89.89,0,0,1,.89-.9h.9V7.18a.9.9,0,0,1,.9-.9H40.82a.9.9,0,0,1,.9.9Z"/></svg>