<svg id="icon" xmlns="http://www.w3.org/2000/svg" viewBox="0 0 48 48"><path d="M24,0A21.07,21.07,0,0,0,7.31,34v3.73a4.49,4.49,0,0,0,4.48,4.48h3v4h0a2.34,2.34,0,0,0,4.58,0h.1a2.34,2.34,0,0,0,4.58,0h.1a2.34,2.34,0,0,0,4.58,0h.1a2.34,2.34,0,0,0,4.58,0h.05v-4h2.75a4.49,4.49,0,0,0,4.48-4.48V34A21.07,21.07,0,0,0,24,0ZM17.08,35.84a4.68,4.68,0,1,1,4.68-4.68A4.69,4.69,0,0,1,17.08,35.84Zm8.15,5H22.77a1.13,1.13,0,0,1-1.05-1.55L23,36.19a1.13,1.13,0,0,1,2.1,0l1.23,3.08A1.13,1.13,0,0,1,25.23,40.82Zm5.89-5a4.68,4.68,0,1,1,4.68-4.68A4.68,4.68,0,0,1,31.12,35.84Z"/></svg>