<svg id="icon" xmlns="http://www.w3.org/2000/svg" viewBox="0 0 48 48"><g id="_8" data-name="8"><path d="M36.28,32.88l-.5.5-2.53,2.48-.5.5h0l-.52-.53L29.9,33.51l.56-.44c.49-.41,1-.84,1.42-1.29s.75-.79,1.1-1.2c.15-.18.31-.36.45-.55Z"/><path d="M29.93,5.71A17.06,17.06,0,1,0,27.31,32l.6-.42c.2-.15.39-.29.58-.45a14.46,14.46,0,0,0,1.44-1.29A14,14,0,0,0,31,28.62q.24-.29.45-.57l.44-.6A17.07,17.07,0,0,0,29.93,5.71Zm-4,20.11a11.39,11.39,0,1,1,0-16.09A11.31,11.31,0,0,1,25.92,25.82Z"/><path d="M30.44,5.21A17.77,17.77,0,0,0,5.31,30.34a17.78,17.78,0,0,0,22.54,2.14c.2-.13.4-.27.59-.42s.39-.29.57-.44a17.21,17.21,0,0,0,1.43-1.28c.39-.39.75-.79,1.1-1.2l.45-.56c.14-.19.29-.39.42-.58a17.79,17.79,0,0,0-2-22.79Zm1,21.72c-.2.3-.41.58-.63.87h0a16.07,16.07,0,0,1-1.35,1.53,16.89,16.89,0,0,1-2.06,1.75l-.61.42A16.35,16.35,0,0,1,6.32,6.22a16.33,16.33,0,0,1,23.11,0,16.35,16.35,0,0,1,2,20.71Z"/><path d="M39.58,33.43l6.76,6.75a2.9,2.9,0,0,1,0,4.08l-2.19,2.18a2.87,2.87,0,0,1-4.07,0L33.3,39.66a2.88,2.88,0,0,1,0-4.1l2.21-2.15A2.89,2.89,0,0,1,39.58,33.43Z"/><path d="M46.84,39.68l-6.75-6.75A3.57,3.57,0,0,0,36.46,32a3.39,3.39,0,0,0-.7.31,3.51,3.51,0,0,0-.59.42.8.8,0,0,0-.13.13l-2.21,2.15a1.8,1.8,0,0,0-.19.2,3.88,3.88,0,0,0-.42.58,3.19,3.19,0,0,0-.31.71,3.41,3.41,0,0,0-.17,1.06,3.59,3.59,0,0,0,1.05,2.57L39.57,47a3.61,3.61,0,0,0,5.09,0l2.18-2.19A3.6,3.6,0,0,0,46.84,39.68Zm-6.26,6.26L33.8,39.16a2.2,2.2,0,0,1-.43-2.46.08.08,0,0,0,0,0,2.23,2.23,0,0,1,.43-.59L36,33.92a2.11,2.11,0,0,1,.58-.41h0a2.17,2.17,0,0,1,2.45.44l6.75,6.75a2.17,2.17,0,0,1,0,3.06l-2.18,2.19a2.19,2.19,0,0,1-3.07,0Z"/></g></svg>