<svg id="icon" xmlns="http://www.w3.org/2000/svg" viewBox="0 0 48 48"><defs><style>.cls-1{fill-rule:evenodd;}</style></defs><path class="cls-1" d="M3.42,31.39H13.5a12.84,12.84,0,0,1,0-14.78H3.42A1.43,1.43,0,0,0,2,18V30A1.43,1.43,0,0,0,3.42,31.39Z"/><path class="cls-1" d="M44.58,16.61H34.5a12.84,12.84,0,0,1,0,14.78H44.58A1.43,1.43,0,0,0,46,30V18A1.43,1.43,0,0,0,44.58,16.61Z"/><path class="cls-1" d="M44.58,33.21H32.94a12.82,12.82,0,0,1-17.88,0H3.42A1.43,1.43,0,0,0,2,34.63V46.58A1.43,1.43,0,0,0,3.42,48H44.58A1.43,1.43,0,0,0,46,46.58V34.63A1.43,1.43,0,0,0,44.58,33.21Zm-3.93,9.25a1.86,1.86,0,1,1,1.85-1.85A1.85,1.85,0,0,1,40.65,42.46Z"/><path class="cls-1" d="M44.58,0H3.42A1.43,1.43,0,0,0,2,1.42V13.36a1.43,1.43,0,0,0,1.42,1.43H15.06a12.82,12.82,0,0,1,17.88,0H44.58A1.43,1.43,0,0,0,46,13.36V1.42A1.43,1.43,0,0,0,44.58,0ZM40.65,9.25A1.86,1.86,0,1,1,42.5,7.39,1.85,1.85,0,0,1,40.65,9.25Z"/><path class="cls-1" d="M29,31.47a1.36,1.36,0,0,0,1.36-1.36V18.73A3.4,3.4,0,0,0,27,15.34H21a3.4,3.4,0,0,0-3.39,3.39V30.11A1.36,1.36,0,0,0,19,31.47Zm-4.28-3.79v1.64a.34.34,0,0,1-.34.34h-.8a.34.34,0,0,1-.34-.34V27.68a1.56,1.56,0,1,1,1.48,0Zm-4.68-7.92a2.06,2.06,0,0,1,2.05-2.06h3.78a2.06,2.06,0,0,1,2.05,2.06v2.85H20.06Z"/></svg>