<svg id="icon" xmlns="http://www.w3.org/2000/svg" viewBox="0 0 48 48"><defs><style>.cls-1{fill-rule:evenodd;}</style></defs><path class="cls-1" d="M1.29,11.21H21.48a1.29,1.29,0,0,0,1.28-1.28V3.21a1.28,1.28,0,0,0-1.28-1.28H1.29A1.29,1.29,0,0,0,0,3.21V9.93A1.28,1.28,0,0,0,1.29,11.21ZM17.93,4.9a1.68,1.68,0,1,1-1.68,1.67A1.67,1.67,0,0,1,17.93,4.9Z"/><path class="cls-1" d="M1.29,22.14H21.48a1.29,1.29,0,0,0,1.28-1.28V14.14a1.28,1.28,0,0,0-1.28-1.28H1.29A1.29,1.29,0,0,0,0,14.14v6.72A1.29,1.29,0,0,0,1.29,22.14Zm16.64-6.32a1.68,1.68,0,1,1-1.68,1.68A1.68,1.68,0,0,1,17.93,15.82Z"/><path class="cls-1" d="M46.71,1.93H26.52a1.29,1.29,0,0,0-1.28,1.28V9.93a1.28,1.28,0,0,0,1.28,1.28H46.71A1.29,1.29,0,0,0,48,9.93V3.21A1.29,1.29,0,0,0,46.71,1.93ZM43.16,8.25a1.68,1.68,0,1,1,1.68-1.68A1.68,1.68,0,0,1,43.16,8.25Z"/><path class="cls-1" d="M46.71,12.86H26.52a1.29,1.29,0,0,0-1.28,1.28v6.72a1.29,1.29,0,0,0,1.28,1.28H46.71A1.29,1.29,0,0,0,48,20.86V14.14A1.29,1.29,0,0,0,46.71,12.86Zm-3.55,6.32a1.68,1.68,0,1,1,1.68-1.68A1.68,1.68,0,0,1,43.16,19.18Z"/><path class="cls-1" d="M46.71,23.79H26.52a1.29,1.29,0,0,0-1.28,1.28v6.72a1.29,1.29,0,0,0,1.28,1.28h8.05v6.6A3.38,3.38,0,0,0,33,41.21H15a3.38,3.38,0,0,0-1.54-1.54v-6.6h8.05a1.29,1.29,0,0,0,1.28-1.28V25.07a1.28,1.28,0,0,0-1.28-1.28H1.29A1.29,1.29,0,0,0,0,25.07v6.72a1.29,1.29,0,0,0,1.29,1.28h9.16v6.6a3.38,3.38,0,0,0-1.54,1.54h-7v3h7a3.37,3.37,0,0,0,6.06,0H33a3.37,3.37,0,0,0,6.06,0h7v-3h-7a3.38,3.38,0,0,0-1.54-1.54v-6.6h9.16A1.29,1.29,0,0,0,48,31.79V25.07A1.29,1.29,0,0,0,46.71,23.79Zm-28.78,3a1.68,1.68,0,1,1-1.68,1.68A1.68,1.68,0,0,1,17.93,26.75Zm-6,17.43a1.49,1.49,0,1,1,1.49-1.49A1.49,1.49,0,0,1,11.94,44.18Zm24.12,0a1.49,1.49,0,1,1,1.49-1.49A1.49,1.49,0,0,1,36.06,44.18Zm7.1-14.08a1.68,1.68,0,1,1,1.68-1.67A1.67,1.67,0,0,1,43.16,30.1Z"/></svg>