<svg id="icon" xmlns="http://www.w3.org/2000/svg" viewBox="0 0 48 48"><path d="M25.75,32.35H23.13a3.92,3.92,0,0,0-1.51-1.54V27.74H17.79v3.11a3.94,3.94,0,0,0-1.45,1.5H2.4v3.73h14a3.84,3.84,0,0,0,6.69,0H26.9A13.63,13.63,0,0,1,26,33.6C25.92,33.18,25.83,32.76,25.75,32.35Z"/><path d="M2.26,14.24H37.14a2.21,2.21,0,0,0,2.27-2.15V5.85A2.21,2.21,0,0,0,37.14,3.7H2.26A2.2,2.2,0,0,0,0,5.85v6.24A2.2,2.2,0,0,0,2.26,14.24ZM25.52,8H36.43v2H25.52ZM13.8,7.81A1.16,1.16,0,1,1,12.64,9,1.16,1.16,0,0,1,13.8,7.81ZM10,7.81A1.16,1.16,0,1,1,8.82,9,1.16,1.16,0,0,1,10,7.81ZM5.57,7.36A1.61,1.61,0,1,1,4,9,1.61,1.61,0,0,1,5.57,7.36Z"/><path d="M24,24.85h2a14.12,14.12,0,0,0,7-2.3H25.52v-2H35.87l.14-.13,1-.92,1,.92a14.54,14.54,0,0,0,1.41,1.13V18.41a2.21,2.21,0,0,0-2.27-2.15H2.26A2.2,2.2,0,0,0,0,18.41v6.25a2.2,2.2,0,0,0,2.26,2.15H24.64a.19.19,0,0,1,0-.07ZM5.57,23.15a1.62,1.62,0,1,1,1.61-1.62A1.62,1.62,0,0,1,5.57,23.15ZM10,22.69a1.16,1.16,0,1,1,1.16-1.16A1.16,1.16,0,0,1,10,22.69Zm3.82,0A1.16,1.16,0,1,1,15,21.53,1.16,1.16,0,0,1,13.8,22.69Z"/><path d="M27.44,33.24c.79,3.13,2.62,6.22,9.57,11.06,6.94-4.84,8.77-7.93,9.56-11.06.54-2.11.59-4.24,1.43-6.93-5.76,0-11-4.85-11-4.85s-5.24,4.85-11,4.85C26.85,29,26.9,31.13,27.44,33.24Zm6.22-6.82.64-.35c.38-.22.73-.44,1.06-.65s.48-.32.69-.47l.57-.43.22-.16.17-.13h0l.38.29c.25.2.56.42.9.66A17.14,17.14,0,0,0,44.67,28l.64.11-.07.32-.06.32-.06.28-.06.27L45,29.8c-.06.34-.11.67-.16,1a19.92,19.92,0,0,1-.53,2.62,8.11,8.11,0,0,1-.32.91,5.79,5.79,0,0,1-.25.57l-.15.29c-.1.18-.2.37-.32.55L43,36c-.15.22-.31.44-.49.67s-.36.44-.56.67-.2.23-.31.34c-.32.35-.67.69-1.05,1s-.81.72-1.26,1.09l-.94.75-1.05.78-.36.27h0l-.37-.27a34.44,34.44,0,0,1-3.24-2.62,14.85,14.85,0,0,1-2.63-3.06l-.17-.27c-.1-.19-.2-.37-.29-.56a8.86,8.86,0,0,1-.58-1.49,23.34,23.34,0,0,1-.53-2.62c-.05-.33-.1-.66-.16-1s-.13-.69-.2-1.05l-.14-.64.64-.11a14.13,14.13,0,0,0,1.73-.44c.37-.12.73-.25,1.09-.4A15.92,15.92,0,0,0,33.66,26.42Z"/><path d="M40.62,38.76c.38-.36.73-.7,1.05-1C41.35,38.06,41,38.4,40.62,38.76Z"/><polygon points="45.24 28.39 45.31 28.07 44.67 27.96 45.31 28.07 45.24 28.39"/><polygon points="37.01 41.65 37.37 41.38 37.01 41.65 37.01 41.65"/><path d="M44,34.29a5.79,5.79,0,0,1-.25.57A5.79,5.79,0,0,0,44,34.29Z"/><path d="M43,36c-.15.22-.31.44-.49.67C42.72,36.47,42.88,36.25,43,36Z"/><path d="M43.56,35.15c-.1.18-.2.37-.32.55C43.36,35.52,43.46,35.33,43.56,35.15Z"/><path d="M42.54,36.7c-.17.22-.36.44-.56.67C42.18,37.14,42.37,36.92,42.54,36.7Z"/><path d="M39.36,39.85l-.94.75Z"/><path d="M38.29,25.18c-.34-.24-.65-.46-.9-.66L37,24.23h0l.38.29C37.64,24.72,38,24.94,38.29,25.18Z"/><path d="M36.84,24.36l-.22.16-.57.43.57-.43Z"/><path d="M33.66,26.42l.64-.35Z"/><path d="M30.18,29.07c.1.52.18,1,.26,1.49A20,20,0,0,0,30.93,33a8.46,8.46,0,0,0,.9,2A19.89,19.89,0,0,0,37,40.1,20,20,0,0,0,42.18,35a8.08,8.08,0,0,0,.9-2,21.59,21.59,0,0,0,.49-2.47c.07-.43.15-.94.26-1.49A19.25,19.25,0,0,1,37,25.8,19.4,19.4,0,0,1,30.18,29.07Z"/></svg>