<svg id="icon" xmlns="http://www.w3.org/2000/svg" viewBox="0 0 48 48"><defs><style>.cls-1{fill-rule:evenodd;}</style></defs><path class="cls-1" d="M41.86,5.5H6.14a1.31,1.31,0,0,0-1.3,1.31V15a1.3,1.3,0,0,0,1.3,1.3H41.86a1.3,1.3,0,0,0,1.3-1.3V6.81A1.31,1.31,0,0,0,41.86,5.5ZM13.94,10.87a.52.52,0,0,1-.52.52h-5a.52.52,0,0,1-.52-.52v-2a.52.52,0,0,1,.52-.52h5a.52.52,0,0,1,.52.52Zm19.26.75a1.7,1.7,0,1,1,1.7-1.7A1.7,1.7,0,0,1,33.2,11.62Zm5.26,0a1.7,1.7,0,1,1,1.7-1.7A1.71,1.71,0,0,1,38.46,11.62Z"/><path class="cls-1" d="M41.86,18.59H6.14a1.31,1.31,0,0,0-1.3,1.31v8.2a1.31,1.31,0,0,0,1.3,1.31H41.86a1.31,1.31,0,0,0,1.3-1.31V19.9A1.31,1.31,0,0,0,41.86,18.59ZM13.94,24a.52.52,0,0,1-.52.52h-5A.52.52,0,0,1,7.86,24V22a.53.53,0,0,1,.52-.52h5a.52.52,0,0,1,.52.52Zm19.26.75A1.7,1.7,0,1,1,34.9,23,1.7,1.7,0,0,1,33.2,24.71Zm5.26,0a1.7,1.7,0,1,1,1.7-1.7A1.71,1.71,0,0,1,38.46,24.71Z"/><path class="cls-1" d="M41.86,31.69H6.14A1.3,1.3,0,0,0,4.84,33v8.2a1.31,1.31,0,0,0,1.3,1.31H41.86a1.31,1.31,0,0,0,1.3-1.31V33A1.3,1.3,0,0,0,41.86,31.69ZM13.94,37.06a.52.52,0,0,1-.52.52h-5a.53.53,0,0,1-.52-.52v-2a.53.53,0,0,1,.52-.52h5a.52.52,0,0,1,.52.52Zm19.26.74a1.7,1.7,0,1,1,1.7-1.7A1.7,1.7,0,0,1,33.2,37.8Zm5.26,0a1.7,1.7,0,1,1,1.7-1.7A1.71,1.71,0,0,1,38.46,37.8Z"/><path class="cls-1" d="M44,.66H4.05A4.07,4.07,0,0,0,0,4.71V43.29a4.07,4.07,0,0,0,4.05,4.05H44a4.07,4.07,0,0,0,4-4.05V4.71A4.07,4.07,0,0,0,44,.66Zm1.29,41.83a2.09,2.09,0,0,1-2.09,2.08H4.85a2.09,2.09,0,0,1-2.09-2.08v-37A2.09,2.09,0,0,1,4.85,3.43h38.3a2.09,2.09,0,0,1,2.09,2.08Z"/></svg>