<svg id="icon" xmlns="http://www.w3.org/2000/svg" viewBox="0 0 48 48"><defs><style>.cls-1{fill-rule:evenodd;}</style></defs><path class="cls-1" d="M41.67,0H6.33A1.3,1.3,0,0,0,5,1.29v8.8a1.3,1.3,0,0,0,1.3,1.29H41.67A1.3,1.3,0,0,0,43,10.09V1.29A1.3,1.3,0,0,0,41.67,0ZM14.05,8.05a.53.53,0,0,1-.52.52h-5A.52.52,0,0,1,8,8.05V3.33a.51.51,0,0,1,.51-.51h5a.52.52,0,0,1,.52.51Zm19.06-2a1.68,1.68,0,1,1,1.68-1.68A1.69,1.69,0,0,1,33.11,6.05Zm5.2,0A1.68,1.68,0,1,1,40,4.37,1.69,1.69,0,0,1,38.31,6.05Z"/><path class="cls-1" d="M41.67,13.64H6.33A1.3,1.3,0,0,0,5,14.93v8.8A1.31,1.31,0,0,0,6.33,25H41.67a1.31,1.31,0,0,0,1.3-1.3v-8.8A1.3,1.3,0,0,0,41.67,13.64ZM14.05,21.69a.53.53,0,0,1-.52.52h-5A.51.51,0,0,1,8,21.69V17a.51.51,0,0,1,.51-.52h5a.52.52,0,0,1,.52.52Zm19.06-2a1.69,1.69,0,1,1,0-3.37,1.69,1.69,0,0,1,0,3.37Zm5.2,0a1.69,1.69,0,1,1,0-3.37,1.69,1.69,0,0,1,0,3.37Z"/><path class="cls-1" d="M41.67,27.28H6.33A1.3,1.3,0,0,0,5,28.58v8.8a1.3,1.3,0,0,0,1.3,1.29H22.5v2.89A3.47,3.47,0,0,0,21,43.11H5v3H21a3.39,3.39,0,0,0,6.09,0H43v-3H27a3.4,3.4,0,0,0-1.54-1.55V38.67H41.67A1.3,1.3,0,0,0,43,37.38v-8.8A1.3,1.3,0,0,0,41.67,27.28ZM24,46.1a1.5,1.5,0,1,1,1.5-1.49A1.5,1.5,0,0,1,24,46.1ZM14.05,35.33a.52.52,0,0,1-.52.52h-5A.51.51,0,0,1,8,35.33V30.62a.51.51,0,0,1,.51-.52h5a.52.52,0,0,1,.52.52Zm19.06-2a1.69,1.69,0,1,1,0-3.37,1.69,1.69,0,0,1,0,3.37Zm5.2,0a1.69,1.69,0,1,1,0-3.37,1.69,1.69,0,0,1,0,3.37Z"/></svg>