<svg id="icon" xmlns="http://www.w3.org/2000/svg" viewBox="0 0 48 48"><path d="M43.65,1.43H4.35A4.33,4.33,0,0,0,0,5.73V42.27a4.33,4.33,0,0,0,4.35,4.3h39.3A4.33,4.33,0,0,0,48,42.27V5.73A4.33,4.33,0,0,0,43.65,1.43ZM34.11,9.57a1.52,1.52,0,0,1,3,0v17.1h-3Zm-11.63,0a1.52,1.52,0,0,1,3,0V14h-3Zm-11.63,0a1.52,1.52,0,0,1,3,0V23.75h-3Zm3,29.14a1.52,1.52,0,0,1-3,0v-7h3Zm.21-8.8H10.63a2.39,2.39,0,0,1-2.54-2.2,2.39,2.39,0,0,1,2.54-2.2H14.1a2.4,2.4,0,0,1,2.55,2.2A2.4,2.4,0,0,1,14.1,29.91Zm11.42,8.8a1.52,1.52,0,0,1-3,0V21.92h3Zm.21-18.56H22.26A2.39,2.39,0,0,1,19.72,18a2.39,2.39,0,0,1,2.54-2.2h3.47A2.4,2.4,0,0,1,28.28,18,2.4,2.4,0,0,1,25.73,20.15ZM37.14,38.71a1.52,1.52,0,0,1-3,0V34.6h3Zm.23-5.87H33.89a2.4,2.4,0,0,1-2.54-2.2,2.4,2.4,0,0,1,2.54-2.2h3.48a2.4,2.4,0,0,1,2.54,2.2A2.4,2.4,0,0,1,37.37,32.84Z"/></svg>