<svg id="icon" xmlns="http://www.w3.org/2000/svg" viewBox="0 0 48 48"><g id="Element"><path d="M47.78,16.48a25.84,25.84,0,0,0-8.81-.7c-5.6.35-9.33.44-12.1,3.15a6,6,0,0,1-2.87.62,6,6,0,0,1-2.87-.62c-2.77-2.71-6.5-2.8-12.1-3.15a25.84,25.84,0,0,0-8.81.7A8.43,8.43,0,0,0,.15,20a28.45,28.45,0,0,0,3.43,9.12C5.74,32.28,10.36,32.7,14.07,32s5.58-4.12,7.27-6.92A3.35,3.35,0,0,1,24,23.4a3.35,3.35,0,0,1,2.66,1.68c1.69,2.8,3.56,6.22,7.27,6.92s8.33.28,10.49-2.86A28.45,28.45,0,0,0,47.85,20,8.43,8.43,0,0,0,47.78,16.48ZM17.65,26.37A7,7,0,0,1,13,29.45c-2.9.36-6.71-.3-8-3a17.51,17.51,0,0,1-1.46-6.17A2.69,2.69,0,0,1,6,18.09a28.6,28.6,0,0,1,4.85,0s5.62.36,7.13,2.41S18,26,17.65,26.37Zm25.4.12c-1.33,2.66-5.14,3.32-8,3a7,7,0,0,1-4.66-3.08c-.3-.37-1.87-3.81-.36-5.87s7.13-2.41,7.13-2.41a28.63,28.63,0,0,1,4.85,0,2.69,2.69,0,0,1,2.54,2.23A17.51,17.51,0,0,1,43.05,26.49Z"/></g></svg>