<svg id="icon" xmlns="http://www.w3.org/2000/svg" viewBox="0 0 48 48"><g id="_7" data-name="7"><path d="M29,20.62,23.87,27a1.4,1.4,0,0,1-1,.52h-.08a1.38,1.38,0,0,1-1-.41L19.12,24.4a1.39,1.39,0,0,1,2-2L22.67,24l4.14-5.13A1.39,1.39,0,0,1,29,20.62Z"/><path d="M41.33,6.8a9.66,9.66,0,0,0-2.12-.13A17.84,17.84,0,0,1,28.6,3.49L25,1A1.67,1.67,0,0,0,23,1L19.51,3.43A17.61,17.61,0,0,1,9,6.65a11.75,11.75,0,0,0-2.35.14A2.12,2.12,0,0,0,5,9L6,27.2a16.12,16.12,0,0,0,6.72,12.29L24,47.35l11.24-7.86A16.12,16.12,0,0,0,42,27.2L43,9A2.11,2.11,0,0,0,41.33,6.8ZM24,32.73a9.82,9.82,0,1,1,9.81-9.81A9.81,9.81,0,0,1,24,32.73Z"/><path d="M41.46,6.16A9.36,9.36,0,0,0,39.62,6h-.8A17.19,17.19,0,0,1,29,3L25.34.42A2.39,2.39,0,0,0,24,0a2.33,2.33,0,0,0-1.33.42L19.14,2.9A16.88,16.88,0,0,1,9,6H8.56a11,11,0,0,0-2,.15A2.8,2.8,0,0,0,4.32,9L5.39,27.24a16.82,16.82,0,0,0,7,12.79l11.24,7.85a.63.63,0,0,0,.74,0L35.61,40a16.77,16.77,0,0,0,7-12.78L43.68,9A2.78,2.78,0,0,0,41.46,6.16ZM24,46.56,13.14,39A15.35,15.35,0,0,1,6.69,27.17L5.62,9A1.46,1.46,0,0,1,6.79,7.43,9.14,9.14,0,0,1,8.56,7.3H9A18.24,18.24,0,0,0,19.88,4l3.53-2.48A1.06,1.06,0,0,1,24,1.3a1,1,0,0,1,.59.19L28.23,4A18.43,18.43,0,0,0,38.82,7.33h.8a9.31,9.31,0,0,1,1.58.11A1.49,1.49,0,0,1,42.38,9L41.31,27.17A15.35,15.35,0,0,1,34.86,39Z"/><path d="M29,20.62,23.87,27a1.4,1.4,0,0,1-1,.52h-.08a1.38,1.38,0,0,1-1-.41L19.12,24.4a1.39,1.39,0,0,1,2-2L22.67,24l4.14-5.13A1.39,1.39,0,0,1,29,20.62Z"/></g></svg>