<svg id="icon" xmlns="http://www.w3.org/2000/svg" viewBox="0 0 48 48"><defs><style>.cls-1{fill-rule:evenodd;}</style></defs><path class="cls-1" d="M44.49,5s-5-1.06-10.77-2.45C30.55,1.78,28.44,0,24.45,0c-3.8,0-6.83,1.67-10.07,2.46C8.76,3.85,3.52,5,3.52,5c-.87.35-1.34.78-1.06,1.72L6.74,20.83C9.52,32.85,24.1,48,24.1,48S36.53,35,40.47,23.46a1.25,1.25,0,0,0,.15-.31L45.55,6.71C45.84,5.77,45.19,5.4,44.49,5ZM38.8,10.35,35.35,21.87a.76.76,0,0,1-.13.23c-2.79,7.83-11.15,16.61-11.15,16.61S15.56,29.86,12.74,22a1,1,0,0,1-.08-.14l-.18-.61a.65.65,0,0,0,0-.13L9.21,10.35c-.19-.64.13-.94.73-1.18l7.82-1.92C20,6.7,21.84,5.74,24.45,5.74s3.68,1,5.85,1.52c3.94,1,7.77,1.91,7.77,1.91C38.55,9.45,39,9.71,38.8,10.35ZM14.15,11.69l-.78.78a.58.58,0,0,0,0,.18L15,18l8.55-8.55A28.24,28.24,0,0,0,14.15,11.69ZM16.3,22a28.8,28.8,0,0,0,2.56,4.62l15-15a27,27,0,0,0-5.48-1.7Zm7.86,11.24s6.07-6.37,8.1-12a.89.89,0,0,0,.08-.17l1.14-3.78-12.4,12.4C22.77,31.75,24.16,33.21,24.16,33.21Z"/></svg>