<svg id="icon" xmlns="http://www.w3.org/2000/svg" viewBox="0 0 48 48"><path d="M8.12,24.52H1.33a1.34,1.34,0,0,1,0-2.67H8.12a1.34,1.34,0,0,1,0,2.67Z"/><path d="M46.67,24.52H39.88a1.34,1.34,0,0,1,0-2.67h6.79a1.34,1.34,0,0,1,0,2.67Z"/><path d="M24.14,11.54a1.33,1.33,0,0,1-1.34-1.33V3.42a1.34,1.34,0,0,1,2.67,0v6.79A1.33,1.33,0,0,1,24.14,11.54Z"/><path d="M35.08,16a1.33,1.33,0,0,1-.94-.39,1.34,1.34,0,0,1,0-1.89l4.8-4.8a1.33,1.33,0,0,1,1.88,1.89L36,15.59A1.35,1.35,0,0,1,35.08,16Z"/><path d="M12.87,16.3a1.33,1.33,0,0,1-.94-.39l-4.8-4.8A1.34,1.34,0,1,1,9,9.22l4.8,4.8a1.34,1.34,0,0,1-1,2.28Z"/><rect x="7.98" y="37.9" width="32.03" height="8.01" rx="0.96"/><path d="M32.34,17.5a2,2,0,0,0-2-1.6H17.62a2,2,0,0,0-2,1.6L12,35.23H36Zm-1.8,12.39a1.34,1.34,0,0,1-1.31-1.06l-1.46-7.06a.66.66,0,0,0-.65-.53H25.33a1.34,1.34,0,0,1,0-2.67H28.2a2,2,0,0,1,2,1.6l1.68,8.12A1.33,1.33,0,0,1,30.54,29.89Z"/></svg>