<svg id="icon" xmlns="http://www.w3.org/2000/svg" viewBox="0 0 48 48"><path d="M44.52,15.4c0-1.94-4.12-3.62-10.24-4.53L30.5.9a1.21,1.21,0,0,0-2-.54L25.39,2.9a2.28,2.28,0,0,1-2.78,0L19.53.36a1.27,1.27,0,0,0-2.1.51L13.12,11c-5.79.93-9.64,2.57-9.64,4.44s4,3.57,10,4.49a.76.76,0,0,0-.43.81l.41,2.52c0,.13.38,1.21.85,2.5L10,24.56l4.33,6.31A19.69,19.69,0,0,0,4.3,48H43.69A19.67,19.67,0,0,0,33.61,30.81l4.29-6.25-4.19,1.11c.46-1.24.79-2.26.82-2.39l.41-2.52a.76.76,0,0,0-.55-.85C40.45,19,44.52,17.32,44.52,15.4ZM32,26.77c-1.47,1.44-3.69-3.67-8-4-3.11.27-5.78,5.69-8,4a16.44,16.44,0,0,1-1-5.64q0-.51,0-1a73.76,73.76,0,0,0,8.89.51,73.76,73.76,0,0,0,8.89-.51q0,.51,0,1A16.44,16.44,0,0,1,32,26.77Z"/></svg>