<svg id="icon" xmlns="http://www.w3.org/2000/svg" viewBox="0 0 48 48"><defs><style>.cls-1{fill-rule:evenodd;}</style></defs><path class="cls-1" d="M15.27,35.05l-1.45,2.42L12.74,35a2.56,2.56,0,0,0-1.38,2.28,2.6,2.6,0,1,0,3.91-2.24ZM5.49,23h.06a105.7,105.7,0,0,1,18.6-1.59A105.73,105.73,0,0,1,42.76,23h.06A1.7,1.7,0,0,0,44.68,21L43.2,12.2A2.23,2.23,0,0,0,41,10.59,18.17,18.17,0,0,0,24.15,0,18.17,18.17,0,0,0,7.34,10.59,2.23,2.23,0,0,0,5.11,12.2L3.63,21A1.7,1.7,0,0,0,5.49,23Zm29.35,12.1-1.45,2.42L32.31,35a2.56,2.56,0,0,0-1.38,2.28,2.6,2.6,0,1,0,3.91-2.24Zm-1.19-8.4a10.69,10.69,0,0,0-5.07,1.29h-.1a7.88,7.88,0,0,1-9.36,0H19a10.67,10.67,0,1,0-.12,18.84v.08a7.89,7.89,0,0,1,9.8,0v-.09a10.66,10.66,0,0,0,15.61-9.45A10.67,10.67,0,0,0,33.65,26.65ZM14,42.62a5.34,5.34,0,1,1,5.34-5.33A5.34,5.34,0,0,1,14,42.62Zm19.62,0a5.34,5.34,0,1,1,5.33-5.33A5.34,5.34,0,0,1,33.58,42.62Z"/></svg>