<svg id="icon" xmlns="http://www.w3.org/2000/svg" viewBox="0 0 48 48"><path d="M37.22,27.85V22.1a1.61,1.61,0,0,0-2.28-1.65L24,25.09,13.06,20.45a1.61,1.61,0,0,0-2.28,1.65v5.75a19.34,19.34,0,0,0-9.23,16.5v1.26A2.39,2.39,0,0,0,3.93,48H44.07a2.39,2.39,0,0,0,2.38-2.39V44.35A19.34,19.34,0,0,0,37.22,27.85Z"/><path d="M24,16.2A38.91,38.91,0,0,1,13.84,15,4,4,0,0,0,14,17.89c1.08,2.26,4.18,3,6.92,1.74A6.61,6.61,0,0,0,23,18.07a1.34,1.34,0,0,1,2,0,6.61,6.61,0,0,0,2.08,1.56c2.74,1.3,5.84.52,6.92-1.74A4,4,0,0,0,34.18,15,38.58,38.58,0,0,1,24,16.2Z"/><path d="M30.27,0H17.73a4,4,0,0,0-4,4V5.89C10.8,6.81,9,8.12,9,9.58c0,2.78,6.74,5,15.05,5s15-2.25,15-5c0-1.46-1.85-2.77-4.8-3.69V4A4,4,0,0,0,30.27,0Z"/></svg>