<svg id="icon" xmlns="http://www.w3.org/2000/svg" viewBox="0 0 48 48"><rect x="6.27" y="20.44" width="3.28" height="5.9"/><polygon points="0 8.18 6.17 19.23 20.36 19.23 22.44 14.54 34.53 14.17 40.26 8.93 0 8.18"/><path d="M45.34,27.56v4.28H37a4.22,4.22,0,0,0-3.8-2.37H33L31.5,26.12l12.11-1.4V12H38.73l-3.38,3.09-.33.31h-.45l-11.33.35-1.77,4-.32.72H10.47v8.1l17.35-2,2,4.57a4.22,4.22,0,0,0,3.34,6.8,4.23,4.23,0,0,0,3.88-2.54h8.27v4.45H48V27.56ZM33.19,35.48a1.79,1.79,0,0,1-1.14-3.17l.88-.39.26,0a1.8,1.8,0,1,1,0,3.59Z"/></svg>