<svg id="icon" xmlns="http://www.w3.org/2000/svg" viewBox="0 0 48 48"><path d="M9.23,25.83,4.42,28.5A.88.88,0,0,1,3.13,28L0,16.4a.89.89,0,0,1,.85-1.12l5.5-.09a.89.89,0,0,1,.88.66l2.4,9A.88.88,0,0,1,9.23,25.83Z"/><path d="M21.37,19A7.13,7.13,0,0,1,29,11.86a7.29,7.29,0,0,1,6.63,7.36v3.06L46,19.49a2.68,2.68,0,0,0,1.89-3.27l-3.23-12a2.66,2.66,0,0,0-3.27-1.89L12.17,10.12a2.67,2.67,0,0,0-1.88,3.27l3.22,12a2.67,2.67,0,0,0,3.27,1.89l4.59-1.23Z"/><path d="M48,45.8V28H45.33a4.45,4.45,0,0,0-4.45,4.45v.89h-8a.79.79,0,0,1-.79-.79V19.12a3.67,3.67,0,0,0-3.21-3.7A3.57,3.57,0,0,0,24.93,19V36.54a3.93,3.93,0,0,0,3.92,3.92h12v.89a4.45,4.45,0,0,0,4.45,4.45Z"/></svg>