<svg id="icon" xmlns="http://www.w3.org/2000/svg" viewBox="0 0 48 48"><path d="M42.12.86H12.42A6.36,6.36,0,0,0,6.13,7.29V36.06H1a1,1,0,0,0-1,1v5.47a4.53,4.53,0,0,0,4.47,4.57H32.58A5.45,5.45,0,0,0,38,41.64V12.87h9a1,1,0,0,0,1-1V6.74A5.89,5.89,0,0,0,42.12.86ZM4.47,45.43a2.83,2.83,0,0,1-2.76-2.86v-4.8H26.38V41a6.16,6.16,0,0,0,1.85,4.41ZM36.25,6.74v34.9a3.74,3.74,0,0,1-3.67,3.79h-.21A4.35,4.35,0,0,1,28.1,41v-4.1a.86.86,0,0,0-.86-.86H7.84V7.29a4.66,4.66,0,0,1,4.58-4.72H38A5.85,5.85,0,0,0,36.25,6.74Zm10,4.41H38V6.74a4.17,4.17,0,1,1,8.33,0Z"/><path d="M27.85,8.44c-3.66-2-6-2-6.45-2s-2.78,0-6.43,2A1.81,1.81,0,0,0,14,10v8a3,3,0,0,0,1.32,2.41l5.45,3.75a1.09,1.09,0,0,0,.61.19,1,1,0,0,0,.61-.19l5.46-3.75A3,3,0,0,0,28.79,18V10A1.82,1.82,0,0,0,27.85,8.44ZM27.08,18a1.24,1.24,0,0,1-.58,1l-5.1,3.5L16.31,19a1.2,1.2,0,0,1-.57-1V10s0,0,.06-.07a11.83,11.83,0,0,1,5.43-1.81h.25S23.52,8,27,9.94a.23.23,0,0,1,.07.06Z"/><path d="M25,12.69l-3,5.64a1.07,1.07,0,0,1-.88.56H21a1.07,1.07,0,0,1-.88-.45L17.9,15.32a.87.87,0,0,1,.19-1.2.86.86,0,0,1,1.2.19l1.65,2.3,2.52-4.73a.86.86,0,0,1,1.16-.36A.87.87,0,0,1,25,12.69Z"/><path d="M23.92,28.11a.84.84,0,0,1-.85.85H12.45a.84.84,0,0,1-.85-.85.85.85,0,0,1,.85-.86H23.07A.85.85,0,0,1,23.92,28.11Z"/><path d="M31.22,28.11a.85.85,0,0,1-.86.85h-4a.84.84,0,0,1-.85-.85.85.85,0,0,1,.85-.86h4A.86.86,0,0,1,31.22,28.11Z"/><path d="M31.22,32.29a.87.87,0,0,1-.86.86H19.75a.86.86,0,0,1,0-1.72H30.36A.87.87,0,0,1,31.22,32.29Z"/><path d="M17.29,32.29a.86.86,0,0,1-.86.86h-4a.86.86,0,0,1,0-1.72h4A.86.86,0,0,1,17.29,32.29Z"/></svg>