<svg id="icon" xmlns="http://www.w3.org/2000/svg" viewBox="0 0 48 48"><path d="M40.17,13.87l1.55-1.56.21.22a1.21,1.21,0,0,0,1.69,0,1.19,1.19,0,0,0,0-1.69l-2.95-3A1.2,1.2,0,0,0,39,9.57l.49.49L38,11.56A20.85,20.85,0,0,0,26.65,6.38V4h.83a2,2,0,1,0,0-4h-7a2,2,0,1,0,0,4h.83V6.38a20.9,20.9,0,1,0,18.82,7.49ZM37.09,38.69l-1-1a.63.63,0,0,0-.88,0l-.59.58a.63.63,0,0,0,0,.88l1,1A17.37,17.37,0,0,1,25,44.55V43.11a.63.63,0,0,0-.63-.62h-.82a.62.62,0,0,0-.62.62v1.44a17.38,17.38,0,0,1-10.6-4.39l1-1a.63.63,0,0,0,0-.88l-.59-.58a.63.63,0,0,0-.88,0l-1,1A17.4,17.4,0,0,1,6.55,28.1H8a.62.62,0,0,0,.62-.62v-.83A.62.62,0,0,0,8,26H6.55A17.45,17.45,0,0,1,11,15.48l1,1a.63.63,0,0,0,.88,0l.59-.58a.63.63,0,0,0,0-.88l-1-1A17.52,17.52,0,0,1,23,9.65V11a.62.62,0,0,0,.62.62h.82A.63.63,0,0,0,25,11V9.65A17.52,17.52,0,0,1,35.59,14l-1,1a.63.63,0,0,0,0,.88l.59.58a.63.63,0,0,0,.88,0l1-1A17.39,17.39,0,0,1,41.45,26H40a.62.62,0,0,0-.62.62v.83a.62.62,0,0,0,.62.62h1.41A17.4,17.4,0,0,1,37.09,38.69Z"/><path d="M32.5,17l-6.12,6.11,1.48,1.42,5.29-5.29h0l.79-.8A1,1,0,0,0,32.5,17Z"/><path d="M24.08,24a3,3,0,1,0,3,2.95A2.95,2.95,0,0,0,24.08,24Z"/></svg>