<svg id="icon" xmlns="http://www.w3.org/2000/svg" viewBox="0 0 48 48"><defs><style>.cls-1{fill-rule:evenodd;}</style></defs><path class="cls-1" d="M17.45,0V8.07l-4.16,2.4L9.13,8.07V0a8.81,8.81,0,0,0,2.18,16.36v2.35a4.25,4.25,0,0,0-3.69,4.21V43.75A4.25,4.25,0,0,0,11.87,48H14.7A4.25,4.25,0,0,0,19,43.75V22.92a4.24,4.24,0,0,0-3.68-4.21V16.36A8.82,8.82,0,0,0,17.45,0ZM40.56,22.28l.1-.05a3.21,3.21,0,0,0-1.54-2.74V7.5l1.12-1.78V.26H33.62V5.72L34.75,7.5v12a3.19,3.19,0,0,0-1.54,2.74l0,.05a3.42,3.42,0,0,0-3,3.37V44.44A3.57,3.57,0,0,0,33.83,48H40a3.57,3.57,0,0,0,3.57-3.56V25.79A3.57,3.57,0,0,0,40.56,22.28ZM34.94,44.17c0,.26-.31.48-.69.48s-.68-.22-.68-.48V26.92c0-.26.3-.47.68-.47s.69.21.69.47Zm5.36,0c0,.26-.31.48-.69.48s-.68-.22-.68-.48V26.92c0-.26.3-.47.68-.47s.69.21.69.47Z"/></svg>