<svg id="icon" xmlns="http://www.w3.org/2000/svg" viewBox="0 0 48 48"><path d="M14.56,35.5a6.25,6.25,0,1,0,6.25,6.25A6.25,6.25,0,0,0,14.56,35.5Zm0,8.75a2.5,2.5,0,1,1,2.5-2.5A2.5,2.5,0,0,1,14.56,44.25Z"/><path d="M37.13,34.69a7.56,7.56,0,0,1,2.94-.59,7.65,7.65,0,0,1,3,.59V23.46a9.06,9.06,0,0,0-.84-3.79,1.37,1.37,0,0,1,.13.2,8.28,8.28,0,0,1,.45.83c.13.29.29.56.39.85a15.27,15.27,0,0,1,.61,1.71c.18.56.28,1.12.4,1.64s.14,1,.21,1.49.05.87.08,1.23a8.32,8.32,0,0,1,0,1c0,1.32,3.17,1.36,3.17-.17a9.35,9.35,0,0,0-.18-1.09c-.09-.44-.17-1-.32-1.48s-.29-1.08-.51-1.66-.44-1.18-.74-1.78a16.72,16.72,0,0,0-1-1.8c-.17-.3-.39-.58-.58-.87a9,9,0,0,0-.64-.85c-.23-.27-.45-.54-.69-.8l-.74-.73c-.25-.25-.53-.45-.79-.67l-.39-.31-.42-.28c-.27-.17-.53-.36-.81-.51L39,15.21a7.41,7.41,0,0,0-.8-.32,6.25,6.25,0,0,0-.77-.25,8.91,8.91,0,0,0-1.37-.27A7.32,7.32,0,0,0,35,14.3l-.64,0-.51,0H19.19C15.92-2.54,7.43-.06,3.67.38a.63.63,0,0,0-.53.76l.61,2.7A5.08,5.08,0,0,0,2.58,6L.42,14a1.25,1.25,0,0,0,.89,1.53l1.92.51a1.23,1.23,0,0,0,1.32-.45l2.37-3.16a4.08,4.08,0,0,0,.61,0c1.09.32,2,2.12,2.63,5.33.44,2.42.78,5.21,1,8.31.18,2.52.3,5.38.36,8.56a7.74,7.74,0,0,1,3-.61,7.6,7.6,0,0,1,2.94.59V30.15a43.89,43.89,0,0,0,9.86,1,43.91,43.91,0,0,0,9.77-1Z"/><path d="M32.53,43a7.16,7.16,0,0,1,0-2.5H22.1a7.16,7.16,0,0,1,0,2.5Z"/><path d="M40.07,35.5a6.25,6.25,0,1,0,6.25,6.25A6.25,6.25,0,0,0,40.07,35.5Zm0,8.75a2.5,2.5,0,1,1,2.5-2.5A2.5,2.5,0,0,1,40.07,44.25Z"/></svg>