<svg id="icon" xmlns="http://www.w3.org/2000/svg" viewBox="0 0 48 48"><path d="M.28,29.38C4.39,32.2,13.47,37.46,24,37.46s19.61-5.26,23.72-8.08A82.81,82.81,0,0,1,24,32.47,82.81,82.81,0,0,1,.28,29.38Z"/><path d="M24,20a98.33,98.33,0,0,0,10.53-.56l-.43-.13c0-.23,0-.46,0-.69,0-4.48-4.57-8.11-10.21-8.11s-10.21,3.63-10.21,8.11a6,6,0,0,0,0,.73l-.31.09A98.67,98.67,0,0,0,24,20Z"/><path d="M24,21.12a99.37,99.37,0,0,1-13-.82A50.55,50.55,0,0,0,0,26.09v1.5c5.88,1.93,14.15,3.24,24,3.24s18.12-1.31,24-3.24v-1.5A50.55,50.55,0,0,0,37,20.3,99.37,99.37,0,0,1,24,21.12ZM9.16,25c-.47.48-1.08.65-1.34.39s-.1-.87.38-1.35,1.08-.65,1.35-.39S9.64,24.53,9.16,25ZM24,27c-.44,0-.8-.54-.8-1.22s.36-1.23.8-1.23.8.55.8,1.23S24.44,27,24,27Zm14.45-3.29c.27-.26.87-.09,1.35.39s.65,1.08.38,1.35-.87.09-1.34-.39S38.19,23.93,38.45,23.66Z"/></svg>