<svg id="icon" xmlns="http://www.w3.org/2000/svg" viewBox="0 0 48 48"><g id="_5" data-name="5"><path d="M17.29,8.55a24,24,0,0,0-6,15.05H2.22c.9-9.55,8.51-16.86,18.29-18.29q-.61.53-1.29,1.17C18.6,7.09,17.94,7.78,17.29,8.55Z"/><path d="M33.63,23.6H14.28a20.72,20.72,0,0,1,5.2-13.06A26.31,26.31,0,0,1,24,6.29a26.45,26.45,0,0,1,4.47,4.24A21,21,0,0,1,33.63,23.6Z"/><path d="M45.81,23.6H36.6a24.3,24.3,0,0,0-5.89-15c-.64-.77-1.29-1.46-1.91-2.07q-.66-.65-1.26-1.17C37.31,6.74,44.92,14.05,45.81,23.6Z"/><path d="M25.48,23.6h-3V8.23a1.48,1.48,0,0,1,3,0Z"/><path d="M33.73,41.17v1.22a5.61,5.61,0,1,1-11.21,0V26.56h3V42.39a2.65,2.65,0,1,0,5.29,0V41.17a1.48,1.48,0,1,1,3,0Z"/><path d="M22.61,4.1h0l.64,0Z"/><path d="M22,4.14c-.41.31-.9.7-1.44,1.17s-.84.74-1.29,1.17C10,8.2,3.12,14.8,3.12,22.64a1,1,0,0,1-.75,1,.93.93,0,0,1-.24,0,1,1,0,0,1-1-1c0-5,2.4-9.69,6.76-13.2A25.29,25.29,0,0,1,22,4.14Z"/><path d="M25.48,4.11h0l-.37,0,.37,0Z"/><path d="M46.85,22.61a1,1,0,0,1-1,1h-.08a1,1,0,0,1-.62-.29,1,1,0,0,1-.29-.7c0-4.38-2.15-8.52-6-11.65a22.64,22.64,0,0,0-10-4.48q-.66-.65-1.26-1.17c-.53-.47-1-.85-1.42-1.16a25.23,25.23,0,0,1,14,5.27C44.44,12.93,46.85,17.61,46.85,22.61Z"/><path d="M25.48,1.48V4.11h0l-.37,0-1.1,0h-.76l-.64,0h-.09V1.48a1.48,1.48,0,0,1,3,0Z"/></g></svg>