<svg id="icon" xmlns="http://www.w3.org/2000/svg" viewBox="0 0 48 48"><defs><style>.cls-1{fill-rule:evenodd;}</style></defs><path class="cls-1" d="M41.42,18.33a2.75,2.75,0,0,0-2.76-2.76h-.44V3.08A3.08,3.08,0,0,0,35.13,0H12.87A3.08,3.08,0,0,0,9.78,3.08V15.57H9.34a2.75,2.75,0,0,0-2.76,2.76V31.44a2.7,2.7,0,0,0,.61,1.71h0l.21.22h0a9.31,9.31,0,0,1,2.12,6.16v5.69A2.77,2.77,0,0,0,12.27,48H35.73a2.77,2.77,0,0,0,2.76-2.76V39.55a9.31,9.31,0,0,1,2.09-6.13l.13-.14.11-.12h0a2.75,2.75,0,0,0,.61-1.72Zm-7.14-2.76H13.72V5.15c0-1.23.23-1.46,1.46-1.46H32.82c1.23,0,1.46.23,1.46,1.46ZM20.9,8.23H18a1.25,1.25,0,0,0-1.25,1.25V10A1.25,1.25,0,0,0,18,11.27H20.9A1.25,1.25,0,0,0,22.15,10V9.48A1.25,1.25,0,0,0,20.9,8.23Zm9.08,0H27.07a1.25,1.25,0,0,0-1.25,1.25V10a1.25,1.25,0,0,0,1.25,1.25H30A1.25,1.25,0,0,0,31.23,10V9.48A1.25,1.25,0,0,0,30,8.23Z"/></svg>