<svg id="icon" xmlns="http://www.w3.org/2000/svg" viewBox="0 0 48 48"><path d="M45,23.43a3.58,3.58,0,0,0-3.84,2l-3.72-1.1a13.47,13.47,0,0,0-1.12-6.38l3.12-2.3a3.61,3.61,0,1,0-1-1.74L34.9,15.42a13.15,13.15,0,0,0-5-4.16l.91-3.77A3.6,3.6,0,1,0,29,6.8l-1.72,3.48a13.53,13.53,0,0,0-6.48,0L19,6.8a3.6,3.6,0,1,0-1.89.69l.91,3.76a13.47,13.47,0,0,0-4.41,3.44c-.2.24-.37.49-.55.74L9.54,13.87a3.6,3.6,0,1,0-1,1.74l3.12,2.3a13.44,13.44,0,0,0-1.13,6.38L6.82,25.38a3.6,3.6,0,1,0,.35,2L11,27.12a13.35,13.35,0,0,0,3.25,5.62L12.13,36a3.6,3.6,0,1,0,1.54,1.29l2.8-2.66a13.45,13.45,0,0,0,6.09,2.22L23,40.66a3.61,3.61,0,1,0,2,0l.42-3.83a13.51,13.51,0,0,0,6.1-2.22l2.8,2.68A3.59,3.59,0,1,0,35.87,36l-2.15-3.23c.21-.22.43-.43.63-.67A13.5,13.5,0,0,0,37,27.12l3.86.25A3.59,3.59,0,1,0,45,23.43Z"/></svg>