<svg id="icon" xmlns="http://www.w3.org/2000/svg" viewBox="0 0 48 48"><path d="M21,35.83a4.26,4.26,0,1,0,6,0A4.26,4.26,0,0,0,21,35.83Z"/><path d="M14.06,28.9l3.65,3.65a8.9,8.9,0,0,1,12.58,0l3.65-3.65A14.07,14.07,0,0,0,14.06,28.9Z"/><path d="M37.14,25.71l3.65-3.65a23.77,23.77,0,0,0-33.58,0l3.65,3.65A18.6,18.6,0,0,1,37.14,25.71Z"/><path d="M24,4.9A33.71,33.71,0,0,0,0,14.84l3.65,3.65a28.78,28.78,0,0,1,40.7,0L48,14.84A33.71,33.71,0,0,0,24,4.9Z"/><path d="M41.15,34.71a2.49,2.49,0,0,0-5,0v1.83H35V42H42.3V36.54H41.15Zm-3.68,0a1.2,1.2,0,1,1,2.39,0v1.83H37.47Z"/></svg>