<svg id="icon" xmlns="http://www.w3.org/2000/svg" viewBox="0 0 48 48"><path d="M26.8,35a4,4,0,1,0,0,5.59A4,4,0,0,0,26.8,35Z"/><path d="M29.85,31.94l1.7,1.7,3.39-3.39-1.7-1.7a13.09,13.09,0,0,0-18.48,0l-1.7,1.7,3.39,3.39,1.7-1.7A8.29,8.29,0,0,1,29.85,31.94Z"/><path d="M36.21,25.58l1.69,1.7,3.4-3.39-1.7-1.7a22.09,22.09,0,0,0-31.2,0l-1.7,1.7,3.4,3.39,1.69-1.7A17.29,17.29,0,0,1,36.21,25.58Z"/><path d="M42.91,18.88l1.7,1.7L48,17.18l-1.7-1.69a31.53,31.53,0,0,0-44.6,0L0,17.18l3.39,3.4,1.7-1.7A26.77,26.77,0,0,1,42.91,18.88Z"/></svg>