<svg id="icon" xmlns="http://www.w3.org/2000/svg" viewBox="0 0 48 48"><path d="M47.54,22.58C47.11,22,37,8.35,24,8.35S.89,22,.46,22.58a2.43,2.43,0,0,0,0,2.84C.89,26,11,39.65,24,39.65S47.11,26,47.54,25.42A2.43,2.43,0,0,0,47.54,22.58ZM24,33.61A9.61,9.61,0,1,1,33.61,24,9.62,9.62,0,0,1,24,33.61ZM10.41,19.12a14.46,14.46,0,0,0,0,9.74A44.32,44.32,0,0,1,5.52,24,42.73,42.73,0,0,1,10.41,19.12Zm27.18,9.76a14.46,14.46,0,0,0,0-9.74A44.32,44.32,0,0,1,42.48,24,42.73,42.73,0,0,1,37.59,28.88Z"/><path d="M24,27.77A3.77,3.77,0,1,1,27.77,24,3.77,3.77,0,0,1,24,27.77Z"/><circle cx="24" cy="24" r="3.77"/></svg>