<svg id="icon" xmlns="http://www.w3.org/2000/svg" viewBox="0 0 48 48"><g id="_14" data-name="14"><path d="M46.06,2.79H1.94a.87.87,0,0,0-.87.88V8.91a.71.71,0,0,0,0,.14.88.88,0,0,0,.86.73H46.06a.88.88,0,0,0,.86-.73.71.71,0,0,0,0-.14V3.67A.87.87,0,0,0,46.06,2.79ZM14.72,6.34a1.19,1.19,0,1,1-1.19-1.19A1.19,1.19,0,0,1,14.72,6.34Zm-3.81,0A1.19,1.19,0,1,1,9.72,5.15,1.19,1.19,0,0,1,10.91,6.34Zm-5-1.19A1.19,1.19,0,1,1,4.73,6.34,1.19,1.19,0,0,1,5.92,5.15Z"/><path d="M44.78,1.72H3.22A3.23,3.23,0,0,0,0,5v38.1a3.23,3.23,0,0,0,3.22,3.23H44.78A3.23,3.23,0,0,0,48,43.05V5A3.23,3.23,0,0,0,44.78,1.72Zm1.09,41.33a1.09,1.09,0,0,1-1.09,1.09H3.22a1.09,1.09,0,0,1-1.09-1.09V5A1.09,1.09,0,0,1,3.22,3.86H44.78A1.09,1.09,0,0,1,45.87,5Z"/><path d="M46.93,10.54H1.07a.75.75,0,1,1,0-1.49H46.93a.75.75,0,1,1,0,1.49Z"/><path d="M24,17.45a10.05,10.05,0,1,0,10,10.05A10.05,10.05,0,0,0,24,17.45Zm4.82,7.47-5.24,6.5a1.07,1.07,0,0,1-.77.4h-.06A1,1,0,0,1,22,31.5l-2.74-2.74a1.06,1.06,0,0,1,1.5-1.51l1.91,1.91,4.49-5.58a1.07,1.07,0,0,1,1.66,1.34Z"/><path d="M24,16.92A10.59,10.59,0,1,0,34.59,27.5,10.58,10.58,0,0,0,24,16.92ZM24,37a9.52,9.52,0,1,1,9.52-9.52A9.53,9.53,0,0,1,24,37Z"/></g></svg>